999
dxflib 3.12.2.0
  0
SECTION
  2
HEADER
  9
$ACADVER
  1
AC1015
  9
$HANDSEED
  5
FFFF
  9
$ANGBASE
 50
0.0
  9
$ATTMODE
 70
1
  9
$AUNITS
 70
0
  9
$AUPREC
 70
0
  9
$CELTSCALE
 40
1.0
  9
$CHAMFERA
 40
0.0
  9
$CHAMFERB
 40
0.0
  9
$CHAMFERC
 40
0.0
  9
$CHAMFERD
 40
0.0
  9
$CMLJUST
 70
0
  9
$CMLSCALE
 40
20.0
  9
$DIMADEC
 70
0
  9
$DIMALTD
 70
3
  9
$DIMALTF
 40
0.03937007874016
  9
$DIMALTRND
 40
0.0
  9
$DIMALTTD
 70
3
  9
$DIMALTTZ
 70
0
  9
$DIMALTU
 70
2
  9
$DIMALTZ
 70
0
  9
$DIMAPOST
  1

  9
$DIMASZ
 40
2.5
  9
$DIMATFIT
 70
3
  9
$DIMAUNIT
 70
0
  9
$DIMAZIN
 70
0
  9
$DIMCEN
 40
2.5
  9
$DIMDEC
 70
2
  9
$DIMDLE
 40
0.0
  9
$DIMDLI
 40
3.75
  9
$DIMDSEP
 70
44
  9
$DIMEXE
 40
1.25
  9
$DIMEXO
 40
0.625
  9
$DIMFRAC
 70
0
  9
$DIMGAP
 40
0.625
  9
$DIMJUST
 70
0
  9
$DIMLFAC
 40
1.0
  9
$DIMLUNIT
 70
2
  9
$DIMLWD
 70
-2
  9
$DIMLWE
 70
-2
  9
$DIMPOST
  1

  9
$DIMRND
 40
0.0
  9
$DIMSCALE
 40
1.0
  9
$DIMTAD
 70
1
  9
$DIMTDEC
 70
2
  9
$DIMTFAC
 40
1.0
  9
$DIMTM
 40
0.0
  9
$DIMTOLJ
 70
0
  9
$DIMTP
 40
0.0
  9
$DIMTSZ
 40
0.0
  9
$DIMTVP
 40
0.0
  9
$DIMTXT
 40
2.5
  9
$DIMTZIN
 70
8
  9
$DIMZIN
 70
8
  9
$DWGCODEPAGE
  3
ANSI_1252
  9
$ELEVATION
 40
0.0
  9
$EXTMAX
 10
532721.0600000000558794
 20
6580629.3887732839211822
 30
0.0
  9
$EXTMIN
 10
532597.9998224410228431
 20
6580439.6357062887400389
 30
0.0
  9
$FILLETRAD
 40
0.0
  9
$INSBASE
 10
0.0
 20
0.0
 30
0.0
  9
$INSUNITS
 70
6
  9
$LIMMAX
 10
420.0
 20
297.0
  9
$LIMMIN
 10
0.0
 20
0.0
  9
$LTSCALE
 40
1.0
  9
$LUNITS
 70
2
  9
$LUPREC
 70
4
  9
$MAXACTVP
 70
2
  9
$MEASUREMENT
 70
1
  9
$PDMODE
 70
0
  9
$PDSIZE
 40
0
  9
$PELEVATION
 40
0.0
  9
$PEXTMAX
 10
438.9941910748307237
 20
286.4802245690070777
 30
0.0
  9
$PEXTMIN
 10
-31.4951816837310616
 20
1.4802245690070777
 30
0.0
  9
$PINSBASE
 10
0.0
 20
0.0
 30
0.0
  9
$PLIMMAX
 10
1949.9960861206054688
 20
908.8919677734375
  9
$PLIMMIN
 10
-49.8729324340820312
 20
-5.0
  9
$PLINEWID
 40
0.0
  9
$PROXYGRAPHICS
 70
1
  9
$PUCSORG
 10
0.0
 20
0.0
 30
0.0
  9
$PUCSXDIR
 10
1.0
 20
0.0
 30
0.0
  9
$PUCSYDIR
 10
0.0
 20
1.0
 30
0.0
  9
$SHADEDGE
 70
3
  9
$SHADEDIF
 70
70
  9
$SKETCHINC
 40
1.0
  9
$SPLINESEGS
 70
8
  9
$SPLINETYPE
 70
6
  9
$SURFTAB1
 70
6
  9
$SURFTAB2
 70
6
  9
$SURFTYPE
 70
6
  9
$SURFU
 70
6
  9
$SURFV
 70
6
  9
$TEXTSIZE
 40
2.5
  9
$THICKNESS
 40
0.0
  9
$TRACEWID
 40
1.0
  9
$TREEDEPTH
 70
3020
  9
$UCSORG
 10
0.0
 20
0.0
 30
0.0
  9
$UCSXDIR
 10
1.0
 20
0.0
 30
0.0
  9
$UCSYDIR
 10
0.0
 20
1.0
 30
0.0
  9
$UNITMODE
 70
0
  9
$USERI1
 70
1
  9
$USERI2
 70
0
  9
$USERI3
 70
0
  9
$USERI4
 70
0
  9
$USERI5
 70
0
  9
$USERR1
 40
0.0
  9
$USERR2
 40
0.0
  9
$USERR3
 40
0.0
  9
$USERR4
 40
0.0
  9
$USERR5
 40
0.0
  0
ENDSEC
  0
SECTION
  2
TABLES
  0
TABLE
  2
VPORT
  5
8
100
AcDbSymbolTable
 70
1
  0
VPORT
  5
30
100
AcDbSymbolTableRecord
100
AcDbViewportTableRecord
  2
*Active
 70
0
 10
0.0
 20
0.0
 11
1.0
 21
1.0
 12
286.3055555555554861
 22
148.5
 13
0.0
 23
0.0
 14
10.0
 24
10.0
 15
10.0
 25
10.0
 16
0.0
 26
0.0
 36
1.0
 17
0.0
 27
0.0
 37
0.0
 40
297.0
 41
1.92798353909465
 42
50.0
 43
0.0
 44
0.0
 50
0.0
 51
0.0
 71
0
 72
100
 73
1
 74
3
 75
1
 76
1
 77
0
 78
0
281
0
 65
1
110
0.0
120
0.0
130
0.0
111
1.0
121
0.0
131
0.0
112
0.0
122
1.0
132
0.0
 79
0
146
0.0
  0
ENDTAB
  0
TABLE
  2
LTYPE
  5
5
100
AcDbSymbolTable
 70
60
  0
LTYPE
  5
16
100
AcDbSymbolTableRecord
100
AcDbLinetypeTableRecord
  2
Continuous
 70
0
  3
Solid line
 72
65
 73
0
 40
0.0
  0
LTYPE
  5
31
100
AcDbSymbolTableRecord
100
AcDbLinetypeTableRecord
  2
ACAD_ISO15W100
 70
0
  3
ISO double-dash triple-dot __ __ . . . __ __ . .
 72
65
 73
10
 40
39.0000000000000071
 49
12.0
 74
0
 49
-3.0
 74
0
 49
12.0
 74
0
 49
-2.9500000000000002
 74
0
 49
0.1
 74
0
 49
-2.9000000000000004
 74
0
 49
0.1
 74
0
 49
-2.9000000000000004
 74
0
 49
0.1
 74
0
 49
-2.9500000000000002
 74
0
  0
LTYPE
  5
32
100
AcDbSymbolTableRecord
100
AcDbLinetypeTableRecord
  2
HOT_WATER_SUPPLY
 70
0
  3
Hot water supply ---- HW ---- HW ---- HW ----
 72
65
 73
3
 40
22.8599999999999994
 49
12.6999999999999993
 74
0
 49
-5.0800000000000001
 74
0
 49
-5.0800000000000001
 74
0
  0
LTYPE
  5
33
100
AcDbSymbolTableRecord
100
AcDbLinetypeTableRecord
  2
DIVIDE
 70
0
  3
Divide ____ . . ____ . . ____ . . ____ . . ____
 72
65
 73
6
 40
31.7500000000000036
 49
12.6999999999999993
 74
0
 49
-6.2999999999999998
 74
0
 49
0.1
 74
0
 49
-6.25
 74
0
 49
0.1
 74
0
 49
-6.2999999999999998
 74
0
  0
LTYPE
  5
34
100
AcDbSymbolTableRecord
100
AcDbLinetypeTableRecord
  2
ACAD_ISO10W100
 70
0
  3
ISO dash dot __ . __ . __ . __ . __ . __ . __ . 
 72
65
 73
4
 40
18.0
 49
12.0
 74
0
 49
-2.9500000000000002
 74
0
 49
0.1
 74
0
 49
-2.9500000000000002
 74
0
  0
LTYPE
  5
35
100
AcDbSymbolTableRecord
100
AcDbLinetypeTableRecord
  2
-KS-
 70
0
  3
 Surve kanalisatsioon -->-- k ------
 72
65
 73
6
 40
26.0
 49
5.0
 74
0
 49
5.0
 74
0
 49
-1.5
 74
0
 49
-1.5
 74
0
 49
10.0
 74
0
 49
-3.0
 74
0
  0
LTYPE
  5
36
100
AcDbSymbolTableRecord
100
AcDbLinetypeTableRecord
  2
GAS_LINE
 70
0
  3
Gas line ----GAS----GAS----GAS----GAS----GAS----GAS--
 72
65
 73
3
 40
24.1300000000000026
 49
12.6999999999999993
 74
0
 49
-5.0800000000000001
 74
0
 49
-6.3499999999999996
 74
0
  0
LTYPE
  5
37
100
AcDbSymbolTableRecord
100
AcDbLinetypeTableRecord
  2
ACAD_ISO04W100
 70
0
  3
ISO long-dash dot ____ . ____ . ____ . ____ . _
 72
65
 73
4
 40
30.0
 49
24.0
 74
0
 49
-2.9500000000000002
 74
0
 49
0.1
 74
0
 49
-2.9500000000000002
 74
0
  0
LTYPE
  5
38
100
AcDbSymbolTableRecord
100
AcDbLinetypeTableRecord
  2
-V-
 70
0
  3
 Veetrass ------ V ------  -------
 72
65
 73
5
 40
26.0
 49
10.0
 74
0
 49
-1.5
 74
0
 49
-1.5
 74
0
 49
10.0
 74
0
 49
-3.0
 74
0
  0
LTYPE
  5
14
100
AcDbSymbolTableRecord
100
AcDbLinetypeTableRecord
  2
ByBlock
 70
0
  3

 72
65
 73
0
 40
0.0
  0
LTYPE
  5
39
100
AcDbSymbolTableRecord
100
AcDbLinetypeTableRecord
  2
V1_tihe
 70
0
  3
V1 tihe ----V1----V1----V1----V1----V1----V1--
 72
65
 73
3
 40
15.0
 49
8.0
 74
0
 49
-4.0
 74
0
 49
-3.0
 74
0
  0
LTYPE
  5
3A
100
AcDbSymbolTableRecord
100
AcDbLinetypeTableRecord
  2
CENTER2
 70
0
  3
Center (.5x) ___ _ ___ _ ___ _ ___ _ ___ _ ___
 72
65
 73
4
 40
28.5750000000000028
 49
19.0500000000000007
 74
0
 49
-3.1749999999999998
 74
0
 49
3.1749999999999998
 74
0
 49
-3.1749999999999998
 74
0
  0
LTYPE
  5
3B
100
AcDbSymbolTableRecord
100
AcDbLinetypeTableRecord
  2
ACAD_ISO11W100
 70
0
  3
ISO double-dash dot __ __ . __ __ . __ __ . __ _
 72
65
 73
6
 40
33.0
 49
12.0
 74
0
 49
-3.0
 74
0
 49
12.0
 74
0
 49
-2.9500000000000002
 74
0
 49
0.1
 74
0
 49
-2.9500000000000002
 74
0
  0
LTYPE
  5
3C
100
AcDbSymbolTableRecord
100
AcDbLinetypeTableRecord
  2
HIDDEN2
 70
0
  3
Hidden (.5x) _ _ _ _ _ _ _ _ _ _ _ _ _ _ _ _ _ 
 72
65
 73
2
 40
4.7624999999999993
 49
3.1749999999999998
 74
0
 49
-1.5874999999999999
 74
0
  0
LTYPE
  5
3D
100
AcDbSymbolTableRecord
100
AcDbLinetypeTableRecord
  2
BORDERX2
 70
0
  3
Border (2x) ____  ____  .  ____  ____  .  ___
 72
65
 73
6
 40
88.8999999999999773
 49
25.3999999999999986
 74
0
 49
-12.6999999999999993
 74
0
 49
25.3999999999999986
 74
0
 49
-12.6499999999999986
 74
0
 49
0.1
 74
0
 49
-12.6499999999999986
 74
0
  0
LTYPE
  5
3E
100
AcDbSymbolTableRecord
100
AcDbLinetypeTableRecord
  2
VIITJOON
 70
0
  3
 Viite riiulid ________________________
 72
65
 73
2
 40
0.2
 49
0.1
 74
0
 49
0.1
 74
0
  0
LTYPE
  5
3F
100
AcDbSymbolTableRecord
100
AcDbLinetypeTableRecord
  2
ACAD_ISO05W100
 70
0
  3
ISO long-dash double-dot ____ .. ____ .. ____ . 
 72
65
 73
6
 40
33.0000000000000071
 49
24.0
 74
0
 49
-2.9500000000000002
 74
0
 49
0.1
 74
0
 49
-2.9000000000000004
 74
0
 49
0.1
 74
0
 49
-2.9500000000000002
 74
0
  0
LTYPE
  5
40
100
AcDbSymbolTableRecord
100
AcDbLinetypeTableRecord
  2
DASHDOTX2
 70
0
  3
Dash dot (2x) ____  .  ____  .  ____  .  ___
 72
65
 73
4
 40
50.7999999999999972
 49
25.3999999999999986
 74
0
 49
-12.6499999999999986
 74
0
 49
0.1
 74
0
 49
-12.6499999999999986
 74
0
  0
LTYPE
  5
41
100
AcDbSymbolTableRecord
100
AcDbLinetypeTableRecord
  2
HIDDENX2
 70
0
  3
Hidden (2x) ____ ____ ____ ____ ____ ____ ____ 
 72
65
 73
2
 40
19.0499999999999972
 49
12.6999999999999993
 74
0
 49
-6.3499999999999996
 74
0
  0
LTYPE
  5
42
100
AcDbSymbolTableRecord
100
AcDbLinetypeTableRecord
  2
CENTERX2
 70
0
  3
Center (2x) ________  __  ________  __  _____
 72
65
 73
4
 40
101.6000000000000085
 49
63.5
 74
0
 49
-12.6999999999999993
 74
0
 49
12.6999999999999993
 74
0
 49
-12.6999999999999993
 74
0
  0
LTYPE
  5
43
100
AcDbSymbolTableRecord
100
AcDbLinetypeTableRecord
  2
BORDER2
 70
0
  3
Border (.5x) __.__.__.__.__.__.__.__.__.__.__.
 72
65
 73
6
 40
22.2250000000000014
 49
6.3499999999999996
 74
0
 49
-3.1749999999999998
 74
0
 49
6.3499999999999996
 74
0
 49
-3.125
 74
0
 49
0.1
 74
0
 49
-3.125
 74
0
  0
LTYPE
  5
44
100
AcDbSymbolTableRecord
100
AcDbLinetypeTableRecord
  2
DASHDOT2
 70
0
  3
Dash dot (.5x) _._._._._._._._._._._._._._._.
 72
65
 73
4
 40
12.6999999999999993
 49
6.3499999999999996
 74
0
 49
-3.125
 74
0
 49
0.1
 74
0
 49
-3.125
 74
0
  0
LTYPE
  5
45
100
AcDbSymbolTableRecord
100
AcDbLinetypeTableRecord
  2
ACAD_ISO12W100
 70
0
  3
ISO dash double-dot __ . . __ . . __ . . __ . . 
 72
65
 73
6
 40
21.0
 49
12.0
 74
0
 49
-2.9500000000000002
 74
0
 49
0.1
 74
0
 49
-2.9000000000000004
 74
0
 49
0.1
 74
0
 49
-2.9500000000000002
 74
0
  0
LTYPE
  5
46
100
AcDbSymbolTableRecord
100
AcDbLinetypeTableRecord
  2
ACAD_ISO07W100
 70
0
  3
ISO dot . . . . . . . . . . . . . . . . . . . . 
 72
65
 73
2
 40
3.0
 49
0.1
 74
0
 49
-2.8999999999999999
 74
0
  0
LTYPE
  5
47
100
AcDbSymbolTableRecord
100
AcDbLinetypeTableRecord
  2
KRAAVIPERV
 70
0
  3
Kraavi perv ______________________________
 72
65
 73
2
 40
0.02
 49
0.01
 74
0
 49
0.01
 74
0
  0
LTYPE
  5
48
100
AcDbSymbolTableRecord
100
AcDbLinetypeTableRecord
  2
ACAD_ISO06W100
 70
0
  3
ISO long-dash triple-dot ____ ... ____ ... ____
 72
65
 73
8
 40
36.0000000000000071
 49
24.0
 74
0
 49
-2.9500000000000002
 74
0
 49
0.1
 74
0
 49
-2.9000000000000004
 74
0
 49
0.1
 74
0
 49
-2.9000000000000004
 74
0
 49
0.1
 74
0
 49
-2.9500000000000002
 74
0
  0
LTYPE
  5
49
100
AcDbSymbolTableRecord
100
AcDbLinetypeTableRecord
  2
CENTER
 70
0
  3
Center ____ _ ____ _ ____ _ ____ _ ____ _ ____
 72
65
 73
4
 40
50.8000000000000043
 49
31.75
 74
0
 49
-6.3499999999999996
 74
0
 49
6.3499999999999996
 74
0
 49
-6.3499999999999996
 74
0
  0
LTYPE
  5
4A
100
AcDbSymbolTableRecord
100
AcDbLinetypeTableRecord
  2
HIDDEN
 70
0
  3
Hidden __ __ __ __ __ __ __ __ __ __ __ __ __ __
 72
65
 73
2
 40
9.5249999999999986
 49
6.3499999999999996
 74
0
 49
-3.1749999999999998
 74
0
  0
LTYPE
  5
4B
100
AcDbSymbolTableRecord
100
AcDbLinetypeTableRecord
  2
KATASTRIPIIR
 70
0
  3
 Katastri\U+00fcksuse piir _________________________
 72
65
 73
2
 40
0.02
 49
0.01
 74
0
 49
0.01
 74
0
  0
LTYPE
  5
4C
100
AcDbSymbolTableRecord
100
AcDbLinetypeTableRecord
  2
DOTX2
 70
0
  3
Dot (2x) .  .  .  .  .  .  .  .  .  .  .  .  .  .
 72
65
 73
2
 40
12.6999999999999993
 49
0.1
 74
0
 49
-12.5999999999999996
 74
0
  0
LTYPE
  5
4D
100
AcDbSymbolTableRecord
100
AcDbLinetypeTableRecord
  2
PHANTOM
 70
0
  3
Phantom ______  __  __  ______  __  __  ______ 
 72
65
 73
6
 40
63.5000000000000071
 49
31.75
 74
0
 49
-6.3499999999999996
 74
0
 49
6.3499999999999996
 74
0
 49
-6.3499999999999996
 74
0
 49
6.3499999999999996
 74
0
 49
-6.3499999999999996
 74
0
  0
LTYPE
  5
4E
100
AcDbSymbolTableRecord
100
AcDbLinetypeTableRecord
  2
-K-
 70
0
  3
 Kanalitrass ------ K ------  -------
 72
65
 73
5
 40
26.0
 49
10.0
 74
0
 49
-1.5
 74
0
 49
-1.5
 74
0
 49
10.0
 74
0
 49
-3.0
 74
0
  0
LTYPE
  5
4F
100
AcDbSymbolTableRecord
100
AcDbLinetypeTableRecord
  2
ACAD_ISO08W100
 70
0
  3
ISO long-dash short-dash ____ __ ____ __ ____ _
 72
65
 73
4
 40
36.0
 49
24.0
 74
0
 49
-3.0
 74
0
 49
6.0
 74
0
 49
-3.0
 74
0
  0
LTYPE
  5
50
100
AcDbSymbolTableRecord
100
AcDbLinetypeTableRecord
  2
DASHEDX2
 70
0
  3
Dashed (2x) ____  ____  ____  ____  ____  ___
 72
65
 73
2
 40
38.0999999999999943
 49
25.3999999999999986
 74
0
 49
-12.6999999999999993
 74
0
  0
LTYPE
  5
51
100
AcDbSymbolTableRecord
100
AcDbLinetypeTableRecord
  2
DRAINAGE
 70
0
  3
Drainage ---->---->---->----
 72
65
 73
2
 40
10.1600000000000001
 49
5.0800000000000001
 74
0
 49
5.0800000000000001
 74
0
  0
LTYPE
  5
52
100
AcDbSymbolTableRecord
100
AcDbLinetypeTableRecord
  2
ACAD_ISO02W100
 70
0
  3
ISO dash __ __ __ __ __ __ __ __ __ __ __ __ __
 72
65
 73
2
 40
15.0
 49
12.0
 74
0
 49
-3.0
 74
0
  0
LTYPE
  5
53
100
AcDbSymbolTableRecord
100
AcDbLinetypeTableRecord
  2
PHANTOM2
 70
0
  3
Phantom (.5x) ___ _ _ ___ _ _ ___ _ _ ___ _ _
 72
65
 73
6
 40
31.7500000000000036
 49
15.875
 74
0
 49
-3.1749999999999998
 74
0
 49
3.1749999999999998
 74
0
 49
-3.1749999999999998
 74
0
 49
3.1749999999999998
 74
0
 49
-3.1749999999999998
 74
0
  0
LTYPE
  5
54
100
AcDbSymbolTableRecord
100
AcDbLinetypeTableRecord
  2
DASHED2
 70
0
  3
Dashed (.5x) _ _ _ _ _ _ _ _ _ _ _ _ _ _ _ _ _ 
 72
65
 73
2
 40
9.5249999999999986
 49
6.3499999999999996
 74
0
 49
-3.1749999999999998
 74
0
  0
LTYPE
  5
55
100
AcDbSymbolTableRecord
100
AcDbLinetypeTableRecord
  2
ACAD_ISO09W100
 70
0
  3
ISO long-dash double-short-dash ____ __ __ ____
 72
65
 73
6
 40
45.0
 49
24.0
 74
0
 49
-3.0
 74
0
 49
6.0
 74
0
 49
-3.0
 74
0
 49
6.0
 74
0
 49
-3.0
 74
0
  0
LTYPE
  5
56
100
AcDbSymbolTableRecord
100
AcDbLinetypeTableRecord
  2
ACAD_ISO13W100
 70
0
  3
ISO double-dash double-dot __ __ . . __ __ . . _
 72
65
 73
8
 40
36.0000000000000071
 49
12.0
 74
0
 49
-3.0
 74
0
 49
12.0
 74
0
 49
-2.9500000000000002
 74
0
 49
0.1
 74
0
 49
-2.9000000000000004
 74
0
 49
0.1
 74
0
 49
-2.9500000000000002
 74
0
  0
LTYPE
  5
57
100
AcDbSymbolTableRecord
100
AcDbLinetypeTableRecord
  2
KRUUSKILL
 70
0
  3
Tee \U+00e4\U+00e4r (kruus killustik) __ __ __ __
 72
65
 73
2
 40
2.0
 49
1.0
 74
0
 49
-1.0
 74
0
  0
LTYPE
  5
58
100
AcDbSymbolTableRecord
100
AcDbLinetypeTableRecord
  2
TRACKS
 70
0
  3
Tracks -|-|-|-|-|-|-|-|-|-|-|-|-|-|-|-|-|-|-|-|-|-|-|-|-
 72
65
 73
2
 40
7.6200000000000001
 49
3.8100000000000001
 74
0
 49
3.8100000000000001
 74
0
  0
LTYPE
  5
59
100
AcDbSymbolTableRecord
100
AcDbLinetypeTableRecord
  2
DRAINAGE2
 70
0
  3
Drainage reversed----<----<----<----
 72
65
 73
2
 40
10.1600000000000001
 49
5.0800000000000001
 74
0
 49
5.0800000000000001
 74
0
  0
LTYPE
  5
5A
100
AcDbSymbolTableRecord
100
AcDbLinetypeTableRecord
  2
DOT2
 70
0
  3
Dot (.5x) ........................................
 72
65
 73
2
 40
3.1749999999999998
 49
0.1
 74
0
 49
-3.0749999999999997
 74
0
  0
LTYPE
  5
5B
100
AcDbSymbolTableRecord
100
AcDbLinetypeTableRecord
  2
ZIGZAG
 70
0
  3
Zig zag /\/\/\/\/\/\/\/\/\/\/\/\/\/\/\/\/\/\/\/\/\/\/\/
 72
65
 73
4
 40
20.32254
 49
0.00254
 74
0
 49
-5.0800000000000001
 74
0
 49
-10.1600000000000001
 74
0
 49
-5.0800000000000001
 74
0
  0
LTYPE
  5
5C
100
AcDbSymbolTableRecord
100
AcDbLinetypeTableRecord
  2
TRUUP
 70
0
  3
 Truup __ __ __ __ __ __ __ __ __ __
 72
65
 73
2
 40
3.5
 49
2.5
 74
0
 49
-1.0
 74
0
  0
LTYPE
  5
5D
100
AcDbSymbolTableRecord
100
AcDbLinetypeTableRecord
  2
DASHED
 70
0
  3
Dashed __ __ __ __ __ __ __ __ __ __ __ __ __ _
 72
65
 73
2
 40
19.0499999999999972
 49
12.6999999999999993
 74
0
 49
-6.3499999999999996
 74
0
  0
LTYPE
  5
5E
100
AcDbSymbolTableRecord
100
AcDbLinetypeTableRecord
  2
ACAD_ISO14W100
 70
0
  3
ISO dash triple-dot __ . . . __ . . . __ . . . _
 72
65
 73
8
 40
24.0000000000000036
 49
12.0
 74
0
 49
-2.9500000000000002
 74
0
 49
0.1
 74
0
 49
-2.9000000000000004
 74
0
 49
0.1
 74
0
 49
-2.9000000000000004
 74
0
 49
0.1
 74
0
 49
-2.9500000000000002
 74
0
  0
LTYPE
  5
5F
100
AcDbSymbolTableRecord
100
AcDbLinetypeTableRecord
  2
-D-
 70
0
  3
 Drenaazitrass ------ D ------  -------
 72
65
 73
5
 40
26.0
 49
10.0
 74
0
 49
-1.5
 74
0
 49
-1.5
 74
0
 49
10.0
 74
0
 49
-3.0
 74
0
  0
LTYPE
  5
60
100
AcDbSymbolTableRecord
100
AcDbLinetypeTableRecord
  2
PHANTOMX2
 70
0
  3
Phantom (2x) ____________    ____    ____   _
 72
65
 73
6
 40
127.0000000000000142
 49
63.5
 74
0
 49
-12.6999999999999993
 74
0
 49
12.6999999999999993
 74
0
 49
-12.6999999999999993
 74
0
 49
12.6999999999999993
 74
0
 49
-12.6999999999999993
 74
0
  0
LTYPE
  5
61
100
AcDbSymbolTableRecord
100
AcDbLinetypeTableRecord
  2
DIVIDEX2
 70
0
  3
Divide (2x) ________  .  .  ________  .  .  _
 72
65
 73
6
 40
63.5
 49
25.3999999999999986
 74
0
 49
-12.6499999999999986
 74
0
 49
0.1
 74
0
 49
-12.5999999999999979
 74
0
 49
0.1
 74
0
 49
-12.6499999999999986
 74
0
  0
LTYPE
  5
62
100
AcDbSymbolTableRecord
100
AcDbLinetypeTableRecord
  2
BORDER
 70
0
  3
Border __ __ . __ __ . __ __ . __ __ . __ __ .
 72
65
 73
6
 40
44.4499999999999957
 49
12.6999999999999993
 74
0
 49
-6.3499999999999996
 74
0
 49
12.6999999999999993
 74
0
 49
-6.2999999999999998
 74
0
 49
0.1
 74
0
 49
-6.2999999999999998
 74
0
  0
LTYPE
  5
63
100
AcDbSymbolTableRecord
100
AcDbLinetypeTableRecord
  2
DIVIDE2
 70
0
  3
Divide (.5x) __..__..__..__..__..__..__..__.._
 72
65
 73
6
 40
15.8749999999999982
 49
6.3499999999999996
 74
0
 49
-3.125
 74
0
 49
0.1
 74
0
 49
-3.0750000000000002
 74
0
 49
0.1
 74
0
 49
-3.125
 74
0
  0
LTYPE
  5
64
100
AcDbSymbolTableRecord
100
AcDbLinetypeTableRecord
  2
DOT
 70
0
  3
Dot . . . . . . . . . . . . . . . . . . . . . . . .
 72
65
 73
2
 40
6.3499999999999996
 49
0.1
 74
0
 49
-6.25
 74
0
  0
LTYPE
  5
65
100
AcDbSymbolTableRecord
100
AcDbLinetypeTableRecord
  2
DASHDOT
 70
0
  3
Dash dot __ . __ . __ . __ . __ . __ . __ . __
 72
65
 73
4
 40
25.4000000000000021
 49
12.6999999999999993
 74
0
 49
-6.2999999999999998
 74
0
 49
0.1
 74
0
 49
-6.2999999999999998
 74
0
  0
LTYPE
  5
66
100
AcDbSymbolTableRecord
100
AcDbLinetypeTableRecord
  2
FENCELINE1
 70
0
  3
Fenceline circle ----0-----0----0-----0----0-----0--
 72
65
 73
4
 40
36.8299999999999983
 49
6.3499999999999996
 74
0
 49
-2.54
 74
0
 49
-2.54
 74
0
 49
25.3999999999999986
 74
0
  0
LTYPE
  5
67
100
AcDbSymbolTableRecord
100
AcDbLinetypeTableRecord
  2
BATTING
 70
0
  3
Batting SSSSSSSSSSSSSSSSSSSSSSSSSSSSSSSSSSSSSSSSSSSSSSS
 72
65
 73
4
 40
10.1625399999999999
 49
0.00254
 74
0
 49
-2.54
 74
0
 49
-5.0800000000000001
 74
0
 49
-2.54
 74
0
  0
LTYPE
  5
68
100
AcDbSymbolTableRecord
100
AcDbLinetypeTableRecord
  2
ACAD_ISO03W100
 70
0
  3
ISO dash space __    __    __    __    __    __
 72
65
 73
2
 40
30.0
 49
12.0
 74
0
 49
-18.0
 74
0
  0
LTYPE
  5
15
100
AcDbSymbolTableRecord
100
AcDbLinetypeTableRecord
  2
ByLayer
 70
0
  3

 72
65
 73
0
 40
0.0
  0
LTYPE
  5
69
100
AcDbSymbolTableRecord
100
AcDbLinetypeTableRecord
  2
FENCELINE2
 70
0
  3
Fenceline square ----[]-----[]----[]-----[]----[]---
 72
65
 73
4
 40
36.8299999999999983
 49
6.3499999999999996
 74
0
 49
-2.54
 74
0
 49
-2.54
 74
0
 49
25.3999999999999986
 74
0
  0
ENDTAB
  0
TABLE
  2
LAYER
  5
2
100
AcDbSymbolTable
 70
21
  0
LAYER
  5
6A
100
AcDbSymbolTableRecord
100
AcDbLayerTableRecord
  2
joonside
 70
0
 62
7
420
16777215
  6
Continuous
370
-3
390
F
  0
LAYER
  5
6B
100
AcDbSymbolTableRecord
100
AcDbLayerTableRecord
  2
VORMISTUS
 70
0
 62
7
420
16777215
  6
Continuous
370
-3
390
F
  0
LAYER
  5
6C
100
AcDbSymbolTableRecord
100
AcDbLayerTableRecord
  2
PIIR
 70
0
 62
32
420
13395456
  6
Continuous
370
-3
390
F
  0
LAYER
  5
6D
100
AcDbSymbolTableRecord
100
AcDbLayerTableRecord
  2
TRUUP
 70
0
 62
6
420
16711935
  6
Continuous
370
-3
390
F
  0
LAYER
  5
6E
100
AcDbSymbolTableRecord
100
AcDbLayerTableRecord
  2
vork
 70
0
 62
13
420
10046540
  6
Continuous
370
-3
390
F
  0
LAYER
  5
6F
100
AcDbSymbolTableRecord
100
AcDbLayerTableRecord
  2
DKAEV
 70
0
 62
3
420
65280
  6
Continuous
370
13
390
F
  0
LAYER
  5
10
100
AcDbSymbolTableRecord
100
AcDbLayerTableRecord
  2
0
 70
0
 62
7
420
16777215
  6
Continuous
370
-3
390
F
  0
LAYER
  5
70
100
AcDbSymbolTableRecord
100
AcDbLayerTableRecord
  2
mootnr
 70
1
 62
-2
420
16776960
  6
Continuous
370
-3
390
F
  0
LAYER
  5
71
100
AcDbSymbolTableRecord
100
AcDbLayerTableRecord
  2
ALUSVORK
 70
1
 62
-1
420
16711680
  6
Continuous
370
-3
390
F
  0
LAYER
  5
72
100
AcDbSymbolTableRecord
100
AcDbLayerTableRecord
  2
VKAEV
 70
0
 62
7
420
16777215
  6
Continuous
370
13
390
F
  0
LAYER
  5
73
100
AcDbSymbolTableRecord
100
AcDbLayerTableRecord
  2
DTRASS
 70
0
 62
3
420
65280
  6
Continuous
370
13
390
F
  0
LAYER
  5
74
100
AcDbSymbolTableRecord
100
AcDbLayerTableRecord
  2
ABIJOONIS
 70
0
 62
7
420
16777215
  6
Continuous
370
0
390
F
  0
LAYER
  5
75
100
AcDbSymbolTableRecord
100
AcDbLayerTableRecord
  2
mootkorg
 70
1
 62
-7
420
16777215
  6
Continuous
370
-3
390
F
  0
LAYER
  5
76
100
AcDbSymbolTableRecord
100
AcDbLayerTableRecord
  2
VTRASS
 70
0
 62
5
420
255
  6
Continuous
370
13
390
F
  0
LAYER
  5
77
100
AcDbSymbolTableRecord
100
AcDbLayerTableRecord
  2
VEEKOGU
 70
0
 62
5
420
255
  6
Continuous
370
-3
390
F
  0
LAYER
  5
78
100
AcDbSymbolTableRecord
100
AcDbLayerTableRecord
  2
Level 1
 70
1
 62
-7
420
16777215
  6
Continuous
370
0
390
F
  0
LAYER
  5
79
100
AcDbSymbolTableRecord
100
AcDbLayerTableRecord
  2
DEFPOINTS
 70
0
 62
7
420
16777215
  6
Continuous
290
0
370
13
390
F
  0
LAYER
  5
7A
100
AcDbSymbolTableRecord
100
AcDbLayerTableRecord
  2
KTRASS
 70
0
 62
1
420
16711680
  6
Continuous
370
-3
390
F
  0
LAYER
  5
7B
100
AcDbSymbolTableRecord
100
AcDbLayerTableRecord
  2
KKAEV
 70
0
 62
7
420
16777215
  6
Continuous
370
-3
390
F
  0
LAYER
  5
7C
100
AcDbSymbolTableRecord
100
AcDbLayerTableRecord
  2
TEE
 70
0
 62
132
420
52377
  6
Continuous
370
-3
390
F
  0
LAYER
  5
7D
100
AcDbSymbolTableRecord
100
AcDbLayerTableRecord
  2
mootmpunkt
 70
1
 62
-3
420
65280
  6
Continuous
370
-3
390
F
  0
ENDTAB
  0
TABLE
  2
STYLE
  5
3
100
AcDbSymbolTable
 70
128
  0
STYLE
  5
7E
100
AcDbSymbolTableRecord
100
AcDbTextStyleTableRecord
  2
Standard
 70
0
 40
0.0
 41
1.0
 50
0.0
 71
0
 42
2.5
  3

  4

1001
ACAD
1000
txt
1071
0
  0
STYLE
  5
7F
100
AcDbSymbolTableRecord
100
AcDbTextStyleTableRecord
  2
textstyle0
 70
0
 40
0.0
 41
1.0
 50
0.0
 71
0
 42
0.7
  3

  4

1001
ACAD
1000
standard
1071
0
  0
STYLE
  5
80
100
AcDbSymbolTableRecord
100
AcDbTextStyleTableRecord
  2
textstyle1
 70
0
 40
0.0
 41
1.0
 50
0.0
 71
0
 42
1.2
  3

  4

1001
ACAD
1000
romanc
1071
0
  0
STYLE
  5
81
100
AcDbSymbolTableRecord
100
AcDbTextStyleTableRecord
  2
textstyle2
 70
0
 40
0.0
 41
1.0
 50
0.0
 71
0
 42
0.9
  3

  4

1001
ACAD
1000
romanc
1071
0
  0
STYLE
  5
82
100
AcDbSymbolTableRecord
100
AcDbTextStyleTableRecord
  2
textstyle3
 70
0
 40
0.0
 41
1.0
 50
0.0
 71
0
 42
0.9
  3

  4

1001
ACAD
1000
romanc
1071
0
  0
STYLE
  5
83
100
AcDbSymbolTableRecord
100
AcDbTextStyleTableRecord
  2
textstyle4
 70
0
 40
0.0
 41
1.0
 50
0.0
 71
0
 42
0.9
  3

  4

1001
ACAD
1000
romans
1071
0
  0
STYLE
  5
84
100
AcDbSymbolTableRecord
100
AcDbTextStyleTableRecord
  2
textstyle5
 70
0
 40
0.0
 41
1.0
 50
0.0
 71
0
 42
0.9
  3

  4

1001
ACAD
1000
romans
1071
0
  0
STYLE
  5
85
100
AcDbSymbolTableRecord
100
AcDbTextStyleTableRecord
  2
textstyle6
 70
0
 40
0.0
 41
1.0
 50
0.0
 71
0
 42
0.7
  3

  4

1001
ACAD
1000
standard
1071
0
  0
STYLE
  5
86
100
AcDbSymbolTableRecord
100
AcDbTextStyleTableRecord
  2
textstyle7
 70
0
 40
0.0
 41
1.0
 50
0.0
 71
0
 42
0.7
  3

  4

1001
ACAD
1000
standard
1071
0
  0
STYLE
  5
87
100
AcDbSymbolTableRecord
100
AcDbTextStyleTableRecord
  2
textstyle8
 70
0
 40
0.0
 41
1.0
 50
0.0
 71
0
 42
1.2
  3

  4

1001
ACAD
1000
romans
1071
0
  0
STYLE
  5
88
100
AcDbSymbolTableRecord
100
AcDbTextStyleTableRecord
  2
textstyle9
 70
0
 40
0.0
 41
1.0
 50
0.0
 71
0
 42
1.2
  3

  4

1001
ACAD
1000
romans
1071
0
  0
STYLE
  5
89
100
AcDbSymbolTableRecord
100
AcDbTextStyleTableRecord
  2
textstyle10
 70
0
 40
0.0
 41
1.0
 50
0.0
 71
0
 42
1.2
  3

  4

1001
ACAD
1000
romans
1071
0
  0
STYLE
  5
8A
100
AcDbSymbolTableRecord
100
AcDbTextStyleTableRecord
  2
textstyle11
 70
0
 40
0.0
 41
1.0
 50
0.0
 71
0
 42
1.2
  3

  4

1001
ACAD
1000
romans
1071
0
  0
STYLE
  5
8B
100
AcDbSymbolTableRecord
100
AcDbTextStyleTableRecord
  2
textstyle12
 70
0
 40
0.0
 41
1.0
 50
0.0
 71
0
 42
2.5
  3

  4

1001
ACAD
1000
romand
1071
0
  0
STYLE
  5
8C
100
AcDbSymbolTableRecord
100
AcDbTextStyleTableRecord
  2
textstyle13
 70
0
 40
0.0
 41
1.0
 50
0.0
 71
0
 42
2.5
  3

  4

1001
ACAD
1000
romand
1071
0
  0
STYLE
  5
8D
100
AcDbSymbolTableRecord
100
AcDbTextStyleTableRecord
  2
textstyle14
 70
0
 40
0.0
 41
1.0
 50
0.0
 71
0
 42
2.5
  3

  4

1001
ACAD
1000
romand
1071
0
  0
STYLE
  5
8E
100
AcDbSymbolTableRecord
100
AcDbTextStyleTableRecord
  2
textstyle15
 70
0
 40
0.0
 41
1.0
 50
0.0
 71
0
 42
2.5
  3

  4

1001
ACAD
1000
romand
1071
0
  0
STYLE
  5
8F
100
AcDbSymbolTableRecord
100
AcDbTextStyleTableRecord
  2
textstyle16
 70
0
 40
0.0
 41
1.0
 50
0.0
 71
0
 42
0.9
  3

  4

1001
ACAD
1000
romans
1071
0
  0
STYLE
  5
90
100
AcDbSymbolTableRecord
100
AcDbTextStyleTableRecord
  2
textstyle17
 70
0
 40
0.0
 41
1.0
 50
0.0
 71
0
 42
0.9
  3

  4

1001
ACAD
1000
romans
1071
0
  0
STYLE
  5
91
100
AcDbSymbolTableRecord
100
AcDbTextStyleTableRecord
  2
textstyle18
 70
0
 40
0.0
 41
1.0
 50
0.0
 71
0
 42
0.9
  3

  4

1001
ACAD
1000
romans
1071
0
  0
STYLE
  5
92
100
AcDbSymbolTableRecord
100
AcDbTextStyleTableRecord
  2
textstyle19
 70
0
 40
0.0
 41
1.0
 50
0.0
 71
0
 42
0.9
  3

  4

1001
ACAD
1000
romans
1071
0
  0
STYLE
  5
93
100
AcDbSymbolTableRecord
100
AcDbTextStyleTableRecord
  2
textstyle20
 70
0
 40
0.0
 41
1.0
 50
0.0
 71
0
 42
0.9
  3

  4

1001
ACAD
1000
romans
1071
0
  0
STYLE
  5
94
100
AcDbSymbolTableRecord
100
AcDbTextStyleTableRecord
  2
textstyle21
 70
0
 40
0.0
 41
1.0
 50
0.0
 71
0
 42
0.9
  3

  4

1001
ACAD
1000
romans
1071
0
  0
STYLE
  5
95
100
AcDbSymbolTableRecord
100
AcDbTextStyleTableRecord
  2
textstyle22
 70
0
 40
0.0
 41
1.0
 50
0.0
 71
0
 42
0.9
  3

  4

1001
ACAD
1000
romans
1071
0
  0
STYLE
  5
96
100
AcDbSymbolTableRecord
100
AcDbTextStyleTableRecord
  2
textstyle23
 70
0
 40
0.0
 41
1.0
 50
0.0
 71
0
 42
0.9
  3

  4

1001
ACAD
1000
romans
1071
0
  0
STYLE
  5
97
100
AcDbSymbolTableRecord
100
AcDbTextStyleTableRecord
  2
textstyle24
 70
0
 40
0.0
 41
1.0
 50
0.0
 71
0
 42
0.9
  3

  4

1001
ACAD
1000
romans
1071
0
  0
STYLE
  5
98
100
AcDbSymbolTableRecord
100
AcDbTextStyleTableRecord
  2
textstyle25
 70
0
 40
0.0
 41
1.0
 50
0.0
 71
0
 42
0.9
  3

  4

1001
ACAD
1000
romans
1071
0
  0
STYLE
  5
99
100
AcDbSymbolTableRecord
100
AcDbTextStyleTableRecord
  2
textstyle26
 70
0
 40
0.0
 41
1.0
 50
0.0
 71
0
 42
0.9
  3

  4

1001
ACAD
1000
romans
1071
0
  0
STYLE
  5
9A
100
AcDbSymbolTableRecord
100
AcDbTextStyleTableRecord
  2
textstyle27
 70
0
 40
0.0
 41
1.0
 50
0.0
 71
0
 42
0.9
  3

  4

1001
ACAD
1000
romans
1071
0
  0
STYLE
  5
9B
100
AcDbSymbolTableRecord
100
AcDbTextStyleTableRecord
  2
textstyle28
 70
0
 40
0.0
 41
1.0
 50
0.0
 71
0
 42
0.9
  3

  4

1001
ACAD
1000
romans
1071
0
  0
STYLE
  5
9C
100
AcDbSymbolTableRecord
100
AcDbTextStyleTableRecord
  2
textstyle29
 70
0
 40
0.0
 41
1.0
 50
0.0
 71
0
 42
0.9
  3

  4

1001
ACAD
1000
romans
1071
0
  0
STYLE
  5
9D
100
AcDbSymbolTableRecord
100
AcDbTextStyleTableRecord
  2
textstyle30
 70
0
 40
0.0
 41
1.0
 50
0.0
 71
0
 42
0.9
  3

  4

1001
ACAD
1000
romans
1071
0
  0
STYLE
  5
9E
100
AcDbSymbolTableRecord
100
AcDbTextStyleTableRecord
  2
textstyle31
 70
0
 40
0.0
 41
1.0
 50
0.0
 71
0
 42
0.9
  3

  4

1001
ACAD
1000
romans
1071
0
  0
STYLE
  5
9F
100
AcDbSymbolTableRecord
100
AcDbTextStyleTableRecord
  2
textstyle32
 70
0
 40
0.0
 41
1.0
 50
0.0
 71
0
 42
0.9
  3

  4

1001
ACAD
1000
romans
1071
0
  0
STYLE
  5
A0
100
AcDbSymbolTableRecord
100
AcDbTextStyleTableRecord
  2
textstyle33
 70
0
 40
0.0
 41
1.0
 50
0.0
 71
0
 42
0.9
  3

  4

1001
ACAD
1000
romans
1071
0
  0
STYLE
  5
A1
100
AcDbSymbolTableRecord
100
AcDbTextStyleTableRecord
  2
textstyle34
 70
0
 40
0.0
 41
1.0
 50
0.0
 71
0
 42
0.02
  3

  4

1001
ACAD
1000
standard
1071
0
  0
STYLE
  5
A2
100
AcDbSymbolTableRecord
100
AcDbTextStyleTableRecord
  2
textstyle35
 70
0
 40
0.0
 41
1.0
 50
0.0
 71
0
 42
0.02
  3

  4

1001
ACAD
1000
standard
1071
0
  0
STYLE
  5
A3
100
AcDbSymbolTableRecord
100
AcDbTextStyleTableRecord
  2
textstyle36
 70
0
 40
0.0
 41
1.0
 50
0.0
 71
0
 42
0.02
  3

  4

1001
ACAD
1000
standard
1071
0
  0
STYLE
  5
A4
100
AcDbSymbolTableRecord
100
AcDbTextStyleTableRecord
  2
textstyle37
 70
0
 40
0.0
 41
1.0
 50
0.0
 71
0
 42
0.02
  3

  4

1001
ACAD
1000
standard
1071
0
  0
STYLE
  5
A5
100
AcDbSymbolTableRecord
100
AcDbTextStyleTableRecord
  2
textstyle38
 70
0
 40
0.0
 41
1.0
 50
0.0
 71
0
 42
0.02
  3

  4

1001
ACAD
1000
standard
1071
0
  0
STYLE
  5
A6
100
AcDbSymbolTableRecord
100
AcDbTextStyleTableRecord
  2
textstyle39
 70
0
 40
0.0
 41
1.0
 50
0.0
 71
0
 42
0.02
  3

  4

1001
ACAD
1000
standard
1071
0
  0
STYLE
  5
A7
100
AcDbSymbolTableRecord
100
AcDbTextStyleTableRecord
  2
textstyle40
 70
0
 40
0.0
 41
1.0
 50
0.0
 71
0
 42
0.02
  3

  4

1001
ACAD
1000
standard
1071
0
  0
STYLE
  5
A8
100
AcDbSymbolTableRecord
100
AcDbTextStyleTableRecord
  2
textstyle41
 70
0
 40
0.0
 41
1.0
 50
0.0
 71
0
 42
0.02
  3

  4

1001
ACAD
1000
standard
1071
0
  0
STYLE
  5
A9
100
AcDbSymbolTableRecord
100
AcDbTextStyleTableRecord
  2
textstyle42
 70
0
 40
0.0
 41
1.0
 50
0.0
 71
0
 42
0.02
  3

  4

1001
ACAD
1000
standard
1071
0
  0
STYLE
  5
AA
100
AcDbSymbolTableRecord
100
AcDbTextStyleTableRecord
  2
textstyle43
 70
0
 40
0.0
 41
1.0
 50
0.0
 71
0
 42
0.02
  3

  4

1001
ACAD
1000
standard
1071
0
  0
STYLE
  5
AB
100
AcDbSymbolTableRecord
100
AcDbTextStyleTableRecord
  2
textstyle44
 70
0
 40
0.0
 41
1.0
 50
0.0
 71
0
 42
0.02
  3

  4

1001
ACAD
1000
standard
1071
0
  0
STYLE
  5
AC
100
AcDbSymbolTableRecord
100
AcDbTextStyleTableRecord
  2
textstyle45
 70
0
 40
0.0
 41
1.0
 50
0.0
 71
0
 42
0.02
  3

  4

1001
ACAD
1000
standard
1071
0
  0
STYLE
  5
AD
100
AcDbSymbolTableRecord
100
AcDbTextStyleTableRecord
  2
textstyle46
 70
0
 40
0.0
 41
1.0
 50
0.0
 71
0
 42
0.02
  3

  4

1001
ACAD
1000
standard
1071
0
  0
STYLE
  5
AE
100
AcDbSymbolTableRecord
100
AcDbTextStyleTableRecord
  2
textstyle47
 70
0
 40
0.0
 41
1.0
 50
0.0
 71
0
 42
0.02
  3

  4

1001
ACAD
1000
standard
1071
0
  0
STYLE
  5
AF
100
AcDbSymbolTableRecord
100
AcDbTextStyleTableRecord
  2
textstyle48
 70
0
 40
0.0
 41
1.0
 50
0.0
 71
0
 42
0.02
  3

  4

1001
ACAD
1000
standard
1071
0
  0
STYLE
  5
B0
100
AcDbSymbolTableRecord
100
AcDbTextStyleTableRecord
  2
textstyle49
 70
0
 40
0.0
 41
1.0
 50
0.0
 71
0
 42
0.02
  3

  4

1001
ACAD
1000
standard
1071
0
  0
STYLE
  5
B1
100
AcDbSymbolTableRecord
100
AcDbTextStyleTableRecord
  2
textstyle50
 70
0
 40
0.0
 41
1.0
 50
0.0
 71
0
 42
0.02
  3

  4

1001
ACAD
1000
standard
1071
0
  0
STYLE
  5
B2
100
AcDbSymbolTableRecord
100
AcDbTextStyleTableRecord
  2
textstyle51
 70
0
 40
0.0
 41
1.0
 50
0.0
 71
0
 42
0.02
  3

  4

1001
ACAD
1000
standard
1071
0
  0
STYLE
  5
B3
100
AcDbSymbolTableRecord
100
AcDbTextStyleTableRecord
  2
textstyle52
 70
0
 40
0.0
 41
1.0
 50
0.0
 71
0
 42
0.02
  3

  4

1001
ACAD
1000
standard
1071
0
  0
STYLE
  5
B4
100
AcDbSymbolTableRecord
100
AcDbTextStyleTableRecord
  2
textstyle53
 70
0
 40
0.0
 41
1.0
 50
0.0
 71
0
 42
0.02
  3

  4

1001
ACAD
1000
standard
1071
0
  0
STYLE
  5
B5
100
AcDbSymbolTableRecord
100
AcDbTextStyleTableRecord
  2
textstyle54
 70
0
 40
0.0
 41
1.0
 50
0.0
 71
0
 42
0.02
  3

  4

1001
ACAD
1000
standard
1071
0
  0
STYLE
  5
B6
100
AcDbSymbolTableRecord
100
AcDbTextStyleTableRecord
  2
textstyle55
 70
0
 40
0.0
 41
1.0
 50
0.0
 71
0
 42
0.02
  3

  4

1001
ACAD
1000
standard
1071
0
  0
STYLE
  5
B7
100
AcDbSymbolTableRecord
100
AcDbTextStyleTableRecord
  2
textstyle56
 70
0
 40
0.0
 41
1.0
 50
0.0
 71
0
 42
0.02
  3

  4

1001
ACAD
1000
standard
1071
0
  0
STYLE
  5
B8
100
AcDbSymbolTableRecord
100
AcDbTextStyleTableRecord
  2
textstyle57
 70
0
 40
0.0
 41
1.0
 50
0.0
 71
0
 42
0.02
  3

  4

1001
ACAD
1000
standard
1071
0
  0
STYLE
  5
B9
100
AcDbSymbolTableRecord
100
AcDbTextStyleTableRecord
  2
textstyle58
 70
0
 40
0.0
 41
1.0
 50
0.0
 71
0
 42
0.02
  3

  4

1001
ACAD
1000
standard
1071
0
  0
STYLE
  5
BA
100
AcDbSymbolTableRecord
100
AcDbTextStyleTableRecord
  2
textstyle59
 70
0
 40
0.0
 41
1.0
 50
0.0
 71
0
 42
0.02
  3

  4

1001
ACAD
1000
standard
1071
0
  0
STYLE
  5
BB
100
AcDbSymbolTableRecord
100
AcDbTextStyleTableRecord
  2
textstyle60
 70
0
 40
0.0
 41
1.0
 50
0.0
 71
0
 42
0.02
  3

  4

1001
ACAD
1000
standard
1071
0
  0
STYLE
  5
BC
100
AcDbSymbolTableRecord
100
AcDbTextStyleTableRecord
  2
textstyle61
 70
0
 40
0.0
 41
1.0
 50
0.0
 71
0
 42
0.02
  3

  4

1001
ACAD
1000
standard
1071
0
  0
STYLE
  5
BD
100
AcDbSymbolTableRecord
100
AcDbTextStyleTableRecord
  2
textstyle62
 70
0
 40
0.0
 41
1.0
 50
0.0
 71
0
 42
0.02
  3

  4

1001
ACAD
1000
standard
1071
0
  0
STYLE
  5
BE
100
AcDbSymbolTableRecord
100
AcDbTextStyleTableRecord
  2
textstyle63
 70
0
 40
0.0
 41
1.0
 50
0.0
 71
0
 42
0.02
  3

  4

1001
ACAD
1000
standard
1071
0
  0
STYLE
  5
BF
100
AcDbSymbolTableRecord
100
AcDbTextStyleTableRecord
  2
textstyle64
 70
0
 40
0.0
 41
1.0
 50
0.0
 71
0
 42
0.02
  3

  4

1001
ACAD
1000
standard
1071
0
  0
STYLE
  5
C0
100
AcDbSymbolTableRecord
100
AcDbTextStyleTableRecord
  2
textstyle65
 70
0
 40
0.0
 41
1.0
 50
0.0
 71
0
 42
0.02
  3

  4

1001
ACAD
1000
standard
1071
0
  0
STYLE
  5
C1
100
AcDbSymbolTableRecord
100
AcDbTextStyleTableRecord
  2
textstyle66
 70
0
 40
0.0
 41
1.0
 50
0.0
 71
0
 42
0.02
  3

  4

1001
ACAD
1000
standard
1071
0
  0
STYLE
  5
C2
100
AcDbSymbolTableRecord
100
AcDbTextStyleTableRecord
  2
textstyle67
 70
0
 40
0.0
 41
1.0
 50
0.0
 71
0
 42
0.02
  3

  4

1001
ACAD
1000
standard
1071
0
  0
STYLE
  5
C3
100
AcDbSymbolTableRecord
100
AcDbTextStyleTableRecord
  2
textstyle68
 70
0
 40
0.0
 41
1.0
 50
0.0
 71
0
 42
0.02
  3

  4

1001
ACAD
1000
standard
1071
0
  0
STYLE
  5
C4
100
AcDbSymbolTableRecord
100
AcDbTextStyleTableRecord
  2
textstyle69
 70
0
 40
0.0
 41
1.0
 50
0.0
 71
0
 42
0.02
  3

  4

1001
ACAD
1000
standard
1071
0
  0
STYLE
  5
C5
100
AcDbSymbolTableRecord
100
AcDbTextStyleTableRecord
  2
textstyle70
 70
0
 40
0.0
 41
1.0
 50
0.0
 71
0
 42
0.02
  3

  4

1001
ACAD
1000
standard
1071
0
  0
STYLE
  5
C6
100
AcDbSymbolTableRecord
100
AcDbTextStyleTableRecord
  2
textstyle71
 70
0
 40
0.0
 41
1.0
 50
0.0
 71
0
 42
0.02
  3

  4

1001
ACAD
1000
standard
1071
0
  0
STYLE
  5
C7
100
AcDbSymbolTableRecord
100
AcDbTextStyleTableRecord
  2
textstyle72
 70
0
 40
0.0
 41
1.0
 50
0.0
 71
0
 42
0.02
  3

  4

1001
ACAD
1000
standard
1071
0
  0
STYLE
  5
C8
100
AcDbSymbolTableRecord
100
AcDbTextStyleTableRecord
  2
textstyle73
 70
0
 40
0.0
 41
1.0
 50
0.0
 71
0
 42
0.02
  3

  4

1001
ACAD
1000
standard
1071
0
  0
STYLE
  5
C9
100
AcDbSymbolTableRecord
100
AcDbTextStyleTableRecord
  2
textstyle74
 70
0
 40
0.0
 41
1.0
 50
0.0
 71
0
 42
0.02
  3

  4

1001
ACAD
1000
standard
1071
0
  0
STYLE
  5
CA
100
AcDbSymbolTableRecord
100
AcDbTextStyleTableRecord
  2
textstyle75
 70
0
 40
0.0
 41
1.0
 50
0.0
 71
0
 42
0.02
  3

  4

1001
ACAD
1000
standard
1071
0
  0
STYLE
  5
CB
100
AcDbSymbolTableRecord
100
AcDbTextStyleTableRecord
  2
textstyle76
 70
0
 40
0.0
 41
1.0
 50
0.0
 71
0
 42
0.02
  3

  4

1001
ACAD
1000
standard
1071
0
  0
STYLE
  5
CC
100
AcDbSymbolTableRecord
100
AcDbTextStyleTableRecord
  2
textstyle77
 70
0
 40
0.0
 41
1.0
 50
0.0
 71
0
 42
0.02
  3

  4

1001
ACAD
1000
standard
1071
0
  0
STYLE
  5
CD
100
AcDbSymbolTableRecord
100
AcDbTextStyleTableRecord
  2
textstyle78
 70
0
 40
0.0
 41
1.0
 50
0.0
 71
0
 42
0.02
  3

  4

1001
ACAD
1000
standard
1071
0
  0
STYLE
  5
CE
100
AcDbSymbolTableRecord
100
AcDbTextStyleTableRecord
  2
textstyle79
 70
0
 40
0.0
 41
1.0
 50
0.0
 71
0
 42
0.02
  3

  4

1001
ACAD
1000
standard
1071
0
  0
STYLE
  5
CF
100
AcDbSymbolTableRecord
100
AcDbTextStyleTableRecord
  2
textstyle80
 70
0
 40
0.0
 41
1.0
 50
0.0
 71
0
 42
0.02
  3

  4

1001
ACAD
1000
standard
1071
0
  0
STYLE
  5
D0
100
AcDbSymbolTableRecord
100
AcDbTextStyleTableRecord
  2
textstyle81
 70
0
 40
0.0
 41
1.0
 50
0.0
 71
0
 42
0.02
  3

  4

1001
ACAD
1000
standard
1071
0
  0
STYLE
  5
D1
100
AcDbSymbolTableRecord
100
AcDbTextStyleTableRecord
  2
textstyle82
 70
0
 40
0.0
 41
1.0
 50
0.0
 71
0
 42
0.02
  3

  4

1001
ACAD
1000
standard
1071
0
  0
STYLE
  5
D2
100
AcDbSymbolTableRecord
100
AcDbTextStyleTableRecord
  2
textstyle83
 70
0
 40
0.0
 41
1.0
 50
0.0
 71
0
 42
0.02
  3

  4

1001
ACAD
1000
standard
1071
0
  0
STYLE
  5
D3
100
AcDbSymbolTableRecord
100
AcDbTextStyleTableRecord
  2
textstyle84
 70
0
 40
0.0
 41
1.0
 50
0.0
 71
0
 42
0.02
  3

  4

1001
ACAD
1000
standard
1071
0
  0
STYLE
  5
D4
100
AcDbSymbolTableRecord
100
AcDbTextStyleTableRecord
  2
textstyle85
 70
0
 40
0.0
 41
1.0
 50
0.0
 71
0
 42
0.02
  3

  4

1001
ACAD
1000
standard
1071
0
  0
STYLE
  5
D5
100
AcDbSymbolTableRecord
100
AcDbTextStyleTableRecord
  2
textstyle86
 70
0
 40
0.0
 41
1.0
 50
0.0
 71
0
 42
0.02
  3

  4

1001
ACAD
1000
standard
1071
0
  0
STYLE
  5
D6
100
AcDbSymbolTableRecord
100
AcDbTextStyleTableRecord
  2
textstyle87
 70
0
 40
0.0
 41
1.0
 50
0.0
 71
0
 42
0.02
  3

  4

1001
ACAD
1000
standard
1071
0
  0
STYLE
  5
D7
100
AcDbSymbolTableRecord
100
AcDbTextStyleTableRecord
  2
textstyle88
 70
0
 40
0.0
 41
1.0
 50
0.0
 71
0
 42
0.02
  3

  4

1001
ACAD
1000
standard
1071
0
  0
STYLE
  5
D8
100
AcDbSymbolTableRecord
100
AcDbTextStyleTableRecord
  2
textstyle89
 70
0
 40
0.0
 41
1.0
 50
0.0
 71
0
 42
0.02
  3

  4

1001
ACAD
1000
standard
1071
0
  0
STYLE
  5
D9
100
AcDbSymbolTableRecord
100
AcDbTextStyleTableRecord
  2
textstyle90
 70
0
 40
0.0
 41
1.0
 50
0.0
 71
0
 42
0.02
  3

  4

1001
ACAD
1000
standard
1071
0
  0
STYLE
  5
DA
100
AcDbSymbolTableRecord
100
AcDbTextStyleTableRecord
  2
textstyle91
 70
0
 40
0.0
 41
1.0
 50
0.0
 71
0
 42
0.02
  3

  4

1001
ACAD
1000
standard
1071
0
  0
STYLE
  5
DB
100
AcDbSymbolTableRecord
100
AcDbTextStyleTableRecord
  2
textstyle92
 70
0
 40
0.0
 41
1.0
 50
0.0
 71
0
 42
0.02
  3

  4

1001
ACAD
1000
standard
1071
0
  0
STYLE
  5
DC
100
AcDbSymbolTableRecord
100
AcDbTextStyleTableRecord
  2
textstyle93
 70
0
 40
0.0
 41
1.0
 50
0.0
 71
0
 42
0.02
  3

  4

1001
ACAD
1000
standard
1071
0
  0
STYLE
  5
DD
100
AcDbSymbolTableRecord
100
AcDbTextStyleTableRecord
  2
textstyle94
 70
0
 40
0.0
 41
1.0
 50
0.0
 71
0
 42
0.01
  3

  4

1001
ACAD
1000
standard
1071
0
  0
STYLE
  5
DE
100
AcDbSymbolTableRecord
100
AcDbTextStyleTableRecord
  2
textstyle95
 70
0
 40
0.0
 41
1.0
 50
0.0
 71
0
 42
0.02
  3

  4

1001
ACAD
1000
standard
1071
0
  0
STYLE
  5
DF
100
AcDbSymbolTableRecord
100
AcDbTextStyleTableRecord
  2
textstyle96
 70
0
 40
0.0
 41
1.0
 50
0.0
 71
0
 42
0.01
  3

  4

1001
ACAD
1000
standard
1071
0
  0
STYLE
  5
E0
100
AcDbSymbolTableRecord
100
AcDbTextStyleTableRecord
  2
textstyle97
 70
0
 40
0.0
 41
1.0
 50
0.0
 71
0
 42
0.02
  3

  4

1001
ACAD
1000
standard
1071
0
  0
STYLE
  5
E1
100
AcDbSymbolTableRecord
100
AcDbTextStyleTableRecord
  2
textstyle98
 70
0
 40
0.0
 41
1.0
 50
0.0
 71
0
 42
0.01
  3

  4

1001
ACAD
1000
standard
1071
0
  0
STYLE
  5
E2
100
AcDbSymbolTableRecord
100
AcDbTextStyleTableRecord
  2
textstyle99
 70
0
 40
0.0
 41
1.0
 50
0.0
 71
0
 42
0.02
  3

  4

1001
ACAD
1000
standard
1071
0
  0
STYLE
  5
E3
100
AcDbSymbolTableRecord
100
AcDbTextStyleTableRecord
  2
textstyle100
 70
0
 40
0.0
 41
1.0
 50
0.0
 71
0
 42
0.01
  3

  4

1001
ACAD
1000
standard
1071
0
  0
STYLE
  5
E4
100
AcDbSymbolTableRecord
100
AcDbTextStyleTableRecord
  2
textstyle101
 70
0
 40
0.0
 41
1.0
 50
0.0
 71
0
 42
0.02
  3

  4

1001
ACAD
1000
standard
1071
0
  0
STYLE
  5
E5
100
AcDbSymbolTableRecord
100
AcDbTextStyleTableRecord
  2
textstyle102
 70
0
 40
0.0
 41
1.0
 50
0.0
 71
0
 42
0.02
  3

  4

1001
ACAD
1000
standard
1071
0
  0
STYLE
  5
E6
100
AcDbSymbolTableRecord
100
AcDbTextStyleTableRecord
  2
textstyle103
 70
0
 40
0.0
 41
1.0
 50
0.0
 71
0
 42
0.02
  3

  4

1001
ACAD
1000
standard
1071
0
  0
STYLE
  5
E7
100
AcDbSymbolTableRecord
100
AcDbTextStyleTableRecord
  2
textstyle104
 70
0
 40
0.0
 41
1.0
 50
0.0
 71
0
 42
0.02
  3

  4

1001
ACAD
1000
standard
1071
0
  0
STYLE
  5
E8
100
AcDbSymbolTableRecord
100
AcDbTextStyleTableRecord
  2
textstyle105
 70
0
 40
0.0
 41
1.0
 50
0.0
 71
0
 42
0.02
  3

  4

1001
ACAD
1000
standard
1071
0
  0
STYLE
  5
E9
100
AcDbSymbolTableRecord
100
AcDbTextStyleTableRecord
  2
textstyle106
 70
0
 40
0.0
 41
1.0
 50
0.0
 71
0
 42
0.02
  3

  4

1001
ACAD
1000
standard
1071
0
  0
STYLE
  5
EA
100
AcDbSymbolTableRecord
100
AcDbTextStyleTableRecord
  2
textstyle107
 70
0
 40
0.0
 41
1.0
 50
0.0
 71
0
 42
0.02
  3

  4

1001
ACAD
1000
standard
1071
0
  0
STYLE
  5
EB
100
AcDbSymbolTableRecord
100
AcDbTextStyleTableRecord
  2
textstyle108
 70
0
 40
0.0
 41
1.0
 50
0.0
 71
0
 42
0.02
  3

  4

1001
ACAD
1000
standard
1071
0
  0
STYLE
  5
EC
100
AcDbSymbolTableRecord
100
AcDbTextStyleTableRecord
  2
textstyle109
 70
0
 40
0.0
 41
1.0
 50
0.0
 71
0
 42
0.02
  3

  4

1001
ACAD
1000
standard
1071
0
  0
STYLE
  5
ED
100
AcDbSymbolTableRecord
100
AcDbTextStyleTableRecord
  2
textstyle110
 70
0
 40
0.0
 41
1.0
 50
0.0
 71
0
 42
0.02
  3

  4

1001
ACAD
1000
standard
1071
0
  0
STYLE
  5
EE
100
AcDbSymbolTableRecord
100
AcDbTextStyleTableRecord
  2
textstyle111
 70
0
 40
0.0
 41
1.0
 50
0.0
 71
0
 42
0.02
  3

  4

1001
ACAD
1000
standard
1071
0
  0
STYLE
  5
EF
100
AcDbSymbolTableRecord
100
AcDbTextStyleTableRecord
  2
textstyle112
 70
0
 40
0.0
 41
1.0
 50
0.0
 71
0
 42
0.02
  3

  4

1001
ACAD
1000
standard
1071
0
  0
STYLE
  5
F0
100
AcDbSymbolTableRecord
100
AcDbTextStyleTableRecord
  2
textstyle113
 70
0
 40
0.0
 41
1.0
 50
0.0
 71
0
 42
0.02
  3

  4

1001
ACAD
1000
standard
1071
0
  0
STYLE
  5
F1
100
AcDbSymbolTableRecord
100
AcDbTextStyleTableRecord
  2
textstyle114
 70
0
 40
0.0
 41
1.0
 50
0.0
 71
0
 42
0.7
  3

  4

1001
ACAD
1000
romans
1071
0
  0
STYLE
  5
F2
100
AcDbSymbolTableRecord
100
AcDbTextStyleTableRecord
  2
textstyle115
 70
0
 40
0.0
 41
1.0
 50
0.0
 71
0
 42
0.6
  3

  4

1001
ACAD
1000
INTL_ENGINEERING
1071
0
  0
STYLE
  5
F3
100
AcDbSymbolTableRecord
100
AcDbTextStyleTableRecord
  2
textstyle116
 70
0
 40
0.0
 41
1.0
 50
0.0
 71
0
 42
0.6
  3

  4

1001
ACAD
1000
INTL_ENGINEERING
1071
0
  0
STYLE
  5
F4
100
AcDbSymbolTableRecord
100
AcDbTextStyleTableRecord
  2
textstyle117
 70
0
 40
0.0
 41
1.0
 50
0.0
 71
0
 42
0.6
  3

  4

1001
ACAD
1000
INTL_ENGINEERING
1071
0
  0
STYLE
  5
F5
100
AcDbSymbolTableRecord
100
AcDbTextStyleTableRecord
  2
textstyle118
 70
0
 40
0.0
 41
1.0
 50
0.0
 71
0
 42
0.6
  3

  4

1001
ACAD
1000
INTL_ENGINEERING
1071
0
  0
STYLE
  5
F6
100
AcDbSymbolTableRecord
100
AcDbTextStyleTableRecord
  2
textstyle119
 70
0
 40
0.0
 41
1.0
 50
0.0
 71
0
 42
0.6
  3

  4

1001
ACAD
1000
INTL_ENGINEERING
1071
0
  0
STYLE
  5
F7
100
AcDbSymbolTableRecord
100
AcDbTextStyleTableRecord
  2
textstyle120
 70
0
 40
0.0
 41
1.0
 50
0.0
 71
0
 42
0.6
  3

  4

1001
ACAD
1000
INTL_ENGINEERING
1071
0
  0
STYLE
  5
F8
100
AcDbSymbolTableRecord
100
AcDbTextStyleTableRecord
  2
textstyle121
 70
0
 40
0.0
 41
1.0
 50
0.0
 71
0
 42
0.6
  3

  4

1001
ACAD
1000
INTL_ENGINEERING
1071
0
  0
STYLE
  5
F9
100
AcDbSymbolTableRecord
100
AcDbTextStyleTableRecord
  2
textstyle122
 70
0
 40
0.0
 41
1.0
 50
0.0
 71
0
 42
0.6
  3

  4

1001
ACAD
1000
INTL_ENGINEERING
1071
0
  0
STYLE
  5
FA
100
AcDbSymbolTableRecord
100
AcDbTextStyleTableRecord
  2
textstyle123
 70
0
 40
0.0
 41
1.0
 50
0.0
 71
0
 42
0.6
  3

  4

1001
ACAD
1000
INTL_ENGINEERING
1071
0
  0
STYLE
  5
FB
100
AcDbSymbolTableRecord
100
AcDbTextStyleTableRecord
  2
textstyle124
 70
0
 40
0.0
 41
1.0
 50
0.0
 71
0
 42
0.6
  3

  4

1001
ACAD
1000
INTL_ENGINEERING
1071
0
  0
STYLE
  5
FC
100
AcDbSymbolTableRecord
100
AcDbTextStyleTableRecord
  2
textstyle125
 70
0
 40
0.0
 41
1.0
 50
0.0
 71
0
 42
0.6
  3

  4

1001
ACAD
1000
INTL_ENGINEERING
1071
0
  0
STYLE
  5
FD
100
AcDbSymbolTableRecord
100
AcDbTextStyleTableRecord
  2
textstyle126
 70
0
 40
0.0
 41
1.0
 50
0.0
 71
0
 42
0.6
  3

  4

1001
ACAD
1000
INTL_ENGINEERING
1071
0
  0
ENDTAB
  0
TABLE
  2
VIEW
  5
6
100
AcDbSymbolTable
 70
0
  0
ENDTAB
  0
TABLE
  2
UCS
  5
7
100
AcDbSymbolTable
 70
0
  0
ENDTAB
  0
TABLE
  2
APPID
  5
9
100
AcDbSymbolTable
 70
1
  0
APPID
  5
12
100
AcDbSymbolTableRecord
100
AcDbRegAppTableRecord
  2
ACAD
 70
0
  0
APPID
  5
FE
100
AcDbSymbolTableRecord
100
AcDbRegAppTableRecord
  2
QCAD
 70
0
  0
ENDTAB
  0
TABLE
  2
DIMSTYLE
  5
A
100
AcDbSymbolTable
 70
1
100
AcDbDimStyleTable
 71
0
  0
DIMSTYLE
105
27
100
AcDbSymbolTableRecord
100
AcDbDimStyleTableRecord
  2
Standard
 41
2.5
 42
0.625
 43
3.75
 44
1.25
 70
0
 73
0
 74
0
 77
1
 78
8
140
2.5
141
2.5
143
0.03937007874016
147
0.625
171
3
172
1
271
2
272
2
274
3
278
44
283
0
284
8
340
7E
  0
ENDTAB
  0
TABLE
  2
BLOCK_RECORD
  5
1
100
AcDbSymbolTable
 70
1
  0
BLOCK_RECORD
  5
1F
100
AcDbSymbolTableRecord
100
AcDbBlockTableRecord
  2
*Model_Space
340
22
  0
BLOCK_RECORD
  5
1B
100
AcDbSymbolTableRecord
100
AcDbBlockTableRecord
  2
*Paper_Space
340
1E
  0
BLOCK_RECORD
  5
23
100
AcDbSymbolTableRecord
100
AcDbBlockTableRecord
  2
*Paper_Space0
340
26
  0
BLOCK_RECORD
  5
FF
100
AcDbSymbolTableRecord
100
AcDbBlockTableRecord
  2
VESIIB
340
0
  0
BLOCK_RECORD
  5
100
100
AcDbSymbolTableRecord
100
AcDbBlockTableRecord
  2
VKT_ik6_1_1
340
0
  0
BLOCK_RECORD
  5
101
100
AcDbSymbolTableRecord
100
AcDbBlockTableRecord
  2
_None
340
0
  0
BLOCK_RECORD
  5
102
100
AcDbSymbolTableRecord
100
AcDbBlockTableRecord
  2
p\U+00f5hi-l\U+00f5una
340
0
  0
BLOCK_RECORD
  5
103
100
AcDbSymbolTableRecord
100
AcDbBlockTableRecord
  2
PIMIK
340
0
  0
BLOCK_RECORD
  5
104
100
AcDbSymbolTableRecord
100
AcDbBlockTableRecord
  2
VKORIS
340
0
  0
BLOCK_RECORD
  5
105
100
AcDbSymbolTableRecord
100
AcDbBlockTableRecord
  2
SPYMAR
340
0
  0
BLOCK_RECORD
  5
106
100
AcDbSymbolTableRecord
100
AcDbBlockTableRecord
  2
DRKAEV
340
0
  0
BLOCK_RECORD
  5
107
100
AcDbSymbolTableRecord
100
AcDbBlockTableRecord
  2
TORVAL
340
0
  0
BLOCK_RECORD
  5
108
100
AcDbSymbolTableRecord
100
AcDbBlockTableRecord
  2
THYDRK
340
0
  0
BLOCK_RECORD
  5
109
100
AcDbSymbolTableRecord
100
AcDbBlockTableRecord
  2
VKT_ik5_11_1
340
0
  0
BLOCK_RECORD
  5
10A
100
AcDbSymbolTableRecord
100
AcDbBlockTableRecord
  2
KAKAEV
340
0
  0
BLOCK_RECORD
  5
10B
100
AcDbSymbolTableRecord
100
AcDbBlockTableRecord
  2
VKT_ik5_11_2
340
0
  0
ENDTAB
  0
ENDSEC
  0
SECTION
  2
BLOCKS
  0
BLOCK
  5
20
100
AcDbEntity
  8
0
100
AcDbBlockBegin
  2
*Model_Space
 70
0
 10
0.0
 20
0.0
 30
0.0
  3
*Model_Space
  1

  0
ENDBLK
  5
21
100
AcDbEntity
  8
0
100
AcDbBlockEnd
  0
BLOCK
  5
1C
100
AcDbEntity
 67
1
  8
0
100
AcDbBlockBegin
  2
*Paper_Space
 70
0
 10
0.0
 20
0.0
 30
0.0
  3
*Paper_Space
  1

  0
ENDBLK
  5
1D
100
AcDbEntity
 67
1
  8
0
100
AcDbBlockEnd
  0
BLOCK
  5
24
100
AcDbEntity
  8
0
100
AcDbBlockBegin
  2
*Paper_Space0
 70
0
 10
0.0
 20
0.0
 30
0.0
  3
*Paper_Space0
  1

  0
ENDBLK
  5
25
100
AcDbEntity
  8
0
100
AcDbBlockEnd
  0
BLOCK
  5
10C
100
AcDbEntity
  8
0
100
AcDbBlockBegin
  2
VESIIB
 70
0
 10
0.0
 20
0.0
 30
0.0
  3
VESIIB
  1

  0
LINE
  5
10D
100
AcDbEntity
100
AcDbLine
  8
0
 62
0
370
-1
 48
1.0
  6
Continuous
 10
0.4949747468344867
 20
-0.4949747468344867
 30
0.0
 11
0.7742302550817839
 21
-0.7742302550817839
 31
0.0
  0
LINE
  5
10E
100
AcDbEntity
100
AcDbLine
  8
0
 62
0
370
-1
 48
1.0
  6
Continuous
 10
-0.7
 20
0.0
 30
0.0
 11
0.7
 21
0.0
 31
0.0
  0
CIRCLE
  5
10F
100
AcDbEntity
100
AcDbCircle
  8
0
 62
0
370
-1
 48
1.0
  6
Continuous
 10
0.0
 20
0.0
 30
0.0
 40
0.7
  0
LINE
  5
110
100
AcDbEntity
100
AcDbLine
  8
0
 62
0
370
-1
 48
1.0
  6
Continuous
 10
-0.4949747468344867
 20
-0.4949747468344867
 30
0.0
 11
-0.7742302550817839
 21
-0.7742302550817839
 31
0.0
  0
ENDBLK
  5
111
100
AcDbEntity
  8
0
100
AcDbBlockEnd
  0
BLOCK
  5
112
100
AcDbEntity
  8
0
100
AcDbBlockBegin
  2
VKT_ik6_1_1
 70
0
 10
0.0
 20
0.0
 30
0.0
  3
VKT_ik6_1_1
  1

  0
ENDBLK
  5
113
100
AcDbEntity
  8
0
100
AcDbBlockEnd
  0
BLOCK
  5
114
100
AcDbEntity
  8
0
100
AcDbBlockBegin
  2
_None
 70
0
 10
0.0
 20
0.0
 30
0.0
  3
_None
  1

  0
ENDBLK
  5
115
100
AcDbEntity
  8
0
100
AcDbBlockEnd
  0
BLOCK
  5
116
100
AcDbEntity
  8
0
100
AcDbBlockBegin
  2
p\U+00f5hi-l\U+00f5una
 70
0
 10
0.0
 20
0.0
 30
0.0
  3
p\U+00f5hi-l\U+00f5una
  1

  0
LWPOLYLINE
  5
117
  8
VORMISTUS
 62
256
370
-1
 48
1.0
  6
ByLayer
100
AcDbEntity
100
AcDbPolyline
 90
2
 70
0
 10
-164.1887156155180492
 20
820.5312310815343153
 30
0.0
 10
-154.262502876871622
 20
821.7437906335271691
 30
0.0
  0
LWPOLYLINE
  5
118
  8
VORMISTUS
 62
256
370
-1
 48
1.0
  6
ByLayer
100
AcDbEntity
100
AcDbPolyline
 90
3
 70
1
 10
-164.1887156155180492
 20
820.5312310815352248
 30
0.0
 10
-154.4022856734736706
 20
818.0071868595587148
 30
0.0
 10
-154.0843351583116601
 20
820.5065678116416166
 30
0.0
  0
TEXT
  5
119
100
AcDbEntity
100
AcDbText
  8
VORMISTUS
 62
256
370
-1
 48
1.0
  6
ByLayer
 10
-170.6017634771808389
 20
819.2896602447508485
 30
0.0
 40
2.5
  1
W
 50
0.0
 41
1.0
  7
textstyle12
 71
0
 72
1
 11
-169.0541444295618021
 21
820.5396602447508485
 31
0.0
100
AcDbText
 73
2
  0
LWPOLYLINE
  5
11A
  8
VORMISTUS
 62
52
420
13408512
370
-1
 48
1.0
  6
ByLayer
100
AcDbEntity
100
AcDbPolyline
 90
2
 70
0
 10
-154.1089984282043588
 20
810.4021873544352275
 30
0.0
 10
-155.3215579801972126
 20
820.3284000930816546
 30
0.0
  0
LWPOLYLINE
  5
11B
  8
VORMISTUS
 62
256
370
-1
 48
1.0
  6
ByLayer
100
AcDbEntity
100
AcDbPolyline
 90
3
 70
1
 10
-154.1089984282048135
 20
810.4021873544352275
 30
0.0
 10
-151.584954206229213
 20
820.188617296479606
 30
0.0
 10
-154.0843351583116601
 20
820.5065678116416166
 30
0.0
  0
TEXT
  5
11C
100
AcDbEntity
100
AcDbText
  8
VORMISTUS
 62
52
420
13408512
370
-1
 48
1.0
  6
ByLayer
 10
-155.2801919776557611
 20
805.4670361424796283
 30
0.0
 40
2.5
  1
S
 50
0.0
 41
1.0
  7
textstyle13
 71
0
 72
1
 11
-154.0897157871795571
 21
806.7170361424796283
 31
0.0
100
AcDbText
 73
2
  0
LWPOLYLINE
  5
11D
  8
VORMISTUS
 62
5
420
255
370
-1
 48
1.0
  6
ByLayer
100
AcDbEntity
100
AcDbPolyline
 90
2
 70
0
 10
-154.0596718884189613
 20
830.6109482688480057
 30
0.0
 10
-152.8471123364261075
 20
820.6847355302015785
 30
0.0
  0
LWPOLYLINE
  5
11E
  8
VORMISTUS
 62
256
370
-1
 48
1.0
  6
ByLayer
100
AcDbEntity
100
AcDbPolyline
 90
3
 70
1
 10
-154.0596718884185066
 20
830.6109482688480057
 30
0.0
 10
-156.5837161103941071
 20
820.8245183268036271
 30
0.0
 10
-154.0843351583116601
 20
820.5065678116416166
 30
0.0
  0
LWPOLYLINE
  5
11F
  8
VORMISTUS
 62
256
370
-1
 48
1.0
  6
ByLayer
100
AcDbEntity
100
AcDbPolyline
 90
2
 70
0
 10
-143.9799547011052709
 20
820.4819045417489178
 30
0.0
 10
-153.9061674397516981
 20
819.269344989756064
 30
0.0
  0
LWPOLYLINE
  5
120
  8
VORMISTUS
 62
256
370
-1
 48
1.0
  6
ByLayer
100
AcDbEntity
100
AcDbPolyline
 90
3
 70
1
 10
-143.9799547011052709
 20
820.4819045417480083
 30
0.0
 10
-153.7663846431496495
 20
823.0059487637245184
 30
0.0
 10
-154.0843351583116601
 20
820.5065678116416166
 30
0.0
  0
TEXT
  5
121
100
AcDbEntity
100
AcDbText
  8
VORMISTUS
 62
5
420
255
370
-1
 48
1.0
  6
ByLayer
 10
-155.3992395967033531
 20
832.0281576295719788
 30
0.0
 40
2.5
  1
N
 50
0.0
 41
1.0
  7
textstyle14
 71
0
 72
1
 11
-154.0897157871795571
 21
833.2781576295719788
 31
0.0
100
AcDbText
 73
2
  0
TEXT
  5
122
100
AcDbEntity
100
AcDbText
  8
VORMISTUS
 62
256
370
-1
 48
1.0
  6
ByLayer
 10
-140.532638982786068
 20
819.2219023764637313
 30
0.0
 40
2.5
  1
E
 50
0.0
 41
1.0
  7
textstyle15
 71
0
 72
1
 11
-139.342162792309864
 21
820.4719023764637313
 31
0.0
100
AcDbText
 73
2
  0
ENDBLK
  5
123
100
AcDbEntity
  8
0
100
AcDbBlockEnd
  0
BLOCK
  5
124
100
AcDbEntity
  8
0
100
AcDbBlockBegin
  2
PIMIK
 70
0
 10
0.0
 20
0.0
 30
0.0
  3
PIMIK
  1

  0
LINE
  5
125
100
AcDbEntity
100
AcDbLine
  8
0
 62
0
370
0
 48
1.0
  6
Continuous
 10
1.0
 20
-0.75
 30
0.0
 11
0.0
 21
-0.75
 31
0.0
  0
LINE
  5
126
100
AcDbEntity
100
AcDbLine
  8
0
 62
0
370
0
 48
1.0
  6
Continuous
 10
0.0
 20
-0.75
 30
0.0
 11
0.0
 21
0.75
 31
0.0
  0
LINE
  5
127
100
AcDbEntity
100
AcDbLine
  8
0
 62
0
370
0
 48
1.0
  6
Continuous
 10
0.0
 20
0.75
 30
0.0
 11
1.0
 21
0.75
 31
0.0
  0
LINE
  5
128
100
AcDbEntity
100
AcDbLine
  8
0
 62
0
370
0
 48
1.0
  6
Continuous
 10
-0.15
 20
0.9000000000000001
 30
0.0
 11
1.0
 21
0.9
 31
0.0
  0
LINE
  5
129
100
AcDbEntity
100
AcDbLine
  8
0
 62
0
370
0
 48
1.0
  6
Continuous
 10
-0.15
 20
-0.9
 30
0.0
 11
-0.15
 21
0.8999999999999999
 31
0.0
  0
LINE
  5
12A
100
AcDbEntity
100
AcDbLine
  8
0
 62
0
370
0
 48
1.0
  6
Continuous
 10
0.15
 20
0.6
 30
0.0
 11
1.0
 21
0.6
 31
0.0
  0
LINE
  5
12B
100
AcDbEntity
100
AcDbLine
  8
0
 62
0
370
0
 48
1.0
  6
Continuous
 10
0.15
 20
-0.6
 30
0.0
 11
0.15
 21
0.6
 31
0.0
  0
LINE
  5
12C
100
AcDbEntity
100
AcDbLine
  8
0
 62
0
370
0
 48
1.0
  6
Continuous
 10
1.0
 20
-0.6
 30
0.0
 11
0.15
 21
-0.6
 31
0.0
  0
LINE
  5
12D
100
AcDbEntity
100
AcDbLine
  8
0
 62
0
370
0
 48
1.0
  6
Continuous
 10
1.0
 20
-0.9
 30
0.0
 11
-0.15
 21
-0.9000000000000001
 31
0.0
  0
LINE
  5
12E
100
AcDbEntity
100
AcDbLine
  8
0
 62
0
370
0
 48
1.0
  6
Continuous
 10
1.0
 20
-0.9
 30
0.0
 11
1.0
 21
-0.6
 31
0.0
  0
LINE
  5
12F
100
AcDbEntity
100
AcDbLine
  8
0
 62
0
370
0
 48
1.0
  6
Continuous
 10
1.0
 20
0.6
 30
0.0
 11
1.0
 21
0.9
 31
0.0
  0
LINE
  5
130
100
AcDbEntity
100
AcDbLine
  8
0
 62
0
370
0
 48
1.0
  6
Continuous
 10
-0.1499999999999999
 20
0.0405794591174567
 30
0.0
 11
0.15
 21
0.3420902833113746
 31
0.0
  0
LINE
  5
131
100
AcDbEntity
100
AcDbLine
  8
0
 62
0
370
0
 48
1.0
  6
Continuous
 10
-0.1499999999999999
 20
0.1114684131829715
 30
0.0
 11
0.15
 21
0.4129792373768893
 31
0.0
  0
LINE
  5
132
100
AcDbEntity
100
AcDbLine
  8
0
 62
0
370
0
 48
1.0
  6
Continuous
 10
-0.1499999999999999
 20
0.1823573672484862
 30
0.0
 11
0.15
 21
0.4838681914424039
 31
0.0
  0
LINE
  5
133
100
AcDbEntity
100
AcDbLine
  8
0
 62
0
370
0
 48
1.0
  6
Continuous
 10
-0.1499999999999999
 20
0.2532463213140008
 30
0.0
 11
0.15
 21
0.5547571455079187
 31
0.0
  0
LINE
  5
134
100
AcDbEntity
100
AcDbLine
  8
0
 62
0
370
0
 48
1.0
  6
Continuous
 10
-0.1499999999999999
 20
0.3241352753795154
 30
0.0
 11
0.4229791553852627
 21
0.9000000000000001
 31
0.0
  0
LINE
  5
135
100
AcDbEntity
100
AcDbLine
  8
0
 62
0
370
0
 48
1.0
  6
Continuous
 10
-0.1499999999999999
 20
0.3950242294450301
 30
0.0
 11
0.3524454149249976
 21
0.9
 31
0.0
  0
LINE
  5
136
100
AcDbEntity
100
AcDbLine
  8
0
 62
0
370
0
 48
1.0
  6
Continuous
 10
-0.15
 20
0.4659131835105446
 30
0.0
 11
0.2819116744647328
 21
0.9
 31
0.0
  0
LINE
  5
137
100
AcDbEntity
100
AcDbLine
  8
0
 62
0
370
0
 48
1.0
  6
Continuous
 10
-0.15
 20
0.5368021375760592
 30
0.0
 11
0.2113779340044677
 21
0.9000000000000001
 31
0.0
  0
LINE
  5
138
100
AcDbEntity
100
AcDbLine
  8
0
 62
0
370
0
 48
1.0
  6
Continuous
 10
-0.15
 20
0.6076910916415738
 30
0.0
 11
0.1408441935442027
 21
0.9000000000000002
 31
0.0
  0
LINE
  5
139
100
AcDbEntity
100
AcDbLine
  8
0
 62
0
370
0
 48
1.0
  6
Continuous
 10
-0.15
 20
0.6785800457070886
 30
0.0
 11
0.0703104530839376
 21
0.9000000000000002
 31
0.0
  0
LINE
  5
13A
100
AcDbEntity
100
AcDbLine
  8
0
 62
0
370
0
 48
1.0
  6
Continuous
 10
-0.15
 20
0.7494689997726028
 30
0.0
 11
-0.0002232873763269
 21
0.9000000000000002
 31
0.0
  0
LINE
  5
13B
100
AcDbEntity
100
AcDbLine
  8
0
 62
0
370
0
 48
1.0
  6
Continuous
 10
-0.15
 20
0.8203579538381174
 30
0.0
 11
-0.070757027836592
 21
0.9000000000000001
 31
0.0
  0
LINE
  5
13C
100
AcDbEntity
100
AcDbLine
  8
0
 62
0
370
0
 48
1.0
  6
Continuous
 10
-0.15
 20
0.891246907903632
 30
0.0
 11
-0.141290768296857
 21
0.9000000000000002
 31
0.0
  0
LINE
  5
13D
100
AcDbEntity
100
AcDbLine
  8
0
 62
0
370
0
 48
1.0
  6
Continuous
 10
-0.1499999999999999
 20
-0.8100879896687176
 30
0.0
 11
0.15
 21
-0.5085771654747997
 31
0.0
  0
LINE
  5
13E
100
AcDbEntity
100
AcDbLine
  8
0
 62
0
370
0
 48
1.0
  6
Continuous
 10
-0.1499999999999999
 20
-0.739199035603203
 30
0.0
 11
0.15
 21
-0.4376882114092851
 31
0.0
  0
LINE
  5
13F
100
AcDbEntity
100
AcDbLine
  8
0
 62
0
370
0
 48
1.0
  6
Continuous
 10
-0.15
 20
-0.6683100815376881
 30
0.0
 11
0.15
 21
-0.3667992573437702
 31
0.0
  0
LINE
  5
140
100
AcDbEntity
100
AcDbLine
  8
0
 62
0
370
0
 48
1.0
  6
Continuous
 10
-0.15
 20
-0.5974211274721737
 30
0.0
 11
0.15
 21
-0.2959103032782558
 31
0.0
  0
LINE
  5
141
100
AcDbEntity
100
AcDbLine
  8
0
 62
0
370
0
 48
1.0
  6
Continuous
 10
-0.15
 20
-0.5265321734066588
 30
0.0
 11
0.15
 21
-0.225021349212741
 31
0.0
  0
LINE
  5
142
100
AcDbEntity
100
AcDbLine
  8
0
 62
0
370
0
 48
1.0
  6
Continuous
 10
-0.1499999999999999
 20
-0.455643219341144
 30
0.0
 11
0.15
 21
-0.1541323951472263
 31
0.0
  0
LINE
  5
143
100
AcDbEntity
100
AcDbLine
  8
0
 62
0
370
0
 48
1.0
  6
Continuous
 10
-0.15
 20
-0.3847542652756294
 30
0.0
 11
0.15
 21
-0.0832434410817117
 31
0.0
  0
LINE
  5
144
100
AcDbEntity
100
AcDbLine
  8
0
 62
0
370
0
 48
1.0
  6
Continuous
 10
-0.15
 20
-0.3138653112101149
 30
0.0
 11
0.15
 21
-0.0123544870161972
 31
0.0
  0
LINE
  5
145
100
AcDbEntity
100
AcDbLine
  8
0
 62
0
370
0
 48
1.0
  6
Continuous
 10
-0.15
 20
-0.2429763571446003
 30
0.0
 11
0.15
 21
0.0585344670493174
 31
0.0
  0
LINE
  5
146
100
AcDbEntity
100
AcDbLine
  8
0
 62
0
370
0
 48
1.0
  6
Continuous
 10
-0.15
 20
-0.1720874030790856
 30
0.0
 11
0.15
 21
0.1294234211148321
 31
0.0
  0
LINE
  5
147
100
AcDbEntity
100
AcDbLine
  8
0
 62
0
370
0
 48
1.0
  6
Continuous
 10
-0.15
 20
-0.101198449013571
 30
0.0
 11
0.15
 21
0.2003123751803467
 31
0.0
  0
LINE
  5
148
100
AcDbEntity
100
AcDbLine
  8
0
 62
0
370
0
 48
1.0
  6
Continuous
 10
-0.15
 20
-0.0303094949480565
 30
0.0
 11
0.15
 21
0.2712013292458612
 31
0.0
  0
LINE
  5
149
100
AcDbEntity
100
AcDbLine
  8
0
 62
0
370
0
 48
1.0
  6
Continuous
 10
0.6069434103953847
 20
-0.9000000000000001
 30
0.0
 11
0.9054401567082674
 21
-0.6
 31
0.0
  0
LINE
  5
14A
100
AcDbEntity
100
AcDbLine
  8
0
 62
0
370
0
 48
1.0
  6
Continuous
 10
0.5364096699351196
 20
-0.9000000000000001
 30
0.0
 11
0.8349064162480022
 21
-0.6
 31
0.0
  0
LINE
  5
14B
100
AcDbEntity
100
AcDbLine
  8
0
 62
0
370
0
 48
1.0
  6
Continuous
 10
0.4658759294748546
 20
-0.9000000000000002
 30
0.0
 11
0.764372675787737
 21
-0.6
 31
0.0
  0
LINE
  5
14C
100
AcDbEntity
100
AcDbLine
  8
0
 62
0
370
0
 48
1.0
  6
Continuous
 10
0.3953421890145895
 20
-0.9000000000000001
 30
0.0
 11
0.6938389353274722
 21
-0.6
 31
0.0
  0
LINE
  5
14D
100
AcDbEntity
100
AcDbLine
  8
0
 62
0
370
0
 48
1.0
  6
Continuous
 10
0.3248084485543244
 20
-0.9000000000000002
 30
0.0
 11
0.6233051948672071
 21
-0.6
 31
0.0
  0
LINE
  5
14E
100
AcDbEntity
100
AcDbLine
  8
0
 62
0
370
0
 48
1.0
  6
Continuous
 10
0.2542747080940597
 20
-0.9000000000000001
 30
0.0
 11
0.5527714544069424
 21
-0.6
 31
0.0
  0
LINE
  5
14F
100
AcDbEntity
100
AcDbLine
  8
0
 62
0
370
0
 48
1.0
  6
Continuous
 10
0.1837409676337944
 20
-0.9000000000000002
 30
0.0
 11
0.4822377139466774
 21
-0.6
 31
0.0
  0
LINE
  5
150
100
AcDbEntity
100
AcDbLine
  8
0
 62
0
370
0
 48
1.0
  6
Continuous
 10
0.1132072271735295
 20
-0.9000000000000002
 30
0.0
 11
0.4117039734864122
 21
-0.6
 31
0.0
  0
LINE
  5
151
100
AcDbEntity
100
AcDbLine
  8
0
 62
0
370
0
 48
1.0
  6
Continuous
 10
0.0426734867132645
 20
-0.9000000000000001
 30
0.0
 11
0.3411702330261474
 21
-0.6
 31
0.0
  0
LINE
  5
152
100
AcDbEntity
100
AcDbLine
  8
0
 62
0
370
0
 48
1.0
  6
Continuous
 10
-0.0278602537470004
 20
-0.9000000000000004
 30
0.0
 11
0.2706364925658823
 21
-0.6
 31
0.0
  0
LINE
  5
153
100
AcDbEntity
100
AcDbLine
  8
0
 62
0
370
0
 48
1.0
  6
Continuous
 10
-0.0983939942072657
 20
-0.9000000000000004
 30
0.0
 11
0.2001027521056173
 21
-0.6
 31
0.0
  0
LINE
  5
154
100
AcDbEntity
100
AcDbLine
  8
0
 62
0
370
0
 48
1.0
  6
Continuous
 10
-0.15
 20
-0.8809769437342303
 30
0.0
 11
0.15
 21
-0.5794661195403128
 31
0.0
  0
LINE
  5
155
100
AcDbEntity
100
AcDbLine
  8
0
 62
0
370
0
 48
1.0
  6
Continuous
 10
0.9596121126967084
 20
-0.9000000000000002
 30
0.0
 11
1.0
 21
-0.8594087160391115
 31
0.0
  0
LINE
  5
156
100
AcDbEntity
100
AcDbLine
  8
0
 62
0
370
0
 48
1.0
  6
Continuous
 10
0.8890783722364434
 20
-0.9000000000000002
 30
0.0
 11
1.0
 21
-0.7885197619735972
 31
0.0
  0
LINE
  5
157
100
AcDbEntity
100
AcDbLine
  8
0
 62
0
370
0
 48
1.0
  6
Continuous
 10
0.8185446317761781
 20
-0.9000000000000002
 30
0.0
 11
1.0
 21
-0.7176308079080823
 31
0.0
  0
LINE
  5
158
100
AcDbEntity
100
AcDbLine
  8
0
 62
0
370
0
 48
1.0
  6
Continuous
 10
0.7480108913159133
 20
-0.9
 30
0.0
 11
1.0
 21
-0.6467418538425679
 31
0.0
  0
LINE
  5
159
100
AcDbEntity
100
AcDbLine
  8
0
 62
0
370
0
 48
1.0
  6
Continuous
 10
0.6774771508556482
 20
-0.9000000000000001
 30
0.0
 11
0.9759738971685309
 21
-0.6
 31
0.0
  0
LINE
  5
15A
100
AcDbEntity
100
AcDbLine
  8
0
 62
0
370
0
 48
1.0
  6
Continuous
 10
0.477151111373704
 20
0.6000000000000001
 30
0.0
 11
0.7756478576865867
 21
0.9000000000000001
 31
0.0
  0
LINE
  5
15B
100
AcDbEntity
100
AcDbLine
  8
0
 62
0
370
0
 48
1.0
  6
Continuous
 10
0.5476848518339689
 20
0.6000000000000001
 30
0.0
 11
0.8461815981468515
 21
0.8999999999999999
 31
0.0
  0
LINE
  5
15C
100
AcDbEntity
100
AcDbLine
  8
0
 62
0
370
0
 48
1.0
  6
Continuous
 10
0.6182185922942338
 20
0.6
 30
0.0
 11
0.9167153386071165
 21
0.9
 31
0.0
  0
LINE
  5
15D
100
AcDbEntity
100
AcDbLine
  8
0
 62
0
370
0
 48
1.0
  6
Continuous
 10
0.6887523327544989
 20
0.6
 30
0.0
 11
0.9872490790673815
 21
0.9
 31
0.0
  0
LINE
  5
15E
100
AcDbEntity
100
AcDbLine
  8
0
 62
0
370
0
 48
1.0
  6
Continuous
 10
0.7592860732147638
 20
0.6
 30
0.0
 11
1.0
 21
0.8419261815332364
 31
0.0
  0
LINE
  5
15F
100
AcDbEntity
100
AcDbLine
  8
0
 62
0
370
0
 48
1.0
  6
Continuous
 10
0.829819813675029
 20
0.6000000000000001
 30
0.0
 11
1.0
 21
0.7710372274677217
 31
0.0
  0
LINE
  5
160
100
AcDbEntity
100
AcDbLine
  8
0
 62
0
370
0
 48
1.0
  6
Continuous
 10
0.9003535541352937
 20
0.6000000000000001
 30
0.0
 11
1.0
 21
0.7001482734022074
 31
0.0
  0
LINE
  5
161
100
AcDbEntity
100
AcDbLine
  8
0
 62
0
370
0
 48
1.0
  6
Continuous
 10
0.9708872945955586
 20
0.6
 30
0.0
 11
1.0
 21
0.6292593193366928
 31
0.0
  0
LINE
  5
162
100
AcDbEntity
100
AcDbLine
  8
0
 62
0
370
0
 48
1.0
  6
Continuous
 10
0.195016149532645
 20
0.6000000000000001
 30
0.0
 11
0.4935128958455274
 21
0.9
 31
0.0
  0
LINE
  5
163
100
AcDbEntity
100
AcDbLine
  8
0
 62
0
370
0
 48
1.0
  6
Continuous
 10
0.26554988999291
 20
0.6000000000000001
 30
0.0
 11
0.5640466363057925
 21
0.9
 31
0.0
  0
LINE
  5
164
100
AcDbEntity
100
AcDbLine
  8
0
 62
0
370
0
 48
1.0
  6
Continuous
 10
0.3360836304531749
 20
0.6
 30
0.0
 11
0.6345803767660574
 21
0.9
 31
0.0
  0
LINE
  5
165
100
AcDbEntity
100
AcDbLine
  8
0
 62
0
370
0
 48
1.0
  6
Continuous
 10
0.4066173709134399
 20
0.6
 30
0.0
 11
0.7051141172263223
 21
0.9
 31
0.0
  0
ENDBLK
  5
166
100
AcDbEntity
  8
0
100
AcDbBlockEnd
  0
BLOCK
  5
167
100
AcDbEntity
  8
0
100
AcDbBlockBegin
  2
VKORIS
 70
0
 10
0.0
 20
0.0
 30
0.0
  3
VKORIS
  1

  0
LINE
  5
168
100
AcDbEntity
100
AcDbLine
  8
0
 62
0
370
-1
 48
1.0
  6
Continuous
 10
-0.0000000000001424
 20
4.0003551178668415
 30
0.0
 11
-0.0000000000001424
 21
-4.0003551178671266
 31
0.0
  0
LINE
  5
169
100
AcDbEntity
100
AcDbLine
  8
0
 62
0
370
-1
 48
1.0
  6
Continuous
 10
-4.0003551178669836
 20
0.0
 30
0.0
 11
4.0003551178669836
 21
0.0
 31
0.0
  0
ENDBLK
  5
16A
100
AcDbEntity
  8
0
100
AcDbBlockEnd
  0
BLOCK
  5
16B
100
AcDbEntity
  8
0
100
AcDbBlockBegin
  2
SPYMAR
 70
0
 10
0.0
 20
0.0
 30
0.0
  3
SPYMAR
  1

  0
CIRCLE
  5
16C
100
AcDbEntity
100
AcDbCircle
  8
0
 62
0
370
-1
 48
1.0
  6
Continuous
 10
0.0
 20
0.0
 30
0.0
 40
0.75
  0
CIRCLE
  5
16D
100
AcDbEntity
100
AcDbCircle
  8
0
 62
0
370
-1
 48
1.0
  6
Continuous
 10
0.0
 20
0.0
 30
0.0
 40
0.044
  0
LINE
  5
16E
100
AcDbEntity
100
AcDbLine
  8
0
 62
0
370
-1
 48
1.0
  6
Continuous
 10
0.0
 20
0.75
 30
0.0
 11
0.0
 21
1.25
 31
0.0
  0
LINE
  5
16F
100
AcDbEntity
100
AcDbLine
  8
0
 62
0
370
-1
 48
1.0
  6
Continuous
 10
0.75
 20
0.0
 30
0.0
 11
1.25
 21
0.0
 31
0.0
  0
LINE
  5
170
100
AcDbEntity
100
AcDbLine
  8
0
 62
0
370
-1
 48
1.0
  6
Continuous
 10
-0.75
 20
0.0
 30
0.0
 11
-1.25
 21
0.0
 31
0.0
  0
LINE
  5
171
100
AcDbEntity
100
AcDbLine
  8
0
 62
0
370
-1
 48
1.0
  6
Continuous
 10
0.0
 20
-0.75
 30
0.0
 11
0.0
 21
-1.25
 31
0.0
  0
ENDBLK
  5
172
100
AcDbEntity
  8
0
100
AcDbBlockEnd
  0
BLOCK
  5
173
100
AcDbEntity
  8
0
100
AcDbBlockBegin
  2
DRKAEV
 70
0
 10
0.0
 20
0.0
 30
0.0
  3
DRKAEV
  1

  0
CIRCLE
  5
174
100
AcDbEntity
100
AcDbCircle
  8
0
 62
0
370
-1
 48
1.0
  6
Continuous
 10
0.0
 20
0.0
 30
0.0
 40
1.0
  0
LINE
  5
175
100
AcDbEntity
100
AcDbLine
  8
0
 62
0
370
-1
 48
1.0
  6
Continuous
 10
-0.5
 20
-0.5
 30
0.0
 11
-0.5
 21
0.5000000000000142
 31
0.0
  0
LINE
  5
176
100
AcDbEntity
100
AcDbLine
  8
0
 62
0
370
-1
 48
1.0
  6
Continuous
 10
-0.5
 20
0.5
 30
0.0
 11
0.5
 21
0.5
 31
0.0
  0
LINE
  5
177
100
AcDbEntity
100
AcDbLine
  8
0
 62
0
370
-1
 48
1.0
  6
Continuous
 10
0.5
 20
0.5000000000000142
 30
0.0
 11
0.5
 21
-0.5
 31
0.0
  0
LINE
  5
178
100
AcDbEntity
100
AcDbLine
  8
0
 62
0
370
-1
 48
1.0
  6
Continuous
 10
0.4999999999997726
 20
-0.5000000000000142
 30
0.0
 11
-0.5
 21
-0.5
 31
0.0
  0
ENDBLK
  5
179
100
AcDbEntity
  8
0
100
AcDbBlockEnd
  0
BLOCK
  5
17A
100
AcDbEntity
  8
0
100
AcDbBlockBegin
  2
TORVAL
 70
0
 10
0.0
 20
0.0
 30
0.0
  3
TORVAL
  1

  0
LINE
  5
17B
100
AcDbEntity
100
AcDbLine
  8
0
 62
0
370
0
 48
1.0
  6
Continuous
 10
-1.0000000000000002
 20
-0.9999999999999999
 30
0.0
 11
0.0
 21
0.0
 31
0.0
  0
LINE
  5
17C
100
AcDbEntity
100
AcDbLine
  8
0
 62
0
370
0
 48
1.0
  6
Continuous
 10
0.0
 20
0.0
 30
0.0
 11
-0.9999999999999999
 21
1.0000000000000002
 31
0.0
  0
LINE
  5
17D
100
AcDbEntity
100
AcDbLine
  8
0
 62
0
370
0
 48
1.0
  6
Continuous
 10
0.2013365456866971
 20
0.0
 30
0.0
 11
-0.8993317271566513
 21
1.1006682728433488
 31
0.0
  0
LINE
  5
17E
100
AcDbEntity
100
AcDbLine
  8
0
 62
0
370
0
 48
1.0
  6
Continuous
 10
-0.2013365456866971
 20
-0.0
 30
0.0
 11
-1.1006682728433486
 21
0.8993317271566517
 31
0.0
  0
LINE
  5
17F
100
AcDbEntity
100
AcDbLine
  8
0
 62
0
370
0
 48
1.0
  6
Continuous
 10
-0.8993317271566517
 20
-1.1006682728433486
 30
0.0
 11
0.2013365456866971
 21
0.0
 31
0.0
  0
LINE
  5
180
100
AcDbEntity
100
AcDbLine
  8
0
 62
0
370
0
 48
1.0
  6
Continuous
 10
-1.1006682728433488
 20
-0.8993317271566513
 30
0.0
 11
-0.2013365456866971
 21
-0.0
 31
0.0
  0
LINE
  5
181
100
AcDbEntity
100
AcDbLine
  8
0
 62
0
370
0
 48
1.0
  6
Continuous
 10
-1.1006682728433486
 20
0.8993317271566517
 30
0.0
 11
-0.8993317271566513
 21
1.1006682728433488
 31
0.0
  0
LINE
  5
182
100
AcDbEntity
100
AcDbLine
  8
0
 62
0
370
0
 48
1.0
  6
Continuous
 10
-1.1006682728433488
 20
-0.8993317271566513
 30
0.0
 11
-0.8993317271566517
 21
-1.1006682728433486
 31
0.0
  0
LINE
  5
183
100
AcDbEntity
100
AcDbLine
  8
0
 62
0
370
0
 48
1.0
  6
Continuous
 10
-0.9408735048715504
 20
-1.0591264951284496
 30
0.0
 11
-0.8168903319550346
 21
-1.0182268776417316
 31
0.0
  0
LINE
  5
184
100
AcDbEntity
100
AcDbLine
  8
0
 62
0
370
0
 48
1.0
  6
Continuous
 10
-0.980463746962409
 20
-1.0195362530375911
 30
0.0
 11
-0.73832184081486
 21
-0.9396583865015569
 31
0.0
  0
LINE
  5
185
100
AcDbEntity
100
AcDbLine
  8
0
 62
0
370
0
 48
1.0
  6
Continuous
 10
-1.0200539890532676
 20
-0.9799460109467324
 30
0.0
 11
-0.6597533496746844
 21
-0.8610898953613813
 31
0.0
  0
LINE
  5
186
100
AcDbEntity
100
AcDbLine
  8
0
 62
0
370
0
 48
1.0
  6
Continuous
 10
-1.0596442311441263
 20
-0.9403557688558739
 30
0.0
 11
-0.5811848585345093
 21
-0.7825214042212063
 31
0.0
  0
LINE
  5
187
100
AcDbEntity
100
AcDbLine
  8
0
 62
0
370
0
 48
1.0
  6
Continuous
 10
-1.099234473234985
 20
-0.9007655267650151
 30
0.0
 11
-0.5026163673943337
 21
-0.7039529130810307
 31
0.0
  0
LINE
  5
188
100
AcDbEntity
100
AcDbLine
  8
0
 62
0
370
0
 48
1.0
  6
Continuous
 10
-1.0249452169891711
 20
-0.8236086713024737
 30
0.0
 11
-0.4240478762541585
 21
-0.6253844219408554
 31
0.0
  0
LINE
  5
189
100
AcDbEntity
100
AcDbLine
  8
0
 62
0
370
0
 48
1.0
  6
Continuous
 10
-0.9463767258489959
 20
-0.7450401801622984
 30
0.0
 11
-0.3454793851139832
 21
-0.5468159308006802
 31
0.0
  0
LINE
  5
18A
100
AcDbEntity
100
AcDbLine
  8
0
 62
0
370
0
 48
1.0
  6
Continuous
 10
-0.8678082347088207
 20
-0.6664716890221233
 30
0.0
 11
-0.266910893973808
 21
-0.4682474396605051
 31
0.0
  0
LINE
  5
18B
100
AcDbEntity
100
AcDbLine
  8
0
 62
0
370
0
 48
1.0
  6
Continuous
 10
-0.7892397435686452
 20
-0.587903197881948
 30
0.0
 11
-0.1883424028336329
 21
-0.38967894852033
 31
0.0
  0
LINE
  5
18C
100
AcDbEntity
100
AcDbLine
  8
0
 62
0
370
0
 48
1.0
  6
Continuous
 10
-0.7106712524284702
 20
-0.5093347067417728
 30
0.0
 11
-0.1097739116934576
 21
-0.3111104573801547
 31
0.0
  0
LINE
  5
18D
100
AcDbEntity
100
AcDbLine
  8
0
 62
0
370
0
 48
1.0
  6
Continuous
 10
-0.6321027612882947
 20
-0.4307662156015973
 30
0.0
 11
-0.0312054205532822
 21
-0.2325419662399793
 31
0.0
  0
LINE
  5
18E
100
AcDbEntity
100
AcDbLine
  8
0
 62
0
370
0
 48
1.0
  6
Continuous
 10
-0.5535342701481194
 20
-0.3521977244614222
 30
0.0
 11
0.047363070586893
 21
-0.1539734750998041
 31
0.0
  0
LINE
  5
18F
100
AcDbEntity
100
AcDbLine
  8
0
 62
0
370
0
 48
1.0
  6
Continuous
 10
-0.4749657790079443
 20
-0.2736292333212471
 30
0.0
 11
0.1259315617270683
 21
-0.0754049839596288
 31
0.0
  0
LINE
  5
190
100
AcDbEntity
100
AcDbLine
  8
0
 62
0
370
0
 48
1.0
  6
Continuous
 10
-0.3963972878677691
 20
-0.1950607421810718
 30
0.0
 11
0.19974247135338
 21
0.001594074333317
 31
0.0
  0
LINE
  5
191
100
AcDbEntity
100
AcDbLine
  8
0
 62
0
370
0
 48
1.0
  6
Continuous
 10
-0.3178287967275936
 20
-0.1164922510408964
 30
0.0
 11
0.1601522292625214
 21
0.0411843164241757
 31
0.0
  0
LINE
  5
192
100
AcDbEntity
100
AcDbLine
  8
0
 62
0
370
0
 48
1.0
  6
Continuous
 10
-0.2392603055874184
 20
-0.0379237599007212
 30
0.0
 11
0.1205619871716628
 21
0.0807745585150343
 31
0.0
  0
LINE
  5
193
100
AcDbEntity
100
AcDbLine
  8
0
 62
0
370
0
 48
1.0
  6
Continuous
 10
-0.2218172081779365
 20
0.0204806624912394
 30
0.0
 11
0.0809717450808043
 21
0.1203648006058929
 31
0.0
  0
LINE
  5
194
100
AcDbEntity
100
AcDbLine
  8
0
 62
0
370
0
 48
1.0
  6
Continuous
 10
-0.2614074502687953
 20
0.0600709045820982
 30
0.0
 11
0.0413815029899455
 21
0.1599550426967517
 31
0.0
  0
LINE
  5
195
100
AcDbEntity
100
AcDbLine
  8
0
 62
0
370
0
 48
1.0
  6
Continuous
 10
-0.300997692359654
 20
0.0996611466729569
 30
0.0
 11
0.0017912608990868
 21
0.1995452847876103
 31
0.0
  0
LINE
  5
196
100
AcDbEntity
100
AcDbLine
  8
0
 62
0
370
0
 48
1.0
  6
Continuous
 10
-0.3405879344505125
 20
0.1392513887638154
 30
0.0
 11
-0.0377989811917717
 21
0.2391355268784689
 31
0.0
  0
LINE
  5
197
100
AcDbEntity
100
AcDbLine
  8
0
 62
0
370
0
 48
1.0
  6
Continuous
 10
-0.3801781765413712
 20
0.1788416308546741
 30
0.0
 11
-0.0773892232826304
 21
0.2787257689693276
 31
0.0
  0
LINE
  5
198
100
AcDbEntity
100
AcDbLine
  8
0
 62
0
370
0
 48
1.0
  6
Continuous
 10
-0.4197684186322299
 20
0.2184318729455328
 30
0.0
 11
-0.1169794653734891
 21
0.3183160110601863
 31
0.0
  0
LINE
  5
199
100
AcDbEntity
100
AcDbLine
  8
0
 62
0
370
0
 48
1.0
  6
Continuous
 10
-0.4593586607230885
 20
0.2580221150363914
 30
0.0
 11
-0.1565697074643477
 21
0.3579062531510449
 31
0.0
  0
LINE
  5
19A
100
AcDbEntity
100
AcDbLine
  8
0
 62
0
370
0
 48
1.0
  6
Continuous
 10
-0.4989489028139472
 20
0.2976123571272501
 30
0.0
 11
-0.1961599495552064
 21
0.3974964952419036
 31
0.0
  0
LINE
  5
19B
100
AcDbEntity
100
AcDbLine
  8
0
 62
0
370
0
 48
1.0
  6
Continuous
 10
-0.5385391449048058
 20
0.3372025992181088
 30
0.0
 11
-0.235750191646065
 21
0.4370867373327623
 31
0.0
  0
LINE
  5
19C
100
AcDbEntity
100
AcDbLine
  8
0
 62
0
370
0
 48
1.0
  6
Continuous
 10
-0.5781293869956643
 20
0.3767928413089673
 30
0.0
 11
-0.2753404337369236
 21
0.4766769794236208
 31
0.0
  0
LINE
  5
19D
100
AcDbEntity
100
AcDbLine
  8
0
 62
0
370
0
 48
1.0
  6
Continuous
 10
-0.6177196290865231
 20
0.4163830833998262
 30
0.0
 11
-0.3149306758277824
 21
0.5162672215144797
 31
0.0
  0
LINE
  5
19E
100
AcDbEntity
100
AcDbLine
  8
0
 62
0
370
0
 48
1.0
  6
Continuous
 10
-0.6573098711773818
 20
0.4559733254906848
 30
0.0
 11
-0.354520917918641
 21
0.5558574636053383
 31
0.0
  0
LINE
  5
19F
100
AcDbEntity
100
AcDbLine
  8
0
 62
0
370
0
 48
1.0
  6
Continuous
 10
-0.6969001132682404
 20
0.4955635675815433
 30
0.0
 11
-0.3941111600094995
 21
0.5954477056961969
 31
0.0
  0
LINE
  5
1A0
100
AcDbEntity
100
AcDbLine
  8
0
 62
0
370
0
 48
1.0
  6
Continuous
 10
-0.736490355359099
 20
0.5351538096724021
 30
0.0
 11
-0.4337014021003581
 21
0.6350379477870555
 31
0.0
  0
LINE
  5
1A1
100
AcDbEntity
100
AcDbLine
  8
0
 62
0
370
0
 48
1.0
  6
Continuous
 10
-0.7760805974499577
 20
0.5747440517632607
 30
0.0
 11
-0.4732916441912168
 21
0.6746281898779142
 31
0.0
  0
LINE
  5
1A2
100
AcDbEntity
100
AcDbLine
  8
0
 62
0
370
0
 48
1.0
  6
Continuous
 10
-0.8156708395408163
 20
0.6143342938541194
 30
0.0
 11
-0.5128818862820754
 21
0.7142184319687729
 31
0.0
  0
LINE
  5
1A3
100
AcDbEntity
100
AcDbLine
  8
0
 62
0
370
0
 48
1.0
  6
Continuous
 10
-0.8552610816316751
 20
0.6539245359449782
 30
0.0
 11
-0.5524721283729344
 21
0.7538086740596317
 31
0.0
  0
LINE
  5
1A4
100
AcDbEntity
100
AcDbLine
  8
0
 62
0
370
0
 48
1.0
  6
Continuous
 10
-0.8948513237225335
 20
0.6935147780358366
 30
0.0
 11
-0.5920623704637928
 21
0.7933989161504903
 31
0.0
  0
LINE
  5
1A5
100
AcDbEntity
100
AcDbLine
  8
0
 62
0
370
0
 48
1.0
  6
Continuous
 10
-0.9344415658133921
 20
0.7331050201266952
 30
0.0
 11
-0.6316526125546514
 21
0.8329891582413488
 31
0.0
  0
LINE
  5
1A6
100
AcDbEntity
100
AcDbLine
  8
0
 62
0
370
0
 48
1.0
  6
Continuous
 10
-0.9740318079042511
 20
0.7726952622175541
 30
0.0
 11
-0.6712428546455103
 21
0.8725794003322076
 31
0.0
  0
LINE
  5
1A7
100
AcDbEntity
100
AcDbLine
  8
0
 62
0
370
0
 48
1.0
  6
Continuous
 10
-1.0136220499951094
 20
0.8122855043084126
 30
0.0
 11
-0.7108330967363686
 21
0.9121696424230661
 31
0.0
  0
LINE
  5
1A8
100
AcDbEntity
100
AcDbLine
  8
0
 62
0
370
0
 48
1.0
  6
Continuous
 10
-1.0532122920859683
 20
0.8518757463992713
 30
0.0
 11
-0.7504233388272272
 21
0.9517598845139247
 31
0.0
  0
LINE
  5
1A9
100
AcDbEntity
100
AcDbLine
  8
0
 62
0
370
0
 48
1.0
  6
Continuous
 10
-1.0928025341768268
 20
0.8914659884901299
 30
0.0
 11
-0.7900135809180859
 21
0.9913501266047834
 31
0.0
  0
LINE
  5
1AA
100
AcDbEntity
100
AcDbLine
  8
0
 62
0
370
0
 48
1.0
  6
Continuous
 10
-1.0377096690414034
 20
0.9622903309585971
 30
0.0
 11
-0.8296038230089445
 21
1.030940368695642
 31
0.0
  0
LINE
  5
1AB
100
AcDbEntity
100
AcDbLine
  8
0
 62
0
370
0
 48
1.0
  6
Continuous
 10
-0.9591411779012284
 20
1.040858822098772
 30
0.0
 11
-0.8691940650998031
 21
1.0705306107865005
 31
0.0
  0
ENDBLK
  5
1AC
100
AcDbEntity
  8
0
100
AcDbBlockEnd
  0
BLOCK
  5
1AD
100
AcDbEntity
  8
0
100
AcDbBlockBegin
  2
THYDRK
 70
0
 10
0.0
 20
0.0
 30
0.0
  3
THYDRK
  1

  0
LINE
  5
1AE
100
AcDbEntity
100
AcDbLine
  8
0
 62
0
370
-1
 48
1.0
  6
ByLayer
 10
-1.0
 20
0.0
 30
0.0
 11
1.0
 21
0.0
 31
0.0
  0
CIRCLE
  5
1AF
100
AcDbEntity
100
AcDbCircle
  8
0
 62
0
370
-1
 48
1.0
  6
ByLayer
 10
0.0
 20
0.0
 30
0.0
 40
1.0
  0
LWPOLYLINE
  5
1B0
  8
0
 62
0
370
-1
 48
1.0
  6
ByLayer
100
AcDbEntity
100
AcDbPolyline
 90
2
 70
0
 10
-0.5
 20
0.0
 30
0.0
 42
1.0
 10
0.5
 20
0.0
 30
0.0
  0
ENDBLK
  5
1B1
100
AcDbEntity
  8
0
100
AcDbBlockEnd
  0
BLOCK
  5
1B2
100
AcDbEntity
  8
0
100
AcDbBlockBegin
  2
VKT_ik5_11_1
 70
0
 10
0.0
 20
0.0
 30
0.0
  3
VKT_ik5_11_1
  1

  0
LINE
  5
1B3
100
AcDbEntity
100
AcDbLine
  8
0
 62
0
370
-1
 48
0.5
  6
Continuous
 10
-4.0
 20
-0.0000000000218279
 30
0.0
 11
0.0
 21
0.0
 31
0.0
  0
ENDBLK
  5
1B4
100
AcDbEntity
  8
0
100
AcDbBlockEnd
  0
BLOCK
  5
1B5
100
AcDbEntity
  8
0
100
AcDbBlockBegin
  2
KAKAEV
 70
0
 10
0.0
 20
0.0
 30
0.0
  3
KAKAEV
  1

  0
LINE
  5
1B6
100
AcDbEntity
100
AcDbLine
  8
0
 62
0
370
-1
 48
1.0
  6
Continuous
 10
-1.0
 20
0.0
 30
0.0
 11
1.0
 21
0.0
 31
0.0
  0
LINE
  5
1B7
100
AcDbEntity
100
AcDbLine
  8
0
 62
0
370
-1
 48
1.0
  6
Continuous
 10
0.0
 20
-1.0
 30
0.0
 11
0.0
 21
1.0
 31
0.0
  0
CIRCLE
  5
1B8
100
AcDbEntity
100
AcDbCircle
  8
0
 62
0
370
-1
 48
1.0
  6
Continuous
 10
0.0
 20
0.0
 30
0.0
 40
1.0
  0
ENDBLK
  5
1B9
100
AcDbEntity
  8
0
100
AcDbBlockEnd
  0
BLOCK
  5
1BA
100
AcDbEntity
  8
0
100
AcDbBlockBegin
  2
VKT_ik5_11_2
 70
0
 10
0.0
 20
0.0
 30
0.0
  3
VKT_ik5_11_2
  1

  0
LINE
  5
1BB
100
AcDbEntity
100
AcDbLine
  8
0
 62
0
370
-1
 48
0.5
  6
Continuous
 10
0.0
 20
0.0
 30
0.0
 11
4.0
 21
0.0000000000218279
 31
0.0
  0
ENDBLK
  5
1BC
100
AcDbEntity
  8
0
100
AcDbBlockEnd
  0
ENDSEC
  0
SECTION
  2
ENTITIES
  0
LWPOLYLINE
  5
1BD
  8
PIIR
 62
256
370
-1
 48
1.0
  6
KATASTRIPIIR
100
AcDbEntity
100
AcDbPolyline
 90
17
 70
0
 10
532637.7550550900632516
 20
6580605.8067589718848467
 30
0.0
 10
532651.9397723803995177
 20
6580610.6911689387634397
 30
0.0
 10
532656.5008988041663542
 20
6580597.4550015944987535
 30
0.0
 10
532654.2890680842101574
 20
6580594.5772852571681142
 30
0.0
 10
532669.2910999414743856
 20
6580551.1505920439958572
 30
0.0
 10
532675.5336526694009081
 20
6580553.3071222323924303
 30
0.0
 10
532677.4847290875623003
 20
6580547.6338017154484987
 30
0.0
 10
532671.2453664874192327
 20
6580545.4819981763139367
 30
0.0
 10
532691.4681024156743661
 20
6580486.8235301291570067
 30
0.0
 10
532696.475852390518412
 20
6580487.3690331494435668
 30
0.0
 10
532715.7970170496264473
 20
6580498.512187254615128
 30
0.0
 10
532716.4499999999534339
 20
6580496.5800000000745058
 30
0.0
 10
532649.6599999972386286
 20
6580458.0600000079721212
 30
0.0
 10
532648.8863441027933732
 20
6580460.3043556623160839
 30
0.0
 10
532678.0364806423895061
 20
6580476.7344381539151073
 30
0.0
 10
532680.9986127561423928
 20
6580480.3736397940665483
 30
0.0
 10
532637.756331529119052
 20
6580605.803056507371366
 30
0.0
  0
LWPOLYLINE
  5
1BE
  8
PIIR
 62
256
370
-1
 48
1.0
  6
KATASTRIPIIR
100
AcDbEntity
100
AcDbPolyline
 90
3
 70
0
 10
532634.5416150219971314
 20
6580439.7590531753376126
 30
0.0
 10
532652.5100000000093132
 20
6580449.6600000001490116
 30
0.0
 10
532649.6600000000325963
 20
6580458.0599999995902181
 30
0.0
  0
LWPOLYLINE
  5
1BF
  8
PIIR
 62
256
370
-1
 48
1.0
  6
KATASTRIPIIR
100
AcDbEntity
100
AcDbPolyline
 90
2
 70
0
 10
532602.8699999999953434
 20
6580593.7800000002607703
 30
0.0
 10
532598.8880665749311447
 20
6580605.2906767213717103
 30
0.0
  0
LWPOLYLINE
  5
1C0
  8
PIIR
 62
256
370
-1
 48
1.0
  6
KATASTRIPIIR
100
AcDbEntity
100
AcDbPolyline
 90
3
 70
0
 10
532686.3347374523291364
 20
6580446.3560910644009709
 30
0.0
 10
532680.1700000000419095
 20
6580464.7300000004470348
 30
0.0
 10
532634.5893607148900628
 20
6580439.6357062887400389
 30
0.0
  0
LINE
  5
1C1
100
AcDbEntity
100
AcDbLine
  8
PIIR
 62
256
370
-1
 48
1.0
  6
KATASTRIPIIR
 10
532671.5319000427844003
 20
6580629.3887732839211822
 30
0.0
 11
532675.1700000000419095
 21
6580618.7000000001862645
 31
0.0
  0
INSERT
  5
1C2
100
AcDbEntity
100
AcDbBlockReference
  8
vork
 62
256
370
-1
 48
1.0
  6
Continuous
  2
VKORIS
 10
532600.0
 20
6580450.0
 30
0.0
 41
0.5
 42
0.5
 43
1.0
  0
INSERT
  5
1C3
100
AcDbEntity
100
AcDbBlockReference
  8
vork
 62
256
370
-1
 48
1.0
  6
Continuous
  2
VKORIS
 10
532650.0
 20
6580450.0
 30
0.0
 41
0.5
 42
0.5
 43
1.0
  0
INSERT
  5
1C4
100
AcDbEntity
100
AcDbBlockReference
  8
vork
 62
256
370
-1
 48
1.0
  6
Continuous
  2
VKORIS
 10
532700.0
 20
6580450.0
 30
0.0
 41
0.5
 42
0.5
 43
1.0
  0
INSERT
  5
1C5
100
AcDbEntity
100
AcDbBlockReference
  8
vork
 62
256
370
-1
 48
1.0
  6
Continuous
  2
VKORIS
 10
532600.0
 20
6580500.0
 30
0.0
 41
0.5
 42
0.5
 43
1.0
  0
INSERT
  5
1C6
100
AcDbEntity
100
AcDbBlockReference
  8
vork
 62
256
370
-1
 48
1.0
  6
Continuous
  2
VKORIS
 10
532650.0
 20
6580500.0
 30
0.0
 41
0.5
 42
0.5
 43
1.0
  0
INSERT
  5
1C7
100
AcDbEntity
100
AcDbBlockReference
  8
vork
 62
256
370
-1
 48
1.0
  6
Continuous
  2
VKORIS
 10
532700.0
 20
6580500.0
 30
0.0
 41
0.5
 42
0.5
 43
1.0
  0
INSERT
  5
1C8
100
AcDbEntity
100
AcDbBlockReference
  8
vork
 62
256
370
-1
 48
1.0
  6
Continuous
  2
VKORIS
 10
532600.0
 20
6580550.0
 30
0.0
 41
0.5
 42
0.5
 43
1.0
  0
INSERT
  5
1C9
100
AcDbEntity
100
AcDbBlockReference
  8
vork
 62
256
370
-1
 48
1.0
  6
Continuous
  2
VKORIS
 10
532650.0
 20
6580550.0
 30
0.0
 41
0.5
 42
0.5
 43
1.0
  0
INSERT
  5
1CA
100
AcDbEntity
100
AcDbBlockReference
  8
vork
 62
256
370
-1
 48
1.0
  6
Continuous
  2
VKORIS
 10
532700.0
 20
6580550.0
 30
0.0
 41
0.5
 42
0.5
 43
1.0
  0
INSERT
  5
1CB
100
AcDbEntity
100
AcDbBlockReference
  8
vork
 62
256
370
-1
 48
1.0
  6
Continuous
  2
VKORIS
 10
532600.0
 20
6580600.0
 30
0.0
 41
0.5
 42
0.5
 43
1.0
  0
INSERT
  5
1CC
100
AcDbEntity
100
AcDbBlockReference
  8
vork
 62
256
370
-1
 48
1.0
  6
Continuous
  2
VKORIS
 10
532650.0
 20
6580600.0
 30
0.0
 41
0.5
 42
0.5
 43
1.0
  0
INSERT
  5
1CD
100
AcDbEntity
100
AcDbBlockReference
  8
vork
 62
256
370
-1
 48
1.0
  6
Continuous
  2
VKORIS
 10
532700.0
 20
6580600.0
 30
0.0
 41
0.5
 42
0.5
 43
1.0
  0
POINT
  5
1CE
100
AcDbEntity
100
AcDbPoint
  8
PIIR
 62
256
370
-1
 48
1.0
  6
Continuous
 10
532625.0200000000186265
 20
6580529.5400000000372529
 30
0.0
  0
POINT
  5
1CF
100
AcDbEntity
100
AcDbPoint
  8
PIIR
 62
256
370
-1
 48
1.0
  6
Continuous
 10
532602.8699999999953434
 20
6580593.7800000002607703
 30
0.0
  0
POINT
  5
1D0
100
AcDbEntity
100
AcDbPoint
  8
PIIR
 62
256
370
-1
 48
1.0
  6
Continuous
 10
532675.1700000000419095
 20
6580618.7000000001862645
 30
0.0
  0
POINT
  5
1D1
100
AcDbEntity
100
AcDbPoint
  8
PIIR
 62
256
370
-1
 48
1.0
  6
Continuous
 10
532649.6600000000325963
 20
6580458.0599999995902181
 30
0.0
  0
TEXT
  5
1D2
100
AcDbEntity
100
AcDbText
  8
PIIR
 62
256
370
-1
 48
1.0
  6
KATASTRIPIIR
 10
532634.1287713045021519
 20
6580614.560011831112206
 30
0.0
 40
0.9
  1
Kanika 4
 50
0.0
 41
1.0
  7
textstyle16
 71
0
 72
0
 11
532634.1287713045021519
 21
6580614.560011831112206
 31
0.0
100
AcDbText
 73
0
  0
TEXT
  5
1D3
100
AcDbEntity
100
AcDbText
  8
PIIR
 62
256
370
-1
 48
1.0
  6
KATASTRIPIIR
 10
532631.1839669406181201
 20
6580612.959138834849
 30
0.0
 40
0.9
  1
72701:002:1016
 50
0.0
 41
1.0
  7
textstyle17
 71
0
 72
0
 11
532631.1839669406181201
 21
6580612.959138834849
 31
0.0
100
AcDbText
 73
0
  0
TEXT
  5
1D4
100
AcDbEntity
100
AcDbText
  8
PIIR
 62
256
370
-1
 48
1.0
  6
KATASTRIPIIR
 10
532666.4535861688200384
 20
6580441.2878514872863889
 30
0.0
 40
0.9
  1
Kurraj\U+00f5e
 50
0.0
 41
1.0
  7
textstyle18
 71
0
 72
0
 11
532666.4535861688200384
 21
6580441.2878514872863889
 31
0.0
100
AcDbText
 73
0
  0
TEXT
  5
1D5
100
AcDbEntity
100
AcDbText
  8
PIIR
 62
256
370
-1
 48
1.0
  6
KATASTRIPIIR
 10
532663.6515236808918417
 20
6580439.7238579774275422
 30
0.0
 40
0.9
  1
72701:002:0491
 50
0.0
 41
1.0
  7
textstyle19
 71
0
 72
0
 11
532663.6515236808918417
 21
6580439.7238579774275422
 31
0.0
100
AcDbText
 73
0
  0
POINT
  5
1D6
100
AcDbEntity
100
AcDbPoint
  8
PIIR
 62
256
370
-1
 48
1.0
  6
Continuous
 10
532683.8399999999674037
 20
6580593.0700000002980232
 30
0.0
  0
LWPOLYLINE
  5
1D7
  8
PIIR
 62
256
370
-1
 48
1.0
  6
KATASTRIPIIR
100
AcDbEntity
100
AcDbPolyline
 90
6
 70
1
 10
532637.7550550900632516
 20
6580605.8067589718848467
 30
0.0
 10
532652.6639123684726655
 20
6580562.561832495033741
 30
0.0
 10
532617.7763249836862087
 20
6580550.5424187481403351
 30
0.0
 10
532602.8699999999953434
 20
6580593.7800000002607703
 30
0.0
 10
532637.7550550900632516
 20
6580605.8067589718848467
 30
0.0
 10
532637.7550550900632516
 20
6580605.8067589718848467
 30
0.0
  0
LWPOLYLINE
  5
1D8
  8
PIIR
 62
256
370
-1
 48
1.0
  6
KATASTRIPIIR
100
AcDbEntity
100
AcDbPolyline
 90
4
 70
1
 10
532617.7763249836862087
 20
6580550.5424187481403351
 30
0.0
 10
532652.6639123684726655
 20
6580562.561832495033741
 30
0.0
 10
532667.5300104162888601
 20
6580519.4409342808648944
 30
0.0
 10
532632.645052366075106
 20
6580507.41389384213835
 30
0.0
  0
LWPOLYLINE
  5
1D9
  8
PIIR
 62
256
370
-1
 48
1.0
  6
KATASTRIPIIR
100
AcDbEntity
100
AcDbPolyline
 90
4
 70
0
 10
532671.8124203719198704
 20
6580545.6780854221433401
 30
0.0
 10
532677.4847338765393943
 20
6580547.6338033666834235
 30
0.0
 10
532675.5350010792026296
 20
6580553.3032013466581702
 30
0.0
 10
532669.2910999414743856
 20
6580551.1505920439958572
 30
0.0
  0
LWPOLYLINE
  5
1DA
  8
PIIR
 62
256
370
-1
 48
1.0
  6
KATASTRIPIIR
100
AcDbEntity
100
AcDbPolyline
 90
11
 70
1
 10
532651.9397723803995177
 20
6580610.6911689387634397
 30
0.0
 10
532675.1743309170706198
 20
6580618.6871903575956821
 30
0.0
 10
532676.4200000189011917
 20
6580614.9914937634021044
 30
0.0
 10
532683.7717385644791648
 20
6580593.017124024219811
 30
0.0
 10
532691.3917633963283151
 20
6580570.7205564249306917
 30
0.0
 10
532696.9300000000512227
 20
6580554.3399999998509884
 30
0.0
 10
532677.4847338765393943
 20
6580547.6338033666834235
 30
0.0
 10
532675.5350010805996135
 20
6580553.3032013466581702
 30
0.0
 10
532669.2747193691320717
 20
6580551.1449447805061936
 30
0.0
 10
532654.2890680842101574
 20
6580594.5772852571681142
 30
0.0
 10
532656.5008988041663542
 20
6580597.4550015944987535
 30
0.0
  0
LWPOLYLINE
  5
1DB
  8
PIIR
 62
256
370
-1
 48
1.0
  6
KATASTRIPIIR
100
AcDbEntity
100
AcDbPolyline
 90
5
 70
1
 10
532632.6445890821050853
 20
6580507.4137341193854809
 30
0.0
 10
532667.5300104162888601
 20
6580519.4409342808648944
 30
0.0
 10
532680.9986127561423928
 20
6580480.3736397940665483
 30
0.0
 10
532678.0364806423895061
 20
6580476.7344381539151073
 30
0.0
 10
532648.8862649929942563
 20
6580460.304311073385179
 30
0.0
  0
LWPOLYLINE
  5
1DC
  8
PIIR
 62
256
370
-1
 48
1.0
  6
KATASTRIPIIR
100
AcDbEntity
100
AcDbPolyline
 90
6
 70
1
 10
532671.2453664874192327
 20
6580545.4819981763139367
 30
0.0
 10
532696.9299989540595561
 20
6580554.3399996384978294
 30
0.0
 10
532698.9800023434218019
 20
6580548.2699930621311069
 30
0.0
 10
532715.7967190721537918
 20
6580498.5120154013857245
 30
0.0
 10
532696.4758523909840733
 20
6580487.3690331494435668
 30
0.0
 10
532691.4681024156743661
 20
6580486.8235301291570067
 30
0.0
  0
TEXT
  5
1DD
100
AcDbEntity
100
AcDbText
  8
PIIR
 62
256
370
-1
 48
1.0
  6
KATASTRIPIIR
 10
532618.0960720416624099
 20
6580586.9315396854653955
 30
0.0
 40
0.9
  1
Kiivitaja tee 5
 50
0.0
 41
1.0
  7
textstyle20
 71
0
 72
0
 11
532618.0960720416624099
 21
6580586.9315396854653955
 31
0.0
100
AcDbText
 73
0
  0
TEXT
  5
1DE
100
AcDbEntity
100
AcDbText
  8
PIIR
 62
256
370
-1
 48
1.0
  6
KATASTRIPIIR
 10
532617.3280275486176834
 20
6580585.535809762775898
 30
0.0
 40
0.9
  1
72701:002:2217
 50
0.0
 41
1.0
  7
textstyle21
 71
0
 72
0
 11
532617.3280275486176834
 21
6580585.535809762775898
 31
0.0
100
AcDbText
 73
0
  0
TEXT
  5
1DF
100
AcDbEntity
100
AcDbText
  8
PIIR
 62
256
370
-1
 48
1.0
  6
KATASTRIPIIR
 10
532634.7120678384089842
 20
6580535.118687373585999
 30
0.0
 40
0.9
  1
Kiivitaja tee 3
 50
0.0
 41
1.0
  7
textstyle22
 71
0
 72
0
 11
532634.7120678384089842
 21
6580535.118687373585999
 31
0.0
100
AcDbText
 73
0
  0
TEXT
  5
1E0
100
AcDbEntity
100
AcDbText
  8
PIIR
 62
256
370
-1
 48
1.0
  6
KATASTRIPIIR
 10
532633.9091725256294012
 20
6580533.5890916241332889
 30
0.0
 40
0.9
  1
72701:002:2216
 50
0.0
 41
1.0
  7
textstyle23
 71
0
 72
0
 11
532633.9091725256294012
 21
6580533.5890916241332889
 31
0.0
100
AcDbText
 73
0
  0
TEXT
  5
1E1
100
AcDbEntity
100
AcDbText
  8
PIIR
 62
256
370
-1
 48
1.0
  6
KATASTRIPIIR
 10
532647.8753687968710437
 20
6580495.6801209365949035
 30
0.0
 40
0.9
  1
Kiivitaja tee 1
 50
0.0
 41
1.0
  7
textstyle24
 71
0
 72
0
 11
532647.8753687968710437
 21
6580495.6801209365949035
 31
0.0
100
AcDbText
 73
0
  0
TEXT
  5
1E2
100
AcDbEntity
100
AcDbText
  8
PIIR
 62
256
370
-1
 48
1.0
  6
KATASTRIPIIR
 10
532647.1181779114995152
 20
6580494.1792336506769061
 30
0.0
 40
0.9
  1
72701:002:2221
 50
0.0
 41
1.0
  7
textstyle25
 71
0
 72
0
 11
532647.1181779114995152
 21
6580494.1792336506769061
 31
0.0
100
AcDbText
 73
0
  0
TEXT
  5
1E3
100
AcDbEntity
100
AcDbText
  8
PIIR
 62
256
370
-1
 48
1.0
  6
KATASTRIPIIR
 10
532684.6549239485757425
 20
6580538.5572622548788786
 30
0.0
 40
0.9
  1
Kiivitaja tee 2
 50
0.0
 41
1.0
  7
textstyle26
 71
0
 72
0
 11
532684.6549239485757425
 21
6580538.5572622548788786
 31
0.0
100
AcDbText
 73
0
  0
TEXT
  5
1E4
100
AcDbEntity
100
AcDbText
  8
PIIR
 62
256
370
-1
 48
1.0
  6
KATASTRIPIIR
 10
532683.9141388706630096
 20
6580537.131165093742311
 30
0.0
 40
0.9
  1
72701:002:2218
 50
0.0
 41
1.0
  7
textstyle27
 71
0
 72
0
 11
532683.9141388706630096
 21
6580537.131165093742311
 31
0.0
100
AcDbText
 73
0
  0
TEXT
  5
1E5
100
AcDbEntity
100
AcDbText
  8
PIIR
 62
256
370
-1
 48
1.0
  6
KATASTRIPIIR
 10
532667.9859772083582357
 20
6580591.5065696435049176
 30
0.0
 40
0.9
  1
Kiivitaja tee 4
 50
0.0
 41
1.0
  7
textstyle28
 71
0
 72
0
 11
532667.9859772083582357
 21
6580591.5065696435049176
 31
0.0
100
AcDbText
 73
0
  0
TEXT
  5
1E6
100
AcDbEntity
100
AcDbText
  8
PIIR
 62
256
370
-1
 48
1.0
  6
KATASTRIPIIR
 10
532667.557929168920964
 20
6580590.1723461570218205
 30
0.0
 40
0.9
  1
72701:002:2219
 50
0.0
 41
1.0
  7
textstyle29
 71
0
 72
0
 11
532667.557929168920964
 21
6580590.1723461570218205
 31
0.0
100
AcDbText
 73
0
  0
TEXT
  5
1E7
100
AcDbEntity
100
AcDbText
  8
PIIR
 62
256
370
-1
 48
1.0
  6
KATASTRIPIIR
 10
532650.6229448080994189
 20
6580607.8623098228126764
 30
0.0
 40
0.9
  1
Kiivitaja tee
 50
289.0218329665939336
 41
1.0
  7
textstyle30
 71
0
 72
0
 11
532650.6229448080994189
 21
6580607.8623098228126764
 31
0.0
100
AcDbText
 73
0
  0
TEXT
  5
1E8
100
AcDbEntity
100
AcDbText
  8
PIIR
 62
256
370
-1
 48
1.0
  6
KATASTRIPIIR
 10
532649.0731881891842932
 20
6580608.520189412869513
 30
0.0
 40
0.9
  1
72701:002:2215
 50
289.0218329665939336
 41
1.0
  7
textstyle31
 71
0
 72
0
 11
532649.0731881891842932
 21
6580608.520189412869513
 31
0.0
100
AcDbText
 73
0
  0
TEXT
  5
1E9
100
AcDbEntity
100
AcDbText
  8
PIIR
 62
256
370
-1
 48
1.0
  6
KATASTRIPIIR
 10
532658.5445937477052212
 20
6580457.9619946423918009
 30
0.0
 40
0.9
  1
Kotka tee L12
 50
30.2241214023751148
 41
1.0
  7
textstyle32
 71
0
 72
0
 11
532658.5445937477052212
 21
6580457.9619946423918009
 31
0.0
100
AcDbText
 73
0
  0
TEXT
  5
1EA
100
AcDbEntity
100
AcDbText
  8
PIIR
 62
256
370
-1
 48
1.0
  6
KATASTRIPIIR
 10
532658.7149636975955218
 20
6580456.6637067478150129
 30
0.0
 40
0.9
  1
72701:002:1982
 50
30.2241214023751148
 41
1.0
  7
textstyle33
 71
0
 72
0
 11
532658.7149636975955218
 21
6580456.6637067478150129
 31
0.0
100
AcDbText
 73
0
  0
LWPOLYLINE
  5
1EB
  8
PIIR
 62
256
370
-1
 48
1.0
  6
KATASTRIPIIR
100
AcDbEntity
100
AcDbPolyline
 90
2
 70
0
 10
532721.0600000000558794
 20
6580483.7999999998137355
 30
0.0
 10
532681.3508984977379441
 20
6580461.2103494666516781
 30
0.0
  0
TEXT
  5
1EC
100
AcDbEntity
100
AcDbText
  8
mootnr
 62
256
370
-1
 48
1.0
  6
ByLayer
 10
532692.7480000000214204
 20
6580482.3126666666939855
 30
0.0
 40
0.02
  1
 P1
 50
0.0
 41
1.0
  7
textstyle34
 71
0
 72
0
 11
532692.7480000000214204
 21
6580482.3059999998658895
 31
0.0
100
AcDbText
 73
1
  0
CIRCLE
  5
1ED
100
AcDbEntity
100
AcDbCircle
  8
mootmpunkt
 62
256
370
-1
 48
1.0
  6
ByLayer
 10
532692.7480000000214204
 20
6580482.3059999998658895
 30
0.0
 40
0.1
  0
TEXT
  5
1EE
100
AcDbEntity
100
AcDbText
  8
mootnr
 62
256
370
-1
 48
1.0
  6
ByLayer
 10
532670.0139999999664724
 20
6580454.9196666665375233
 30
0.0
 40
0.02
  1
 P2
 50
0.0
 41
1.0
  7
textstyle35
 71
0
 72
0
 11
532670.0139999999664724
 21
6580454.9129999997094274
 31
0.0
100
AcDbText
 73
1
  0
CIRCLE
  5
1EF
100
AcDbEntity
100
AcDbCircle
  8
mootmpunkt
 62
256
370
-1
 48
1.0
  6
ByLayer
 10
532670.0139999999664724
 20
6580454.9129999997094274
 30
0.0
 40
0.1
  0
TEXT
  5
1F0
100
AcDbEntity
100
AcDbText
  8
mootkorg
 62
256
370
-1
 48
1.0
  6
ByLayer
 10
532670.0139999999664724
 20
6580454.8930000001564622
 30
0.0
 40
0.02
  1
 27.23
 50
0.0
 41
1.0
  7
textstyle36
 71
0
 72
0
 11
532670.0139999999664724
 21
6580454.9129999997094274
 31
0.0
100
AcDbText
 73
3
  0
TEXT
  5
1F1
100
AcDbEntity
100
AcDbText
  8
mootnr
 62
256
370
-1
 48
1.0
  6
ByLayer
 10
532675.3599999999860302
 20
6580485.7326666666194797
 30
0.0
 40
0.02
  1
 Y1
 50
0.0
 41
1.0
  7
textstyle37
 71
0
 72
0
 11
532675.3599999999860302
 21
6580485.7259999997913837
 31
0.0
100
AcDbText
 73
1
  0
CIRCLE
  5
1F2
100
AcDbEntity
100
AcDbCircle
  8
mootmpunkt
 62
256
370
-1
 48
1.0
  6
ByLayer
 10
532675.3599999999860302
 20
6580485.7259999997913837
 30
0.0
 40
0.1
  0
TEXT
  5
1F3
100
AcDbEntity
100
AcDbText
  8
mootkorg
 62
256
370
-1
 48
1.0
  6
ByLayer
 10
532675.3599999999860302
 20
6580485.7060000002384186
 30
0.0
 40
0.02
  1
 29.5
 50
0.0
 41
1.0
  7
textstyle38
 71
0
 72
0
 11
532675.3599999999860302
 21
6580485.7259999997913837
 31
0.0
100
AcDbText
 73
3
  0
TEXT
  5
1F4
100
AcDbEntity
100
AcDbText
  8
mootnr
 62
256
370
-1
 48
1.0
  6
ByLayer
 10
532691.6330000000307336
 20
6580471.5536666670814157
 30
0.0
 40
0.02
  1
 28.54
 50
0.0
 41
1.0
  7
textstyle39
 71
0
 72
0
 11
532691.6330000000307336
 21
6580471.5470000002533197
 31
0.0
100
AcDbText
 73
1
  0
CIRCLE
  5
1F5
100
AcDbEntity
100
AcDbCircle
  8
mootmpunkt
 62
256
370
-1
 48
1.0
  6
ByLayer
 10
532691.6330000000307336
 20
6580471.5470000002533197
 30
0.0
 40
0.1
  0
TEXT
  5
1F6
100
AcDbEntity
100
AcDbText
  8
mootkorg
 62
256
370
-1
 48
1.0
  6
ByLayer
 10
532691.6330000000307336
 20
6580471.5270000007003546
 30
0.0
 40
0.02
  1
 28.54
 50
0.0
 41
1.0
  7
textstyle40
 71
0
 72
0
 11
532691.6330000000307336
 21
6580471.5470000002533197
 31
0.0
100
AcDbText
 73
3
  0
TEXT
  5
1F7
100
AcDbEntity
100
AcDbText
  8
mootnr
 62
256
370
-1
 48
1.0
  6
ByLayer
 10
532697.4150000000372529
 20
6580471.0256666671484709
 30
0.0
 40
0.02
  1
 TO1
 50
0.0
 41
1.0
  7
textstyle41
 71
0
 72
0
 11
532697.4150000000372529
 21
6580471.019000000320375
 31
0.0
100
AcDbText
 73
1
  0
CIRCLE
  5
1F8
100
AcDbEntity
100
AcDbCircle
  8
mootmpunkt
 62
256
370
-1
 48
1.0
  6
ByLayer
 10
532697.4150000000372529
 20
6580471.019000000320375
 30
0.0
 40
0.1
  0
TEXT
  5
1F9
100
AcDbEntity
100
AcDbText
  8
mootkorg
 62
256
370
-1
 48
1.0
  6
ByLayer
 10
532697.4150000000372529
 20
6580470.9990000007674098
 30
0.0
 40
0.02
  1
 26.67
 50
0.0
 41
1.0
  7
textstyle42
 71
0
 72
0
 11
532697.4150000000372529
 21
6580471.019000000320375
 31
0.0
100
AcDbText
 73
3
  0
CIRCLE
  5
1FA
100
AcDbEntity
100
AcDbCircle
  8
mootmpunkt
 62
256
370
-1
 48
1.0
  6
ByLayer
 10
532692.6750000000465661
 20
6580482.2330000000074506
 30
0.0
 40
0.1
  0
TEXT
  5
1FB
100
AcDbEntity
100
AcDbText
  8
mootnr
 62
256
370
-1
 48
1.0
  6
ByLayer
 10
532690.1890000000130385
 20
6580482.9586666664108634
 30
0.0
 40
0.02
  1
 4
 50
0.0
 41
1.0
  7
textstyle43
 71
0
 72
0
 11
532690.1890000000130385
 21
6580482.9519999995827675
 31
0.0
100
AcDbText
 73
1
  0
CIRCLE
  5
1FC
100
AcDbEntity
100
AcDbCircle
  8
mootmpunkt
 62
256
370
-1
 48
1.0
  6
ByLayer
 10
532690.1890000000130385
 20
6580482.9519999995827675
 30
0.0
 40
0.1
  0
TEXT
  5
1FD
100
AcDbEntity
100
AcDbText
  8
mootkorg
 62
256
370
-1
 48
1.0
  6
ByLayer
 10
532690.1890000000130385
 20
6580482.9320000000298023
 30
0.0
 40
0.02
  1
 26.47
 50
0.0
 41
1.0
  7
textstyle44
 71
0
 72
0
 11
532690.1890000000130385
 21
6580482.9519999995827675
 31
0.0
100
AcDbText
 73
3
  0
TEXT
  5
1FE
100
AcDbEntity
100
AcDbText
  8
mootnr
 62
256
370
-1
 48
1.0
  6
ByLayer
 10
532692.2439999999478459
 20
6580481.6036666668951511
 30
0.0
 40
0.02
  1
 5
 50
0.0
 41
1.0
  7
textstyle45
 71
0
 72
0
 11
532692.2439999999478459
 21
6580481.5970000000670552
 31
0.0
100
AcDbText
 73
1
  0
CIRCLE
  5
1FF
100
AcDbEntity
100
AcDbCircle
  8
mootmpunkt
 62
256
370
-1
 48
1.0
  6
ByLayer
 10
532692.2439999999478459
 20
6580481.5970000000670552
 30
0.0
 40
0.1
  0
TEXT
  5
200
100
AcDbEntity
100
AcDbText
  8
mootkorg
 62
256
370
-1
 48
1.0
  6
ByLayer
 10
532692.2439999999478459
 20
6580481.5770000005140901
 30
0.0
 40
0.02
  1
 28.15
 50
0.0
 41
1.0
  7
textstyle46
 71
0
 72
0
 11
532692.2439999999478459
 21
6580481.5970000000670552
 31
0.0
100
AcDbText
 73
3
  0
TEXT
  5
201
100
AcDbEntity
100
AcDbText
  8
mootnr
 62
256
370
-1
 48
1.0
  6
ByLayer
 10
532678.0990000000456348
 20
6580495.7016666671261191
 30
0.0
 40
0.02
  1
 6
 50
0.0
 41
1.0
  7
textstyle47
 71
0
 72
0
 11
532678.0990000000456348
 21
6580495.6950000002980232
 31
0.0
100
AcDbText
 73
1
  0
CIRCLE
  5
202
100
AcDbEntity
100
AcDbCircle
  8
mootmpunkt
 62
256
370
-1
 48
1.0
  6
ByLayer
 10
532678.0990000000456348
 20
6580495.6950000002980232
 30
0.0
 40
0.1
  0
TEXT
  5
203
100
AcDbEntity
100
AcDbText
  8
mootkorg
 62
256
370
-1
 48
1.0
  6
ByLayer
 10
532678.0990000000456348
 20
6580495.6750000007450581
 30
0.0
 40
0.02
  1
 26.67
 50
0.0
 41
1.0
  7
textstyle48
 71
0
 72
0
 11
532678.0990000000456348
 21
6580495.6950000002980232
 31
0.0
100
AcDbText
 73
3
  0
TEXT
  5
204
100
AcDbEntity
100
AcDbText
  8
mootnr
 62
256
370
-1
 48
1.0
  6
ByLayer
 10
532678.0709999999962747
 20
6580495.7856666669249535
 30
0.0
 40
0.02
  1
 7
 50
0.0
 41
1.0
  7
textstyle49
 71
0
 72
0
 11
532678.0709999999962747
 21
6580495.7790000000968575
 31
0.0
100
AcDbText
 73
1
  0
CIRCLE
  5
205
100
AcDbEntity
100
AcDbCircle
  8
mootmpunkt
 62
256
370
-1
 48
1.0
  6
ByLayer
 10
532678.0709999999962747
 20
6580495.7790000000968575
 30
0.0
 40
0.1
  0
TEXT
  5
206
100
AcDbEntity
100
AcDbText
  8
mootkorg
 62
256
370
-1
 48
1.0
  6
ByLayer
 10
532678.0709999999962747
 20
6580495.7590000005438924
 30
0.0
 40
0.02
  1
 26.72
 50
0.0
 41
1.0
  7
textstyle50
 71
0
 72
0
 11
532678.0709999999962747
 21
6580495.7790000000968575
 31
0.0
100
AcDbText
 73
3
  0
TEXT
  5
207
100
AcDbEntity
100
AcDbText
  8
mootnr
 62
256
370
-1
 48
1.0
  6
ByLayer
 10
532678.1239999999525025
 20
6580495.6636666664853692
 30
0.0
 40
0.02
  1
 8
 50
0.0
 41
1.0
  7
textstyle51
 71
0
 72
0
 11
532678.1239999999525025
 21
6580495.6569999996572733
 31
0.0
100
AcDbText
 73
1
  0
CIRCLE
  5
208
100
AcDbEntity
100
AcDbCircle
  8
mootmpunkt
 62
256
370
-1
 48
1.0
  6
ByLayer
 10
532678.1239999999525025
 20
6580495.6569999996572733
 30
0.0
 40
0.1
  0
TEXT
  5
209
100
AcDbEntity
100
AcDbText
  8
mootkorg
 62
256
370
-1
 48
1.0
  6
ByLayer
 10
532678.1239999999525025
 20
6580495.6370000001043081
 30
0.0
 40
0.02
  1
 26.73
 50
0.0
 41
1.0
  7
textstyle52
 71
0
 72
0
 11
532678.1239999999525025
 21
6580495.6569999996572733
 31
0.0
100
AcDbText
 73
3
  0
TEXT
  5
20A
100
AcDbEntity
100
AcDbText
  8
mootnr
 62
256
370
-1
 48
1.0
  6
ByLayer
 10
532678.0629999999655411
 20
6580495.6146666668355465
 30
0.0
 40
0.02
  1
 9
 50
0.0
 41
1.0
  7
textstyle53
 71
0
 72
0
 11
532678.0629999999655411
 21
6580495.6080000000074506
 31
0.0
100
AcDbText
 73
1
  0
CIRCLE
  5
20B
100
AcDbEntity
100
AcDbCircle
  8
mootmpunkt
 62
256
370
-1
 48
1.0
  6
ByLayer
 10
532678.0629999999655411
 20
6580495.6080000000074506
 30
0.0
 40
0.1
  0
TEXT
  5
20C
100
AcDbEntity
100
AcDbText
  8
mootkorg
 62
256
370
-1
 48
1.0
  6
ByLayer
 10
532678.0629999999655411
 20
6580495.5880000004544854
 30
0.0
 40
0.02
  1
 26.71
 50
0.0
 41
1.0
  7
textstyle54
 71
0
 72
0
 11
532678.0629999999655411
 21
6580495.6080000000074506
 31
0.0
100
AcDbText
 73
3
  0
TEXT
  5
20D
100
AcDbEntity
100
AcDbText
  8
mootnr
 62
256
370
-1
 48
1.0
  6
ByLayer
 10
532677.9690000000409782
 20
6580494.8026666669175029
 30
0.0
 40
0.02
  1
 10
 50
0.0
 41
1.0
  7
textstyle55
 71
0
 72
0
 11
532677.9690000000409782
 21
6580494.796000000089407
 31
0.0
100
AcDbText
 73
1
  0
CIRCLE
  5
20E
100
AcDbEntity
100
AcDbCircle
  8
mootmpunkt
 62
256
370
-1
 48
1.0
  6
ByLayer
 10
532677.9690000000409782
 20
6580494.796000000089407
 30
0.0
 40
0.1
  0
TEXT
  5
20F
100
AcDbEntity
100
AcDbText
  8
mootkorg
 62
256
370
-1
 48
1.0
  6
ByLayer
 10
532677.9690000000409782
 20
6580494.7760000005364418
 30
0.0
 40
0.02
  1
 26.49
 50
0.0
 41
1.0
  7
textstyle56
 71
0
 72
0
 11
532677.9690000000409782
 21
6580494.796000000089407
 31
0.0
100
AcDbText
 73
3
  0
TEXT
  5
210
100
AcDbEntity
100
AcDbText
  8
mootnr
 62
256
370
-1
 48
1.0
  6
ByLayer
 10
532677.0559999999823049
 20
6580495.0936666671186686
 30
0.0
 40
0.02
  1
 11
 50
0.0
 41
1.0
  7
textstyle57
 71
0
 72
0
 11
532677.0559999999823049
 21
6580495.0870000002905726
 31
0.0
100
AcDbText
 73
1
  0
CIRCLE
  5
211
100
AcDbEntity
100
AcDbCircle
  8
mootmpunkt
 62
256
370
-1
 48
1.0
  6
ByLayer
 10
532677.0559999999823049
 20
6580495.0870000002905726
 30
0.0
 40
0.1
  0
TEXT
  5
212
100
AcDbEntity
100
AcDbText
  8
mootkorg
 62
256
370
-1
 48
1.0
  6
ByLayer
 10
532677.0559999999823049
 20
6580495.0670000007376075
 30
0.0
 40
0.02
  1
 27.81
 50
0.0
 41
1.0
  7
textstyle58
 71
0
 72
0
 11
532677.0559999999823049
 21
6580495.0870000002905726
 31
0.0
100
AcDbText
 73
3
  0
TEXT
  5
213
100
AcDbEntity
100
AcDbText
  8
mootnr
 62
256
370
-1
 48
1.0
  6
ByLayer
 10
532671.2480000000214204
 20
6580514.1466666664928198
 30
0.0
 40
0.02
  1
 12
 50
0.0
 41
1.0
  7
textstyle59
 71
0
 72
0
 11
532671.2480000000214204
 21
6580514.1399999996647239
 31
0.0
100
AcDbText
 73
1
  0
CIRCLE
  5
214
100
AcDbEntity
100
AcDbCircle
  8
mootmpunkt
 62
256
370
-1
 48
1.0
  6
ByLayer
 10
532671.2480000000214204
 20
6580514.1399999996647239
 30
0.0
 40
0.1
  0
TEXT
  5
215
100
AcDbEntity
100
AcDbText
  8
mootkorg
 62
256
370
-1
 48
1.0
  6
ByLayer
 10
532671.2480000000214204
 20
6580514.1200000001117587
 30
0.0
 40
0.02
  1
 26.62
 50
0.0
 41
1.0
  7
textstyle60
 71
0
 72
0
 11
532671.2480000000214204
 21
6580514.1399999996647239
 31
0.0
100
AcDbText
 73
3
  0
TEXT
  5
216
100
AcDbEntity
100
AcDbText
  8
mootnr
 62
256
370
-1
 48
1.0
  6
ByLayer
 10
532678.640999999945052
 20
6580516.7086666664108634
 30
0.0
 40
0.02
  1
 13
 50
0.0
 41
1.0
  7
textstyle61
 71
0
 72
0
 11
532678.640999999945052
 21
6580516.7019999995827675
 31
0.0
100
AcDbText
 73
1
  0
CIRCLE
  5
217
100
AcDbEntity
100
AcDbCircle
  8
mootmpunkt
 62
256
370
-1
 48
1.0
  6
ByLayer
 10
532678.640999999945052
 20
6580516.7019999995827675
 30
0.0
 40
0.1
  0
TEXT
  5
218
100
AcDbEntity
100
AcDbText
  8
mootkorg
 62
256
370
-1
 48
1.0
  6
ByLayer
 10
532678.640999999945052
 20
6580516.6820000000298023
 30
0.0
 40
0.02
  1
 27.83
 50
0.0
 41
1.0
  7
textstyle62
 71
0
 72
0
 11
532678.640999999945052
 21
6580516.7019999995827675
 31
0.0
100
AcDbText
 73
3
  0
TEXT
  5
219
100
AcDbEntity
100
AcDbText
  8
mootnr
 62
256
370
-1
 48
1.0
  6
ByLayer
 10
532664.5169999999925494
 20
6580533.1866666665300727
 30
0.0
 40
0.02
  1
 14
 50
0.0
 41
1.0
  7
textstyle63
 71
0
 72
0
 11
532664.5169999999925494
 21
6580533.1799999997019768
 31
0.0
100
AcDbText
 73
1
  0
CIRCLE
  5
21A
100
AcDbEntity
100
AcDbCircle
  8
mootmpunkt
 62
256
370
-1
 48
1.0
  6
ByLayer
 10
532664.5169999999925494
 20
6580533.1799999997019768
 30
0.0
 40
0.1
  0
TEXT
  5
21B
100
AcDbEntity
100
AcDbText
  8
mootkorg
 62
256
370
-1
 48
1.0
  6
ByLayer
 10
532664.5169999999925494
 20
6580533.1600000001490116
 30
0.0
 40
0.02
  1
 26.78
 50
0.0
 41
1.0
  7
textstyle64
 71
0
 72
0
 11
532664.5169999999925494
 21
6580533.1799999997019768
 31
0.0
100
AcDbText
 73
3
  0
TEXT
  5
21C
100
AcDbEntity
100
AcDbText
  8
mootnr
 62
256
370
-1
 48
1.0
  6
ByLayer
 10
532651.8880000000353903
 20
6580572.7156666666269302
 30
0.0
 40
0.02
  1
 22
 50
0.0
 41
1.0
  7
textstyle65
 71
0
 72
0
 11
532651.8880000000353903
 21
6580572.7089999997988343
 31
0.0
100
AcDbText
 73
1
  0
CIRCLE
  5
21D
100
AcDbEntity
100
AcDbCircle
  8
mootmpunkt
 62
256
370
-1
 48
1.0
  6
ByLayer
 10
532651.8880000000353903
 20
6580572.7089999997988343
 30
0.0
 40
0.1
  0
TEXT
  5
21E
100
AcDbEntity
100
AcDbText
  8
mootkorg
 62
256
370
-1
 48
1.0
  6
ByLayer
 10
532651.8880000000353903
 20
6580572.6890000002458692
 30
0.0
 40
0.02
  1
 26.76
 50
0.0
 41
1.0
  7
textstyle66
 71
0
 72
0
 11
532651.8880000000353903
 21
6580572.7089999997988343
 31
0.0
100
AcDbText
 73
3
  0
TEXT
  5
21F
100
AcDbEntity
100
AcDbText
  8
mootnr
 62
256
370
-1
 48
1.0
  6
ByLayer
 10
532651.896999999997206
 20
6580572.697666666470468
 30
0.0
 40
0.02
  1
 23
 50
0.0
 41
1.0
  7
textstyle67
 71
0
 72
0
 11
532651.896999999997206
 21
6580572.6909999996423721
 31
0.0
100
AcDbText
 73
1
  0
CIRCLE
  5
220
100
AcDbEntity
100
AcDbCircle
  8
mootmpunkt
 62
256
370
-1
 48
1.0
  6
ByLayer
 10
532651.896999999997206
 20
6580572.6909999996423721
 30
0.0
 40
0.1
  0
TEXT
  5
221
100
AcDbEntity
100
AcDbText
  8
mootkorg
 62
256
370
-1
 48
1.0
  6
ByLayer
 10
532651.896999999997206
 20
6580572.671000000089407
 30
0.0
 40
0.02
  1
 26.8
 50
0.0
 41
1.0
  7
textstyle68
 71
0
 72
0
 11
532651.896999999997206
 21
6580572.6909999996423721
 31
0.0
100
AcDbText
 73
3
  0
TEXT
  5
222
100
AcDbEntity
100
AcDbText
  8
mootnr
 62
256
370
-1
 48
1.0
  6
ByLayer
 10
532651.9710000000195578
 20
6580572.7636666670441628
 30
0.0
 40
0.02
  1
 24
 50
0.0
 41
1.0
  7
textstyle69
 71
0
 72
0
 11
532651.9710000000195578
 21
6580572.7570000002160668
 31
0.0
100
AcDbText
 73
1
  0
CIRCLE
  5
223
100
AcDbEntity
100
AcDbCircle
  8
mootmpunkt
 62
256
370
-1
 48
1.0
  6
ByLayer
 10
532651.9710000000195578
 20
6580572.7570000002160668
 30
0.0
 40
0.1
  0
TEXT
  5
224
100
AcDbEntity
100
AcDbText
  8
mootkorg
 62
256
370
-1
 48
1.0
  6
ByLayer
 10
532651.9710000000195578
 20
6580572.7370000006631017
 30
0.0
 40
0.02
  1
 26.79
 50
0.0
 41
1.0
  7
textstyle70
 71
0
 72
0
 11
532651.9710000000195578
 21
6580572.7570000002160668
 31
0.0
100
AcDbText
 73
3
  0
TEXT
  5
225
100
AcDbEntity
100
AcDbText
  8
mootnr
 62
256
370
-1
 48
1.0
  6
ByLayer
 10
532671.0649999999441206
 20
6580545.5416666669771075
 30
0.0
 40
0.02
  1
 RP1
 50
0.0
 41
1.0
  7
textstyle71
 71
0
 72
0
 11
532671.0649999999441206
 21
6580545.5350000001490116
 31
0.0
100
AcDbText
 73
1
  0
CIRCLE
  5
226
100
AcDbEntity
100
AcDbCircle
  8
mootmpunkt
 62
256
370
-1
 48
1.0
  6
ByLayer
 10
532671.0649999999441206
 20
6580545.5350000001490116
 30
0.0
 40
0.1
  0
TEXT
  5
227
100
AcDbEntity
100
AcDbText
  8
mootkorg
 62
256
370
-1
 48
1.0
  6
ByLayer
 10
532671.0649999999441206
 20
6580545.5150000005960464
 30
0.0
 40
0.02
  1
 27.8
 50
0.0
 41
1.0
  7
textstyle72
 71
0
 72
0
 11
532671.0649999999441206
 21
6580545.5350000001490116
 31
0.0
100
AcDbText
 73
3
  0
TEXT
  5
228
100
AcDbEntity
100
AcDbText
  8
mootnr
 62
256
370
-1
 48
1.0
  6
ByLayer
 10
532669.7040000000270084
 20
6580492.3366666669026017
 30
0.0
 40
0.02
  1
 40
 50
0.0
 41
1.0
  7
textstyle73
 71
0
 72
0
 11
532669.7040000000270084
 21
6580492.3300000000745058
 31
0.0
100
AcDbText
 73
1
  0
CIRCLE
  5
229
100
AcDbEntity
100
AcDbCircle
  8
mootmpunkt
 62
256
370
-1
 48
1.0
  6
ByLayer
 10
532669.7040000000270084
 20
6580492.3300000000745058
 30
0.0
 40
0.1
  0
TEXT
  5
22A
100
AcDbEntity
100
AcDbText
  8
mootkorg
 62
256
370
-1
 48
1.0
  6
ByLayer
 10
532669.7040000000270084
 20
6580492.3100000005215406
 30
0.0
 40
0.02
  1
 26.56
 50
0.0
 41
1.0
  7
textstyle74
 71
0
 72
0
 11
532669.7040000000270084
 21
6580492.3300000000745058
 31
0.0
100
AcDbText
 73
3
  0
TEXT
  5
22B
100
AcDbEntity
100
AcDbText
  8
mootnr
 62
256
370
-1
 48
1.0
  6
ByLayer
 10
532653.7049999999580905
 20
6580484.4756666664034128
 30
0.0
 40
0.02
  1
 TORU PEALT1
 50
0.0
 41
1.0
  7
textstyle75
 71
0
 72
0
 11
532653.7049999999580905
 21
6580484.4689999995753169
 31
0.0
100
AcDbText
 73
1
  0
CIRCLE
  5
22C
100
AcDbEntity
100
AcDbCircle
  8
mootmpunkt
 62
256
370
-1
 48
1.0
  6
ByLayer
 10
532653.7049999999580905
 20
6580484.4689999995753169
 30
0.0
 40
0.1
  0
TEXT
  5
22D
100
AcDbEntity
100
AcDbText
  8
mootkorg
 62
256
370
-1
 48
1.0
  6
ByLayer
 10
532653.7049999999580905
 20
6580484.4490000000223517
 30
0.0
 40
0.02
  1
 26.75
 50
0.0
 41
1.0
  7
textstyle76
 71
0
 72
0
 11
532653.7049999999580905
 21
6580484.4689999995753169
 31
0.0
100
AcDbText
 73
3
  0
TEXT
  5
22E
100
AcDbEntity
100
AcDbText
  8
mootnr
 62
256
370
-1
 48
1.0
  6
ByLayer
 10
532691.6010000000242144
 20
6580471.5546666672453284
 30
0.0
 40
0.02
  1
 RP2
 50
0.0
 41
1.0
  7
textstyle77
 71
0
 72
0
 11
532691.6010000000242144
 21
6580471.5480000004172325
 31
0.0
100
AcDbText
 73
1
  0
CIRCLE
  5
22F
100
AcDbEntity
100
AcDbCircle
  8
mootmpunkt
 62
256
370
-1
 48
1.0
  6
ByLayer
 10
532691.6010000000242144
 20
6580471.5480000004172325
 30
0.0
 40
0.1
  0
TEXT
  5
230
100
AcDbEntity
100
AcDbText
  8
mootkorg
 62
256
370
-1
 48
1.0
  6
ByLayer
 10
532691.6010000000242144
 20
6580471.5280000008642673
 30
0.0
 40
0.02
  1
 28.54
 50
0.0
 41
1.0
  7
textstyle78
 71
0
 72
0
 11
532691.6010000000242144
 21
6580471.5480000004172325
 31
0.0
100
AcDbText
 73
3
  0
INSERT
  5
231
100
AcDbEntity
100
AcDbBlockReference
  8
KKAEV
 62
3
420
65280
370
-1
 48
1.0
  6
ByLayer
  2
KAKAEV
 10
532691.0317500622477382
 20
6580480.4649409633129835
 30
0.0
 41
0.500000000017176
 42
0.5
 43
1.0
 50
187.3781999862128487
  0
INSERT
  5
232
100
AcDbEntity
100
AcDbBlockReference
  8
VKAEV
 62
3
420
65280
370
-1
 48
1.0
  6
ByLayer
  2
THYDRK
 10
532700.6889079929096624
 20
6580486.8721475852653384
 30
0.0
 41
0.500000000017176
 42
0.5
 43
1.0
 50
187.3781999862128487
  0
LWPOLYLINE
  5
233
  8
KTRASS
 62
3
420
65280
370
-1
 48
1.0
  6
-K-
100
AcDbEntity
100
AcDbPolyline
 90
2
 70
0
 10
532707.0193230205914006
 20
6580489.5659842835739255
 30
0.0
 10
532691.4662774630123749
 20
6580480.7122988775372505
 30
0.0
  0
LWPOLYLINE
  5
234
  8
KTRASS
 62
3
420
65280
370
-1
 48
1.0
  6
-K-
100
AcDbEntity
100
AcDbPolyline
 90
2
 70
0
 10
532690.5944842484313995
 20
6580480.2224567206576467
 30
0.0
 10
532678.4666555996518582
 20
6580473.4970113439485431
 30
0.0
  0
LWPOLYLINE
  5
235
  8
VTRASS
 62
3
420
65280
370
-1
 48
1.0
  6
-V-
100
AcDbEntity
100
AcDbPolyline
 90
3
 70
0
 10
532679.0322345730382949
 20
6580472.5995632726699114
 30
0.0
 10
532692.9264709289418533
 20
6580480.3224485535174608
 30
0.0
 10
532707.5453815886285156
 20
6580488.4723910810425878
 30
0.0
  0
LWPOLYLINE
  5
236
  8
VTRASS
 62
3
420
65280
370
-1
 48
1.0
  6
-V-
100
AcDbEntity
100
AcDbPolyline
 90
2
 70
0
 10
532700.6889079929096624
 20
6580486.8721475852653384
 30
0.0
 10
532701.6446192912990227
 20
6580485.1827565310522914
 30
0.0
  0
LWPOLYLINE
  5
237
  8
KTRASS
 62
3
420
65280
370
-1
 48
1.0
  6
-KS-
100
AcDbEntity
100
AcDbPolyline
 90
3
 70
128
 10
532707.2714383167913184
 20
6580489.0418761502951384
 30
0.0
 10
532691.3575855951057747
 20
6580480.0114321168512106
 30
0.0
 10
532678.7129004879388958
 20
6580473.1062754588201642
 30
0.0
  0
INSERT
  5
238
100
AcDbEntity
100
AcDbBlockReference
  8
DKAEV
 62
256
370
-1
 48
1.0
  6
ByLayer
  2
DRKAEV
 10
532640.3320000000530854
 20
6580604.9440000001341105
 30
0.0
 41
0.5
 42
0.5
 43
1.0
  0
TEXT
  5
239
100
AcDbEntity
100
AcDbText
  8
mootnr
 62
256
370
-1
 48
1.0
  6
ByLayer
 10
532640.3190000000176951
 20
6580604.966666666790843
 30
0.0
 40
0.02
  1
 27
 50
0.0
 41
1.0
  7
textstyle79
 71
0
 72
0
 11
532640.3190000000176951
 21
6580604.9599999999627471
 31
0.0
100
AcDbText
 73
1
  0
CIRCLE
  5
23A
100
AcDbEntity
100
AcDbCircle
  8
mootmpunkt
 62
256
370
-1
 48
1.0
  6
ByLayer
 10
532640.3190000000176951
 20
6580604.9599999999627471
 30
0.0
 40
0.1
  0
TEXT
  5
23B
100
AcDbEntity
100
AcDbText
  8
mootkorg
 62
256
370
-1
 48
1.0
  6
ByLayer
 10
532640.3190000000176951
 20
6580604.9400000004097819
 30
0.0
 40
0.02
  1
 26.77
 50
0.0
 41
1.0
  7
textstyle80
 71
0
 72
0
 11
532640.3190000000176951
 21
6580604.9599999999627471
 31
0.0
100
AcDbText
 73
3
  0
TEXT
  5
23C
100
AcDbEntity
100
AcDbText
  8
mootnr
 62
256
370
-1
 48
1.0
  6
ByLayer
 10
532640.3320000000530854
 20
6580604.9506666669622064
 30
0.0
 40
0.02
  1
 28
 50
0.0
 41
1.0
  7
textstyle81
 71
0
 72
0
 11
532640.3320000000530854
 21
6580604.9440000001341105
 31
0.0
100
AcDbText
 73
1
  0
CIRCLE
  5
23D
100
AcDbEntity
100
AcDbCircle
  8
mootmpunkt
 62
256
370
-1
 48
1.0
  6
ByLayer
 10
532640.3320000000530854
 20
6580604.9440000001341105
 30
0.0
 40
0.1
  0
TEXT
  5
23E
100
AcDbEntity
100
AcDbText
  8
mootkorg
 62
256
370
-1
 48
1.0
  6
ByLayer
 10
532640.3320000000530854
 20
6580604.9240000005811453
 30
0.0
 40
0.02
  1
 26.82
 50
0.0
 41
1.0
  7
textstyle82
 71
0
 72
0
 11
532640.3320000000530854
 21
6580604.9440000001341105
 31
0.0
100
AcDbText
 73
3
  0
INSERT
  5
23F
100
AcDbEntity
100
AcDbBlockReference
  8
DKAEV
 62
256
370
-1
 48
1.0
  6
ByLayer
  2
DRKAEV
 10
532651.896999999997206
 20
6580572.6909999996423721
 30
0.0
 41
0.5
 42
0.5
 43
1.0
  0
TEXT
  5
240
100
AcDbEntity
100
AcDbText
  8
mootnr
 62
256
370
-1
 48
1.0
  6
ByLayer
 10
532650.271999999997206
 20
6580572.01266666688025
 30
0.0
 40
0.02
  1
 20
 50
0.0
 41
1.0
  7
textstyle83
 71
0
 72
0
 11
532650.271999999997206
 21
6580572.0060000000521541
 31
0.0
100
AcDbText
 73
1
  0
CIRCLE
  5
241
100
AcDbEntity
100
AcDbCircle
  8
mootmpunkt
 62
256
370
-1
 48
1.0
  6
ByLayer
 10
532650.271999999997206
 20
6580572.0060000000521541
 30
0.0
 40
0.1
  0
TEXT
  5
242
100
AcDbEntity
100
AcDbText
  8
mootkorg
 62
256
370
-1
 48
1.0
  6
ByLayer
 10
532650.271999999997206
 20
6580571.9860000004991889
 30
0.0
 40
0.02
  1
 27.72
 50
0.0
 41
1.0
  7
textstyle84
 71
0
 72
0
 11
532650.271999999997206
 21
6580572.0060000000521541
 31
0.0
100
AcDbText
 73
3
  0
TEXT
  5
243
100
AcDbEntity
100
AcDbText
  8
mootnr
 62
256
370
-1
 48
1.0
  6
ByLayer
 10
532651.6580000000540167
 20
6580571.7566666668280959
 30
0.0
 40
0.02
  1
 21
 50
0.0
 41
1.0
  7
textstyle85
 71
0
 72
0
 11
532651.6580000000540167
 21
6580571.75
 31
0.0
100
AcDbText
 73
1
  0
CIRCLE
  5
244
100
AcDbEntity
100
AcDbCircle
  8
mootmpunkt
 62
256
370
-1
 48
1.0
  6
ByLayer
 10
532651.6580000000540167
 20
6580571.75
 30
0.0
 40
0.1
  0
TEXT
  5
245
100
AcDbEntity
100
AcDbText
  8
mootkorg
 62
256
370
-1
 48
1.0
  6
ByLayer
 10
532651.6580000000540167
 20
6580571.7300000004470348
 30
0.0
 40
0.02
  1
 26.98
 50
0.0
 41
1.0
  7
textstyle86
 71
0
 72
0
 11
532651.6580000000540167
 21
6580571.75
 31
0.0
100
AcDbText
 73
3
  0
TEXT
  5
246
100
AcDbEntity
100
AcDbText
  8
mootnr
 62
256
370
-1
 48
1.0
  6
ByLayer
 10
532660.1829999999608845
 20
6580574.6096666669473052
 30
0.0
 40
0.02
  1
 25
 50
0.0
 41
1.0
  7
textstyle87
 71
0
 72
0
 11
532660.1829999999608845
 21
6580574.6030000001192093
 31
0.0
100
AcDbText
 73
1
  0
CIRCLE
  5
247
100
AcDbEntity
100
AcDbCircle
  8
mootmpunkt
 62
256
370
-1
 48
1.0
  6
ByLayer
 10
532660.1829999999608845
 20
6580574.6030000001192093
 30
0.0
 40
0.1
  0
TEXT
  5
248
100
AcDbEntity
100
AcDbText
  8
mootkorg
 62
256
370
-1
 48
1.0
  6
ByLayer
 10
532660.1829999999608845
 20
6580574.5830000005662441
 30
0.0
 40
0.02
  1
 27.73
 50
0.0
 41
1.0
  7
textstyle88
 71
0
 72
0
 11
532660.1829999999608845
 21
6580574.6030000001192093
 31
0.0
100
AcDbText
 73
3
  0
TEXT
  5
249
100
AcDbEntity
100
AcDbText
  8
mootnr
 62
256
370
-1
 48
1.0
  6
ByLayer
 10
532660.3220000000437722
 20
6580574.2846666667610407
 30
0.0
 40
0.02
  1
 26
 50
0.0
 41
1.0
  7
textstyle89
 71
0
 72
0
 11
532660.3220000000437722
 21
6580574.2779999999329448
 31
0.0
100
AcDbText
 73
1
  0
CIRCLE
  5
24A
100
AcDbEntity
100
AcDbCircle
  8
mootmpunkt
 62
256
370
-1
 48
1.0
  6
ByLayer
 10
532660.3220000000437722
 20
6580574.2779999999329448
 30
0.0
 40
0.1
  0
TEXT
  5
24B
100
AcDbEntity
100
AcDbText
  8
mootkorg
 62
256
370
-1
 48
1.0
  6
ByLayer
 10
532660.3220000000437722
 20
6580574.2580000003799796
 30
0.0
 40
0.02
  1
 27
 50
0.0
 41
1.0
  7
textstyle90
 71
0
 72
0
 11
532660.3220000000437722
 21
6580574.2779999999329448
 31
0.0
100
AcDbText
 73
3
  0
INSERT
  5
24C
100
AcDbEntity
100
AcDbBlockReference
  8
KKAEV
 62
1
420
16711680
370
-1
 48
1.0
  6
ByLayer
  2
KAKAEV
 10
532660.3220000000437722
 20
6580574.2779999999329448
 30
0.0
 41
0.5
 42
0.5
 43
1.0
  0
INSERT
  5
24D
100
AcDbEntity
100
AcDbBlockReference
  8
VKAEV
 62
5
420
255
370
-1
 48
1.0
  6
ByLayer
  2
VESIIB
 10
532660.1829999999608845
 20
6580574.6030000001192093
 30
0.0
 41
0.5
 42
0.5
 43
1.0
  0
INSERT
  5
24E
100
AcDbEntity
100
AcDbBlockReference
  8
VKAEV
 62
5
420
255
370
-1
 48
1.0
  6
ByLayer
  2
VESIIB
 10
532650.271999999997206
 20
6580572.0060000000521541
 30
0.0
 41
0.5
 42
0.5
 43
1.0
  0
INSERT
  5
24F
100
AcDbEntity
100
AcDbBlockReference
  8
KKAEV
 62
1
420
16711680
370
-1
 48
1.0
  6
ByLayer
  2
KAKAEV
 10
532651.6580000000540167
 20
6580571.75
 30
0.0
 41
0.5
 42
0.5
 43
1.0
  0
LWPOLYLINE
  5
250
  8
KTRASS
 62
256
370
-1
 48
1.0
  6
-K-
100
AcDbEntity
100
AcDbPolyline
 90
2
 70
0
 10
532652.1379851058591157
 20
6580571.8900510556995869
 30
0.0
 10
532659.8420148942386732
 20
6580574.1379489442333579
 30
0.0
  0
LWPOLYLINE
  5
251
  8
DTRASS
 62
256
370
-1
 48
1.0
  6
-D-
100
AcDbEntity
100
AcDbPolyline
 90
2
 70
0
 10
532640.5007643165299669
 20
6580604.4733423693105578
 30
0.0
 10
532651.7282356835203245
 20
6580573.1616576304659247
 30
0.0
  0
TEXT
  5
252
100
AcDbEntity
100
AcDbText
  8
mootnr
 62
256
370
-1
 48
1.0
  6
ByLayer
 10
532663.5289999999804422
 20
6580533.5906666666269302
 30
0.0
 40
0.02
  1
 19
 50
0.0
 41
1.0
  7
textstyle91
 71
0
 72
0
 11
532663.5289999999804422
 21
6580533.5839999997988343
 31
0.0
100
AcDbText
 73
1
  0
CIRCLE
  5
253
100
AcDbEntity
100
AcDbCircle
  8
mootmpunkt
 62
256
370
-1
 48
1.0
  6
ByLayer
 10
532663.5289999999804422
 20
6580533.5839999997988343
 30
0.0
 40
0.1
  0
TEXT
  5
254
100
AcDbEntity
100
AcDbText
  8
mootkorg
 62
256
370
-1
 48
1.0
  6
ByLayer
 10
532663.5289999999804422
 20
6580533.5640000002458692
 30
0.0
 40
0.02
  1
 27.72
 50
0.0
 41
1.0
  7
textstyle92
 71
0
 72
0
 11
532663.5289999999804422
 21
6580533.5839999997988343
 31
0.0
100
AcDbText
 73
3
  0
INSERT
  5
255
100
AcDbEntity
100
AcDbBlockReference
  8
KKAEV
 62
1
420
16711680
370
-1
 48
1.0
  6
ByLayer
  2
KAKAEV
 10
532664.5169999999925494
 20
6580533.1799999997019768
 30
0.0
 41
0.5
 42
0.5
 43
1.0
  0
INSERT
  5
256
100
AcDbEntity
100
AcDbBlockReference
  8
DKAEV
 62
256
370
-1
 48
1.0
  6
ByLayer
  2
DRKAEV
 10
532664.7399999999906868
 20
6580534.3669999996200204
 30
0.0
 41
0.5
 42
0.5
 43
1.0
  0
CIRCLE
  5
257
100
AcDbEntity
100
AcDbCircle
  8
mootmpunkt
 62
256
370
-1
 48
1.0
  6
ByLayer
 10
532664.7569999999832362
 20
6580534.349999999627471
 30
0.0
 40
0.1
  0
CIRCLE
  5
258
100
AcDbEntity
100
AcDbCircle
  8
mootmpunkt
 62
256
370
-1
 48
1.0
  6
ByLayer
 10
532664.728000000002794
 20
6580534.3569999998435378
 30
0.0
 40
0.1
  0
CIRCLE
  5
259
100
AcDbEntity
100
AcDbCircle
  8
mootmpunkt
 62
256
370
-1
 48
1.0
  6
ByLayer
 10
532664.7399999999906868
 20
6580534.3669999996200204
 30
0.0
 40
0.1
  0
TEXT
  5
25A
100
AcDbEntity
100
AcDbText
  8
mootnr
 62
256
370
-1
 48
1.0
  6
ByLayer
 10
532664.7569999999832362
 20
6580534.3566666664555669
 30
0.0
 40
0.02
  1
 15
 50
0.0
 41
1.0
  7
textstyle93
 71
0
 72
0
 11
532664.7569999999832362
 21
6580534.349999999627471
 31
0.0
100
AcDbText
 73
1
  0
TEXT
  5
25B
100
AcDbEntity
100
AcDbText
  8
mootkorg
 62
256
370
-1
 48
1.0
  6
ByLayer
 10
532664.7569999999832362
 20
6580534.3399999998509884
 30
0.0
 40
0.01
  1
 26.71
 50
0.0
 41
1.0
  7
textstyle94
 71
0
 72
0
 11
532664.7569999999832362
 21
6580534.349999999627471
 31
0.0
100
AcDbText
 73
3
  0
TEXT
  5
25C
100
AcDbEntity
100
AcDbText
  8
mootnr
 62
256
370
-1
 48
1.0
  6
ByLayer
 10
532664.7979999999515712
 20
6580534.3006666665896773
 30
0.0
 40
0.02
  1
 16
 50
0.0
 41
1.0
  7
textstyle95
 71
0
 72
0
 11
532664.7979999999515712
 21
6580534.2939999997615814
 31
0.0
100
AcDbText
 73
1
  0
CIRCLE
  5
25D
100
AcDbEntity
100
AcDbCircle
  8
mootmpunkt
 62
256
370
-1
 48
1.0
  6
ByLayer
 10
532664.7979999999515712
 20
6580534.2939999997615814
 30
0.0
 40
0.1
  0
TEXT
  5
25E
100
AcDbEntity
100
AcDbText
  8
mootkorg
 62
256
370
-1
 48
1.0
  6
ByLayer
 10
532664.7979999999515712
 20
6580534.2839999999850988
 30
0.0
 40
0.01
  1
 26.79
 50
0.0
 41
1.0
  7
textstyle96
 71
0
 72
0
 11
532664.7979999999515712
 21
6580534.2939999997615814
 31
0.0
100
AcDbText
 73
3
  0
TEXT
  5
25F
100
AcDbEntity
100
AcDbText
  8
mootnr
 62
256
370
-1
 48
1.0
  6
ByLayer
 10
532664.728000000002794
 20
6580534.3636666666716337
 30
0.0
 40
0.02
  1
 17
 50
0.0
 41
1.0
  7
textstyle97
 71
0
 72
0
 11
532664.728000000002794
 21
6580534.3569999998435378
 31
0.0
100
AcDbText
 73
1
  0
TEXT
  5
260
100
AcDbEntity
100
AcDbText
  8
mootkorg
 62
256
370
-1
 48
1.0
  6
ByLayer
 10
532664.728000000002794
 20
6580534.3470000000670552
 30
0.0
 40
0.01
  1
 26.78
 50
0.0
 41
1.0
  7
textstyle98
 71
0
 72
0
 11
532664.728000000002794
 21
6580534.3569999998435378
 31
0.0
100
AcDbText
 73
3
  0
TEXT
  5
261
100
AcDbEntity
100
AcDbText
  8
mootnr
 62
256
370
-1
 48
1.0
  6
ByLayer
 10
532664.7399999999906868
 20
6580534.3736666664481163
 30
0.0
 40
0.02
  1
 18
 50
0.0
 41
1.0
  7
textstyle99
 71
0
 72
0
 11
532664.7399999999906868
 21
6580534.3669999996200204
 31
0.0
100
AcDbText
 73
1
  0
TEXT
  5
262
100
AcDbEntity
100
AcDbText
  8
mootkorg
 62
256
370
-1
 48
1.0
  6
ByLayer
 10
532664.7399999999906868
 20
6580534.3569999998435378
 30
0.0
 40
0.01
  1
 26.77
 50
0.0
 41
1.0
  7
textstyle100
 71
0
 72
0
 11
532664.7399999999906868
 21
6580534.3669999996200204
 31
0.0
100
AcDbText
 73
3
  0
INSERT
  5
263
100
AcDbEntity
100
AcDbBlockReference
  8
DKAEV
 62
256
370
-1
 48
1.0
  6
ByLayer
  2
DRKAEV
 10
532678.1239999999525025
 20
6580495.6569999996572733
 30
0.0
 41
0.5
 42
0.5
 43
1.0
  0
INSERT
  5
264
100
AcDbEntity
100
AcDbBlockReference
  8
VKAEV
 62
5
420
255
370
-1
 48
1.0
  6
ByLayer
  2
VESIIB
 10
532677.0559999999823049
 20
6580495.0870000002905726
 30
0.0
 41
0.5
 42
0.5
 43
1.0
  0
INSERT
  5
265
100
AcDbEntity
100
AcDbBlockReference
  8
KKAEV
 62
3
420
65280
370
-1
 48
1.0
  6
ByLayer
  2
KAKAEV
 10
532690.1890000000130385
 20
6580482.9519999995827675
 30
0.0
 41
0.5
 42
0.5
 43
1.0
  0
INSERT
  5
266
100
AcDbEntity
100
AcDbBlockReference
  8
DKAEV
 62
256
370
-1
 48
1.0
  6
ByLayer
  2
DRKAEV
 10
532692.6750000000465661
 20
6580482.2330000000074506
 30
0.0
 41
0.5
 42
0.5
 43
1.0
  0
INSERT
  5
267
100
AcDbEntity
100
AcDbBlockReference
  8
VKAEV
 62
3
420
65280
370
-1
 48
1.0
  6
ByLayer
  2
VESIIB
 10
532692.2439999999478459
 20
6580481.5970000000670552
 30
0.0
 41
0.5
 42
0.5
 43
1.0
  0
LWPOLYLINE
  5
268
  8
DTRASS
 62
256
370
-1
 48
1.0
  6
-D-
100
AcDbEntity
100
AcDbPolyline
 90
2
 70
0
 10
532697.4150000000372529
 20
6580471.019000000320375
 30
0.0
 10
532692.8696672512451187
 20
6580481.772451781667769
 30
0.0
  0
INSERT
  5
269
100
AcDbEntity
100
AcDbBlockReference
  8
DTRASS
 62
256
370
-1
 48
1.0
  6
-D-
  2
TORVAL
 10
532697.4150000000372529
 20
6580471.019000000320375
 30
0.0
 41
0.500000000149841
 42
0.5
 43
1.0
 50
112.5022873375557282
  0
INSERT
  5
26A
100
AcDbEntity
100
AcDbBlockReference
  8
TRUUP
 62
256
370
-1
 48
1.0
  6
ByLayer
  2
TORVAL
 10
532669.7179999999934807
 20
6580454.7649999996647239
 30
0.0
 41
0.4999999998256968
 42
0.5
 43
1.0
 50
29.3679481540233027
  0
INSERT
  5
26B
100
AcDbEntity
100
AcDbBlockReference
  8
TRUUP
 62
256
370
-1
 48
1.0
  6
ByLayer
  2
TORVAL
 10
532680.231000000028871
 20
6580460.6830000001937151
 30
0.0
 41
0.4999999999409619
 42
0.5
 43
1.0
 50
209.5513959895731091
  0
LWPOLYLINE
  5
26C
  8
TRUUP
 62
256
370
-1
 48
1.0
  6
TRUUP
100
AcDbEntity
100
AcDbPolyline
 90
2
 70
0
 10
532669.7179999999934807
 20
6580454.7649999996647239
 30
0.0
 10
532680.231000000028871
 20
6580460.6830000001937151
 30
0.0
  0
TEXT
  5
26D
100
AcDbEntity
100
AcDbText
  8
mootnr
 62
256
370
-1
 48
1.0
  6
ByLayer
 10
532669.7179999999934807
 20
6580454.7716666664928198
 30
0.0
 40
0.02
  1
 TO4
 50
0.0
 41
1.0
  7
textstyle101
 71
0
 72
0
 11
532669.7179999999934807
 21
6580454.7649999996647239
 31
0.0
100
AcDbText
 73
1
  0
CIRCLE
  5
26E
100
AcDbEntity
100
AcDbCircle
  8
mootmpunkt
 62
256
370
-1
 48
1.0
  6
ByLayer
 10
532669.7179999999934807
 20
6580454.7649999996647239
 30
0.0
 40
0.1
  0
TEXT
  5
26F
100
AcDbEntity
100
AcDbText
  8
mootkorg
 62
256
370
-1
 48
1.0
  6
ByLayer
 10
532669.7179999999934807
 20
6580454.7450000001117587
 30
0.0
 40
0.02
  1
 26.57
 50
0.0
 41
1.0
  7
textstyle102
 71
0
 72
0
 11
532669.7179999999934807
 21
6580454.7649999996647239
 31
0.0
100
AcDbText
 73
3
  0
TEXT
  5
270
100
AcDbEntity
100
AcDbText
  8
mootnr
 62
256
370
-1
 48
1.0
  6
ByLayer
 10
532680.1509999999543652
 20
6580460.6606666669249535
 30
0.0
 40
0.02
  1
 TO2
 50
0.0
 41
1.0
  7
textstyle103
 71
0
 72
0
 11
532680.1509999999543652
 21
6580460.6540000000968575
 31
0.0
100
AcDbText
 73
1
  0
CIRCLE
  5
271
100
AcDbEntity
100
AcDbCircle
  8
mootmpunkt
 62
256
370
-1
 48
1.0
  6
ByLayer
 10
532680.1509999999543652
 20
6580460.6540000000968575
 30
0.0
 40
0.1
  0
TEXT
  5
272
100
AcDbEntity
100
AcDbText
  8
mootkorg
 62
256
370
-1
 48
1.0
  6
ByLayer
 10
532680.1509999999543652
 20
6580460.6340000005438924
 30
0.0
 40
0.02
  1
 27.18
 50
0.0
 41
1.0
  7
textstyle104
 71
0
 72
0
 11
532680.1509999999543652
 21
6580460.6540000000968575
 31
0.0
100
AcDbText
 73
3
  0
TEXT
  5
273
100
AcDbEntity
100
AcDbText
  8
mootnr
 62
256
370
-1
 48
1.0
  6
ByLayer
 10
532680.231000000028871
 20
6580460.689666667021811
 30
0.0
 40
0.02
  1
 TO3
 50
0.0
 41
1.0
  7
textstyle105
 71
0
 72
0
 11
532680.231000000028871
 21
6580460.6830000001937151
 31
0.0
100
AcDbText
 73
1
  0
CIRCLE
  5
274
100
AcDbEntity
100
AcDbCircle
  8
mootmpunkt
 62
256
370
-1
 48
1.0
  6
ByLayer
 10
532680.231000000028871
 20
6580460.6830000001937151
 30
0.0
 40
0.1
  0
TEXT
  5
275
100
AcDbEntity
100
AcDbText
  8
mootkorg
 62
256
370
-1
 48
1.0
  6
ByLayer
 10
532680.231000000028871
 20
6580460.6630000006407499
 30
0.0
 40
0.02
  1
 26.6
 50
0.0
 41
1.0
  7
textstyle106
 71
0
 72
0
 11
532680.231000000028871
 21
6580460.6830000001937151
 31
0.0
100
AcDbText
 73
3
  0
LWPOLYLINE
  5
276
  8
KTRASS
 62
256
370
-1
 48
1.0
  6
-K-
100
AcDbEntity
100
AcDbPolyline
 90
2
 70
0
 10
532651.8161397085059434
 20
6580571.2756669605150819
 30
0.0
 10
532664.3588602915406227
 20
6580533.6543330391868949
 30
0.0
  0
LWPOLYLINE
  5
277
  8
KTRASS
 62
256
370
-1
 48
1.0
  6
-K-
100
AcDbEntity
100
AcDbPolyline
 90
2
 70
0
 10
532671.4121002604952082
 20
6580513.6676959618926048
 30
0.0
 10
532677.8048997395671904
 20
6580495.268304037861526
 30
0.0
  0
LWPOLYLINE
  5
278
  8
DTRASS
 62
256
370
-1
 48
1.0
  6
-D-
100
AcDbEntity
100
AcDbPolyline
 90
2
 70
0
 10
532652.0558744659647346
 20
6580572.2169125564396381
 30
0.0
 10
532664.5811255340231583
 20
6580534.8410874428227544
 30
0.0
  0
TEXT
  5
279
100
AcDbEntity
100
AcDbText
  8
mootkorg
 62
256
370
-1
 48
1.0
  6
ByLayer
 10
532692.7480000000214204
 20
6580482.2860000003129244
 30
0.0
 40
0.02
  1
 28.25
 50
0.0
 41
1.0
  7
textstyle107
 71
0
 72
0
 11
532692.7480000000214204
 21
6580482.3059999998658895
 31
0.0
100
AcDbText
 73
3
  0
TEXT
  5
27A
100
AcDbEntity
100
AcDbText
  8
mootnr
 62
256
370
-1
 48
1.0
  6
ByLayer
 10
532692.7010000000009313
 20
6580482.2256666664034128
 30
0.0
 40
0.02
  1
 1
 50
0.0
 41
1.0
  7
textstyle108
 71
0
 72
0
 11
532692.7010000000009313
 21
6580482.2189999995753169
 31
0.0
100
AcDbText
 73
1
  0
CIRCLE
  5
27B
100
AcDbEntity
100
AcDbCircle
  8
mootmpunkt
 62
256
370
-1
 48
1.0
  6
ByLayer
 10
532692.7010000000009313
 20
6580482.2189999995753169
 30
0.0
 40
0.1
  0
TEXT
  5
27C
100
AcDbEntity
100
AcDbText
  8
mootkorg
 62
256
370
-1
 48
1.0
  6
ByLayer
 10
532692.7010000000009313
 20
6580482.1990000000223517
 30
0.0
 40
0.02
  1
 26.65
 50
0.0
 41
1.0
  7
textstyle109
 71
0
 72
0
 11
532692.7010000000009313
 21
6580482.2189999995753169
 31
0.0
100
AcDbText
 73
3
  0
TEXT
  5
27D
100
AcDbEntity
100
AcDbText
  8
mootnr
 62
256
370
-1
 48
1.0
  6
ByLayer
 10
532692.6750000000465661
 20
6580482.2396666668355465
 30
0.0
 40
0.02
  1
 2
 50
0.0
 41
1.0
  7
textstyle110
 71
0
 72
0
 11
532692.6750000000465661
 21
6580482.2330000000074506
 31
0.0
100
AcDbText
 73
1
  0
TEXT
  5
27E
100
AcDbEntity
100
AcDbText
  8
mootkorg
 62
256
370
-1
 48
1.0
  6
ByLayer
 10
532692.6750000000465661
 20
6580482.2130000004544854
 30
0.0
 40
0.02
  1
 26.68
 50
0.0
 41
1.0
  7
textstyle111
 71
0
 72
0
 11
532692.6750000000465661
 21
6580482.2330000000074506
 31
0.0
100
AcDbText
 73
3
  0
TEXT
  5
27F
100
AcDbEntity
100
AcDbText
  8
mootnr
 62
256
370
-1
 48
1.0
  6
ByLayer
 10
532692.6260000000474975
 20
6580482.2066666670143604
 30
0.0
 40
0.02
  1
 3
 50
0.0
 41
1.0
  7
textstyle112
 71
0
 72
0
 11
532692.6260000000474975
 21
6580482.2000000001862645
 31
0.0
100
AcDbText
 73
1
  0
CIRCLE
  5
280
100
AcDbEntity
100
AcDbCircle
  8
mootmpunkt
 62
256
370
-1
 48
1.0
  6
ByLayer
 10
532692.6260000000474975
 20
6580482.2000000001862645
 30
0.0
 40
0.1
  0
TEXT
  5
281
100
AcDbEntity
100
AcDbText
  8
mootkorg
 62
256
370
-1
 48
1.0
  6
ByLayer
 10
532692.6260000000474975
 20
6580482.1800000006332994
 30
0.0
 40
0.02
  1
 26.69
 50
0.0
 41
1.0
  7
textstyle113
 71
0
 72
0
 11
532692.6260000000474975
 21
6580482.2000000001862645
 31
0.0
100
AcDbText
 73
3
  0
LWPOLYLINE
  5
282
  8
KTRASS
 62
3
420
65280
370
-1
 48
1.0
  6
-K-
100
AcDbEntity
100
AcDbPolyline
 90
2
 70
0
 10
532690.3494648530613631
 20
6580482.4784484915435314
 30
0.0
 10
532691.0317500622477382
 20
6580480.4649409633129835
 30
0.0
  0
LWPOLYLINE
  5
283
  8
VTRASS
 62
3
420
65280
370
-1
 48
1.0
  6
-V-
100
AcDbEntity
100
AcDbPolyline
 90
2
 70
0
 10
532692.2439999999478459
 20
6580481.5970000000670552
 30
0.0
 10
532692.9478950968477875
 20
6580480.3343923799693584
 30
0.0
  0
LWPOLYLINE
  5
284
  8
VTRASS
 62
256
370
-1
 48
1.0
  6
-V-
100
AcDbEntity
100
AcDbPolyline
 90
2
 70
0
 10
532677.0559999999823049
 20
6580495.0870000002905726
 30
0.0
 10
532678.0011590265203267
 20
6580495.3367921486496925
 30
0.0
  0
INSERT
  5
285
100
AcDbEntity
100
AcDbBlockReference
  8
ALUSVORK
 62
256
370
-1
 48
1.0
  6
ByLayer
  2
SPYMAR
 10
532691.6330000000307336
 20
6580471.5470000002533197
 30
0.0
 41
0.5
 42
0.5
 43
1.0
  0
INSERT
  5
286
100
AcDbEntity
100
AcDbBlockReference
  8
ALUSVORK
 62
256
370
-1
 48
1.0
  6
ByLayer
  2
SPYMAR
 10
532671.0649999999441206
 20
6580545.5350000001490116
 30
0.0
 41
0.5
 42
0.5
 43
1.0
  0
INSERT
  5
287
100
AcDbEntity
100
AcDbBlockReference
  8
VKAEV
 62
5
420
255
370
-1
 48
1.0
  6
ByLayer
  2
VESIIB
 10
532663.5289999999804422
 20
6580533.5839999997988343
 30
0.0
 41
0.5
 42
0.5
 43
1.0
  0
LWPOLYLINE
  5
288
  8
VTRASS
 62
256
370
-1
 48
1.0
  6
-V-
100
AcDbEntity
100
AcDbPolyline
 90
2
 70
0
 10
532663.5289999999804422
 20
6580533.5839999997988343
 30
0.0
 10
532664.5284967232728377
 20
6580533.9353919792920351
 30
0.0
  0
INSERT
  5
289
100
AcDbEntity
100
AcDbBlockReference
  8
KKAEV
 62
1
420
16711680
370
-1
 48
1.0
  6
ByLayer
  2
KAKAEV
 10
532671.2480000000214204
 20
6580514.1399999996647239
 30
0.0
 41
0.5
 42
0.5
 43
1.0
  0
LWPOLYLINE
  5
28A
  8
VTRASS
 62
256
370
-1
 48
1.0
  6
-V-
100
AcDbEntity
100
AcDbPolyline
 90
2
 70
128
 10
532671.3116776613751426
 20
6580514.5018694354221225
 30
0.0
 10
532678.640999999945052
 20
6580516.7019999995827675
 30
0.0
  0
LWPOLYLINE
  5
28B
  8
VTRASS
 62
256
370
-1
 48
1.0
  6
-V-
100
AcDbEntity
100
AcDbPolyline
 90
2
 70
0
 10
532660.1829999999608845
 20
6580574.6030000001192093
 30
0.0
 10
532651.6517753993393853
 20
6580572.3081545317545533
 30
0.0
  0
LWPOLYLINE
  5
28C
  8
VTRASS
 62
256
370
-1
 48
1.0
  6
-V-
100
AcDbEntity
100
AcDbPolyline
 90
2
 70
0
 10
532650.271999999997206
 20
6580572.0060000000521541
 30
0.0
 10
532651.6517753993393853
 20
6580572.3081545317545533
 30
0.0
  0
LWPOLYLINE
  5
28D
  8
DTRASS
 62
256
370
-1
 48
1.0
  6
-D-
100
AcDbEntity
100
AcDbPolyline
 90
2
 70
0
 10
532651.4036577359074727
 20
6580572.6096771210432053
 30
0.0
 10
532650.1918388862395659
 20
6580572.4099200684577227
 30
0.0
  0
LWPOLYLINE
  5
28E
  8
KTRASS
 62
256
370
-1
 48
1.0
  6
-K-
100
AcDbEntity
100
AcDbPolyline
 90
2
 70
0
 10
532651.1763499226653948
 20
6580571.6157867256551981
 30
0.0
 10
532650.4631251685786992
 20
6580571.4170444561168551
 30
0.0
  0
LWPOLYLINE
  5
28F
  8
DTRASS
 62
256
370
-1
 48
1.0
  6
-D-
100
AcDbEntity
100
AcDbPolyline
 90
2
 70
0
 10
532677.6358316504629329
 20
6580495.5488720079883933
 30
0.0
 10
532676.9191764646675438
 20
6580495.390134789980948
 30
0.0
  0
INSERT
  5
290
100
AcDbEntity
100
AcDbBlockReference
  8
VKAEV
 62
5
420
255
370
-1
 48
1.0
  6
ByLayer
  2
VESIIB
 10
532678.640999999945052
 20
6580516.7019999995827675
 30
0.0
 41
0.5
 42
0.5
 43
1.0
  0
TEXT
  5
291
100
AcDbEntity
100
AcDbText
  8
TRUUP
 62
256
370
-1
 48
1.0
  6
TRUUP
 10
532672.8984362903283909
 20
6580457.0071718627586961
 30
0.0
 40
0.7
  1
-12.06-
 50
29.376121722105232
 41
1.0
  7
textstyle114
 71
0
 72
1
 11
532674.789103765389882
 21
6580458.4731144290417433
 31
0.0
100
AcDbText
 73
2
  0
POINT
  5
292
100
AcDbEntity
100
AcDbPoint
  8
Level 1
 62
2
420
16776960
370
0
 48
1.0
  6
Continuous
 10
532691.635490462067537
 20
6580471.5380542688071728
 30
0.0
  0
POINT
  5
293
100
AcDbEntity
100
AcDbPoint
  8
Level 1
 62
2
420
16776960
370
0
 48
1.0
  6
Continuous
 10
532671.0307595164049417
 20
6580545.5522929569706321
 30
0.0
  0
POINT
  5
294
100
AcDbEntity
100
AcDbPoint
  8
Level 1
 62
2
420
16776960
370
0
 48
1.0
  6
Continuous
 10
532660.0253300395561382
 20
6580574.612192440778017
 30
0.0
  0
POINT
  5
295
100
AcDbEntity
100
AcDbPoint
  8
Level 1
 62
2
420
16776960
370
0
 48
1.0
  6
Continuous
 10
532650.2773920077597722
 20
6580572.0262774899601936
 30
0.0
  0
POINT
  5
296
100
AcDbEntity
100
AcDbPoint
  8
Level 1
 62
2
420
16776960
370
0
 48
1.0
  6
Continuous
 10
532651.4158094859449193
 20
6580572.6269859429448843
 30
0.0
  0
POINT
  5
297
100
AcDbEntity
100
AcDbPoint
  8
Level 1
 62
2
420
16776960
370
0
 48
1.0
  6
Continuous
 10
532651.4310375200584531
 20
6580572.3134064367040992
 30
0.0
  0
POINT
  5
298
100
AcDbEntity
100
AcDbPoint
  8
Level 1
 62
2
420
16776960
370
0
 48
1.0
  6
Continuous
 10
532651.5099068399285898
 20
6580572.0443104868754745
 30
0.0
  0
CIRCLE
  5
299
100
AcDbEntity
100
AcDbCircle
  8
Level 1
 62
2
420
16776960
370
0
 48
1.0
  6
Continuous
 10
532691.635490462067537
 20
6580471.5380542688071728
 30
0.0
 40
1.0
  0
TEXT
  5
29A
100
AcDbEntity
100
AcDbText
  8
Level 1
 62
2
420
16776960
370
0
 48
1.0
  6
Continuous
 10
532693.441958153503947
 20
6580470.8910538032650948
 30
0.0
 40
0.6
  1
Post
 50
312.3521138391023442
 41
1.0
  7
textstyle115
 71
0
 72
1
 11
532694.2892283643595874
 21
6580470.4069276954978704
 31
0.0
100
AcDbText
 73
2
  0
CIRCLE
  5
29B
100
AcDbEntity
100
AcDbCircle
  8
Level 1
 62
2
420
16776960
370
0
 48
1.0
  6
Continuous
 10
532671.0307595164049417
 20
6580545.5522929569706321
 30
0.0
 40
1.0
  0
TEXT
  5
29C
100
AcDbEntity
100
AcDbText
  8
Level 1
 62
2
420
16776960
370
0
 48
1.0
  6
Continuous
 10
532672.38838204392232
 20
6580545.0598941659554839
 30
0.0
 40
0.6
  1
Aed
 50
312.3521138391023442
 41
1.0
  7
textstyle116
 71
0
 72
1
 11
532673.1105393312172964
 21
6580544.7130143782123923
 31
0.0
100
AcDbText
 73
2
  0
CIRCLE
  5
29D
100
AcDbEntity
100
AcDbCircle
  8
Level 1
 62
2
420
16776960
370
0
 48
1.0
  6
Continuous
 10
532650.2773920077597722
 20
6580572.0262774899601936
 30
0.0
 40
0.05
  0
CIRCLE
  5
29E
100
AcDbEntity
100
AcDbCircle
  8
Level 1
 62
2
420
16776960
370
0
 48
1.0
  6
Continuous
 10
532651.4158094859449193
 20
6580572.6269859429448843
 30
0.0
 40
0.05
  0
CIRCLE
  5
29F
100
AcDbEntity
100
AcDbCircle
  8
Level 1
 62
2
420
16776960
370
0
 48
1.0
  6
Continuous
 10
532651.4310375200584531
 20
6580572.3134064367040992
 30
0.0
 40
0.05
  0
CIRCLE
  5
2A0
100
AcDbEntity
100
AcDbCircle
  8
Level 1
 62
2
420
16776960
370
0
 48
1.0
  6
Continuous
 10
532651.5099068399285898
 20
6580572.0443104868754745
 30
0.0
 40
0.05
  0
CIRCLE
  5
2A1
100
AcDbEntity
100
AcDbCircle
  8
Level 1
 62
2
420
16776960
370
0
 48
1.0
  6
Continuous
 10
532660.0253300395561382
 20
6580574.612192440778017
 30
0.0
 40
0.05
  0
TEXT
  5
2A2
100
AcDbEntity
100
AcDbText
  8
Level 1
 62
2
420
16776960
370
0
 48
1.0
  6
Continuous
 10
532659.9717372958548367
 20
6580575.2319817058742046
 30
0.0
 40
0.6
  1
mk4
 50
312.3521138391023442
 41
1.0
  7
textstyle117
 71
0
 72
1
 11
532660.7901352935004979
 21
6580574.7795278262346983
 31
0.0
100
AcDbText
 73
2
  0
TEXT
  5
2A3
100
AcDbEntity
100
AcDbText
  8
Level 1
 62
2
420
16776960
370
0
 48
1.0
  6
Continuous
 10
532648.4886888788314536
 20
6580572.5620849346742034
 30
0.0
 40
0.6
  1
mk5
 50
312.3521138391023442
 41
1.0
  7
textstyle118
 71
0
 72
1
 11
532649.2974628055235371
 21
6580572.1201884634792805
 31
0.0
100
AcDbText
 73
2
  0
TEXT
  5
2A4
100
AcDbEntity
100
AcDbText
  8
Level 1
 62
2
420
16776960
370
0
 48
1.0
  6
Continuous
 10
532650.7233013769146055
 20
6580574.0300503047183156
 30
0.0
 40
0.6
  1
v1-3
 50
312.3521138391023442
 41
1.0
  7
textstyle119
 71
0
 72
1
 11
532651.6379400849109516
 21
6580573.4720223322510719
 31
0.0
100
AcDbText
 73
2
  0
LINE
  5
2A5
100
AcDbEntity
100
AcDbLine
  8
Level 1
 62
2
420
16776960
370
53
 48
1.0
  6
Continuous
 10
532650.2773920077597722
 20
6580572.0262774899601936
 30
0.0
 11
532651.4310375225031748
 21
6580572.3134064376354218
 31
0.0
  0
LINE
  5
2A6
100
AcDbEntity
100
AcDbLine
  8
Level 1
 62
2
420
16776960
370
53
 48
1.0
  6
Continuous
 10
532651.5099068401614204
 20
6580572.0443104859441519
 30
0.0
 11
532660.0253300408367068
 21
6580574.612192440778017
 31
0.0
  0
LINE
  5
2A7
100
AcDbEntity
100
AcDbLine
  8
Level 1
 62
2
420
16776960
370
53
 48
1.0
  6
Continuous
 10
532651.4158094862941653
 20
6580572.6269859429448843
 30
0.0
 11
532651.4310375215718523
 21
6580572.3134064357727766
 31
0.0
  0
LINE
  5
2A8
100
AcDbEntity
100
AcDbLine
  8
Level 1
 62
2
420
16776960
370
53
 48
1.0
  6
Continuous
 10
532651.4310375215718523
 20
6580572.3134064357727766
 30
0.0
 11
532651.5099068399285898
 21
6580572.0443104868754745
 31
0.0
  0
POINT
  5
2A9
100
AcDbEntity
100
AcDbPoint
  8
Level 1
 62
2
420
16776960
370
53
 48
1.0
  6
Continuous
 10
532691.635490462067537
 20
6580471.5380542688071728
 30
0.0
  0
POINT
  5
2AA
100
AcDbEntity
100
AcDbPoint
  8
Level 1
 62
2
420
16776960
370
53
 48
1.0
  6
Continuous
 10
532691.8517920301528648
 20
6580481.9377075741067529
 30
0.0
  0
POINT
  5
2AB
100
AcDbEntity
100
AcDbPoint
  8
Level 1
 62
2
420
16776960
370
53
 48
1.0
  6
Continuous
 10
532690.6470670677954331
 20
6580483.3897126317024231
 30
0.0
  0
POINT
  5
2AC
100
AcDbEntity
100
AcDbPoint
  8
Level 1
 62
2
420
16776960
370
53
 48
1.0
  6
Continuous
 10
532681.7459910489851609
 20
6580489.788328074850142
 30
0.0
  0
POINT
  5
2AD
100
AcDbEntity
100
AcDbPoint
  8
Level 1
 62
2
420
16776960
370
53
 48
1.0
  6
Continuous
 10
532677.7995169695932418
 20
6580495.2294560549780726
 30
0.0
  0
POINT
  5
2AE
100
AcDbEntity
100
AcDbPoint
  8
Level 1
 62
2
420
16776960
370
53
 48
1.0
  6
Continuous
 10
532676.6765818318817765
 20
6580494.8269007643684745
 30
0.0
  0
POINT
  5
2AF
100
AcDbEntity
100
AcDbPoint
  8
Level 1
 62
2
420
16776960
370
53
 48
1.0
  6
Continuous
 10
532671.4233936085365713
 20
6580514.091786090284586
 30
0.0
  0
POINT
  5
2B0
100
AcDbEntity
100
AcDbPoint
  8
Level 1
 62
2
420
16776960
370
53
 48
1.0
  6
Continuous
 10
532664.6013529358897358
 20
6580533.8423595745116472
 30
0.0
  0
POINT
  5
2B1
100
AcDbEntity
100
AcDbPoint
  8
Level 1
 62
2
420
16776960
370
53
 48
1.0
  6
Continuous
 10
532663.2226512059569359
 20
6580533.5087326969951391
 30
0.0
  0
POINT
  5
2B2
100
AcDbEntity
100
AcDbPoint
  8
Level 1
 62
2
420
16776960
370
53
 48
1.0
  6
Continuous
 10
532671.0410471550421789
 20
6580545.5153387421742082
 30
0.0
  0
CIRCLE
  5
2B3
100
AcDbEntity
100
AcDbCircle
  8
Level 1
 62
2
420
16776960
370
0
 48
1.0
  6
Continuous
 10
532671.0410471550421789
 20
6580545.5153387440368533
 30
0.0
 40
1.0000000000000004
  0
TEXT
  5
2B4
100
AcDbEntity
100
AcDbText
  8
Level 1
 62
2
420
16776960
370
0
 48
1.0
  6
Continuous
 10
532672.3228022027760744
 20
6580546.8563286308199167
 30
0.0
 40
0.6
  1
Aed
 50
13.0781966901710955
 41
1.0
  7
textstyle120
 71
0
 72
1
 11
532672.9784529301105067
 21
6580547.316639382392168
 31
0.0
100
AcDbText
 73
2
  0
TEXT
  5
2B5
100
AcDbEntity
100
AcDbText
  8
Level 1
 62
2
420
16776960
370
0
 48
1.0
  6
Continuous
 10
532688.8155643297359347
 20
6580472.3945310367271304
 30
0.0
 40
0.6
  1
Post
 50
13.0781966901710955
 41
1.0
  7
textstyle121
 71
0
 72
1
 11
532689.6521001813234761
 21
6580472.8968651471659541
 31
0.0
100
AcDbText
 73
2
  0
CIRCLE
  5
2B6
100
AcDbEntity
100
AcDbCircle
  8
Level 1
 62
2
420
16776960
370
0
 48
1.0
  6
Continuous
 10
532691.6354904623003677
 20
6580471.5380542716011405
 30
0.0
 40
1.0000000000000004
  0
CIRCLE
  5
2B7
100
AcDbEntity
100
AcDbCircle
  8
Level 1
 62
2
420
16776960
370
0
 48
1.0
  6
Continuous
 10
532691.8517920299200341
 20
6580481.9377075713127851
 30
0.0
 40
0.05
  0
CIRCLE
  5
2B8
100
AcDbEntity
100
AcDbCircle
  8
Level 1
 62
2
420
16776960
370
0
 48
1.0
  6
Continuous
 10
532690.6470670677954331
 20
6580483.3897126279771328
 30
0.0
 40
0.05
  0
CIRCLE
  5
2B9
100
AcDbEntity
100
AcDbCircle
  8
Level 1
 62
2
420
16776960
370
0
 48
1.0
  6
Continuous
 10
532681.7459910491015762
 20
6580489.7883280739188194
 30
0.0
 40
0.05
  0
CIRCLE
  5
2BA
100
AcDbEntity
100
AcDbCircle
  8
Level 1
 62
2
420
16776960
370
0
 48
1.0
  6
Continuous
 10
532677.7995169697096571
 20
6580495.2294560521841049
 30
0.0
 40
0.05
  0
CIRCLE
  5
2BB
100
AcDbEntity
100
AcDbCircle
  8
Level 1
 62
2
420
16776960
370
0
 48
1.0
  6
Continuous
 10
532676.6765818319981918
 20
6580494.8269007634371519
 30
0.0
 40
0.05
  0
CIRCLE
  5
2BC
100
AcDbEntity
100
AcDbCircle
  8
Level 1
 62
2
420
16776960
370
0
 48
1.0
  6
Continuous
 10
532671.4233936084201559
 20
6580514.0917860874906182
 30
0.0
 40
0.05
  0
CIRCLE
  5
2BD
100
AcDbEntity
100
AcDbCircle
  8
Level 1
 62
2
420
16776960
370
0
 48
1.0
  6
Continuous
 10
532664.6013529357733205
 20
6580533.8423595735803246
 30
0.0
 40
0.05
  0
CIRCLE
  5
2BE
100
AcDbEntity
100
AcDbCircle
  8
Level 1
 62
2
420
16776960
370
0
 48
1.0
  6
Continuous
 10
532663.2226512058405206
 20
6580533.508732695132494
 30
0.0
 40
0.05
  0
LINE
  5
2BF
100
AcDbEntity
100
AcDbLine
  8
Level 1
 62
2
420
16776960
370
53
 48
1.0
  6
Continuous
 10
532663.2226512057241052
 20
6580533.508732695132494
 30
0.0
 11
532664.6013529362389818
 21
6580533.8423595726490021
 31
0.0
  0
LINE
  5
2C0
100
AcDbEntity
100
AcDbLine
  8
Level 1
 62
2
420
16776960
370
53
 48
1.0
  6
Continuous
 10
532664.6013529362389818
 20
6580533.8423595726490021
 30
0.0
 11
532671.4233936085365713
 21
6580514.091786090284586
 31
0.0
  0
LINE
  5
2C1
100
AcDbEntity
100
AcDbLine
  8
Level 1
 62
2
420
16776960
370
53
 48
1.0
  6
Continuous
 10
532671.4233936088858172
 20
6580514.0917860884219408
 30
0.0
 11
532677.7995169695932418
 21
6580495.2294560549780726
 31
0.0
  0
LINE
  5
2C2
100
AcDbEntity
100
AcDbLine
  8
Level 1
 62
2
420
16776960
370
53
 48
1.0
  6
Continuous
 10
532677.7995169695932418
 20
6580495.2294560549780726
 30
0.0
 11
532676.6765818318817765
 21
6580494.8269007643684745
 31
0.0
  0
LINE
  5
2C3
100
AcDbEntity
100
AcDbLine
  8
Level 1
 62
2
420
16776960
370
53
 48
1.0
  6
Continuous
 10
532677.7995169712230563
 20
6580495.2294560531154275
 30
0.0
 11
532681.7459910500328988
 21
6580489.7883280729874969
 31
0.0
  0
LINE
  5
2C4
100
AcDbEntity
100
AcDbLine
  8
Level 1
 62
2
420
16776960
370
53
 48
1.0
  6
Continuous
 10
532681.7459910498000681
 20
6580489.7883280720561743
 30
0.0
 11
532690.6470670666312799
 21
6580483.3897126317024231
 31
0.0
  0
LINE
  5
2C5
100
AcDbEntity
100
AcDbLine
  8
Level 1
 62
2
420
16776960
370
53
 48
1.0
  6
Continuous
 10
532690.6470670666312799
 20
6580483.3897126317024231
 30
0.0
 11
532691.8517920295707881
 21
6580481.9377075741067529
 31
0.0
  0
LINE
  5
2C6
100
AcDbEntity
100
AcDbLine
  8
Level 1
 62
2
420
16776960
370
53
 48
1.0
  6
Continuous
 10
532671.4233936085365713
 20
6580514.091786090284586
 30
0.0
 11
532671.7317284175660461
 21
6580514.1811218867078424
 31
0.0
  0
LINE
  5
2C7
100
AcDbEntity
100
AcDbLine
  8
Level 1
 62
2
420
16776960
370
53
 48
1.0
  6
Continuous
 10
532651.5099068398121744
 20
6580572.0443104868754745
 30
0.0
 11
532664.6013529354240745
 21
6580533.8423595754429698
 31
0.0
  0
TEXT
  5
2C8
100
AcDbEntity
100
AcDbText
  8
Level 1
 62
2
420
16776960
370
0
 48
1.0
  6
Continuous
 10
532664.7689463200513273
 20
6580534.3839464234188199
 30
0.0
 40
0.6
  1
v1-2
 50
312.3521138391023442
 41
1.0
  7
textstyle122
 71
0
 72
1
 11
532665.6835850280476734
 21
6580533.8259184509515762
 31
0.0
100
AcDbText
 73
2
  0
TEXT
  5
2C9
100
AcDbEntity
100
AcDbText
  8
Level 1
 62
2
420
16776960
370
0
 48
1.0
  6
Continuous
 10
532660.9650395658100024
 20
6580535.5472299577668309
 30
0.0
 40
0.6
  1
mk-3
 50
312.3521138391023442
 41
1.0
  7
textstyle123
 71
0
 72
1
 11
532662.0240393393905833
 21
6580534.8308408474549651
 31
0.0
100
AcDbText
 73
2
  0
TEXT
  5
2CA
100
AcDbEntity
100
AcDbText
  8
Level 1
 62
2
420
16776960
370
0
 48
1.0
  6
Continuous
 10
532674.6188017297536135
 20
6580496.8514330601319671
 30
0.0
 40
0.6
  1
mk-2
 50
312.3521138391023442
 41
1.0
  7
textstyle124
 71
0
 72
1
 11
532675.6778015033341944
 21
6580496.1350439498201013
 31
0.0
100
AcDbText
 73
2
  0
TEXT
  5
2CB
100
AcDbEntity
100
AcDbText
  8
Level 1
 62
2
420
16776960
370
0
 48
1.0
  6
Continuous
 10
532678.2298768834443763
 20
6580496.1993026444688439
 30
0.0
 40
0.6
  1
v1-1
 50
312.3521138391023442
 41
1.0
  7
textstyle125
 71
0
 72
1
 11
532679.0578989521600306
 21
6580495.7362913554534316
 31
0.0
100
AcDbText
 73
2
  0
TEXT
  5
2CC
100
AcDbEntity
100
AcDbText
  8
Level 1
 62
2
420
16776960
370
0
 48
1.0
  6
Continuous
 10
532691.9278405831428245
 20
6580481.5395357720553875
 30
0.0
 40
0.6
  1
v1-4
 50
312.3521138391023442
 41
1.0
  7
textstyle126
 71
0
 72
1
 11
532692.8521033622091636
 21
6580480.9709503911435604
 31
0.0
100
AcDbText
 73
2
  0
LWPOLYLINE
  5
2CD
  8
VTRASS
 62
256
370
-1
 48
1.0
  6
-V-
100
AcDbEntity
100
AcDbPolyline
 90
2
 70
128
 10
532651.6517753993393853
 20
6580572.3081545317545533
 30
0.0
 10
532651.4158094862941653
 20
6580572.6269859429448843
 30
0.0
  0
INSERT
  5
2CE
100
AcDbEntity
100
AcDbBlockReference
  8
VTRASS
 62
256
370
-1
 48
1.0
  6
ByLayer
  2
PIMIK
 10
532651.4158094862941653
 20
6580572.6269859429448843
 30
0.0
 41
0.4999999997156908
 42
0.5
 43
1.0
 50
307.7617255350907044
  0
LWPOLYLINE
  5
2CF
  8
KTRASS
 62
256
370
-1
 48
1.0
  6
-K-
100
AcDbEntity
100
AcDbPolyline
 90
2
 70
0
 10
532671.7277390243252739
 20
6580514.280891690403223
 30
0.0
 10
532678.7503248695284128
 20
6580516.3433130141347647
 30
0.0
  0
LWPOLYLINE
  5
2D0
  8
DTRASS
 62
256
370
-1
 48
1.0
  6
-D-
100
AcDbEntity
100
AcDbPolyline
 90
2
 70
0
 10
532664.9033850436098874
 20
6580533.8944480689242482
 30
0.0
 10
532677.960614956333302
 20
6580496.1295519303530455
 30
0.0
  0
LWPOLYLINE
  5
2D1
  8
KTRASS
 62
256
370
-1
 48
1.0
  6
-K-
100
AcDbEntity
100
AcDbPolyline
 90
2
 70
0
 10
532664.6836522171506658
 20
6580532.7085903706029058
 30
0.0
 10
532671.0813477829797193
 20
6580514.6114096287637949
 30
0.0
  0
LWPOLYLINE
  5
2D2
  8
KTRASS
 62
256
370
-1
 48
1.0
  6
-K-
100
AcDbEntity
100
AcDbPolyline
 90
3
 70
128
 10
532677.9690000000409782
 20
6580494.296000000089407
 30
0.0
 10
532681.5015216724714264
 20
6580489.5407806485891342
 30
0.0
 10
532689.8299661626806483
 20
6580483.2999866418540478
 30
0.0
  0
LWPOLYLINE
  5
2D3
  8
DTRASS
 62
256
370
-1
 48
1.0
  6
-D-
100
AcDbEntity
100
AcDbPolyline
 90
3
 70
128
 10
532678.4914985353825614
 20
6580495.3179648583754897
 30
0.0
 10
532682.0656982230721042
 20
6580490.2776074288412929
 30
0.0
 10
532692.4250000000465661
 20
6580482.4830000000074506
 30
0.0
  0
LWPOLYLINE
  5
2D4
  8
VTRASS
 62
256
370
-1
 48
1.0
  6
-V-
100
AcDbEntity
100
AcDbPolyline
 90
7
 70
128
 10
532651.4158094862941653
 20
6580572.6269859429448843
 30
0.0
 10
532651.6517753993393853
 20
6580572.3081545317545533
 30
0.0
 10
532664.5284967232728377
 20
6580533.9353919792920351
 30
0.0
 10
532678.0011590265203267
 20
6580495.3367921486496925
 30
0.0
 10
532681.7459910498000681
 20
6580489.7883280720561743
 30
0.0
 10
532690.6470670677954331
 20
6580483.3897126307711005
 30
0.0
 10
532692.2439999999478459
 20
6580481.5970000000670552
 30
0.0
  0
TEXT
  5
2D5
100
AcDbEntity
100
AcDbText
  8
joonside
 62
5
420
255
370
-1
 48
1.0
  6
ByLayer
 10
532690.8485163432778791
 20
6580484.7686598291620612
 30
0.0
 40
0.7
  1
-2.4-
 50
311.6943736658881221
 41
1.0
  7
textstyle0
 71
0
 72
1
 11
532692.0410824156133458
 21
6580483.9560798862949014
 31
0.0
100
AcDbText
 73
2
  0
LWPOLYLINE
  5
2D6
  8
TEE
 62
8
420
8421504
370
-1
 48
1.0
  6
KRUUSKILL
100
AcDbEntity
100
AcDbPolyline
 90
4
 70
0
 10
532711.2724804956233129
 20
6580490.664422313682735
 30
0.0
 10
532690.7959999999729916
 20
6580479.0400000000372529
 30
0.0
 10
532672.3950000000186265
 20
6580468.5449999999254942
 30
0.0
 10
532656.182435724651441
 20
6580459.6880643228068948
 30
0.0
  0
LWPOLYLINE
  5
2D7
  8
TEE
 62
8
420
8421504
370
-1
 48
1.0
  6
KRUUSKILL
100
AcDbEntity
100
AcDbPolyline
 90
5
 70
0
 10
532658.0457336151739582
 20
6580455.5518461400642991
 30
0.0
 10
532669.1069999999599531
 20
6580461.269000000320375
 30
0.0
 10
532676.2929999999469146
 20
6580465.5339999999850988
 30
0.0
 10
532693.6080000000074506
 20
6580475.1820000000298023
 30
0.0
 10
532713.0390686887549236
 20
6580486.6814128505066037
 30
0.0
  0
LWPOLYLINE
  5
2D8
  8
VEEKOGU
 62
8
420
8421504
370
-1
 48
1.0
  6
KRAAVIPERV
100
AcDbEntity
100
AcDbPolyline
 90
2
 70
0
 10
532671.3810000000521541
 20
6580459.1030000001192093
 30
0.0
 10
532659.4281241573626176
 20
6580452.483164032921195
 30
0.0
  0
ARC
  5
2D9
100
AcDbEntity
  8
VEEKOGU
 62
8
420
8421504
370
-1
 48
1.0
  6
KRAAVIPERV
100
AcDbCircle
 10
532672.4809116745600477
 20
6580456.2021401496604085
 30
0.0
 40
3.1023851411007328
100
AcDbArc
 50
310.725045231842671
 51
110.7650975937526425
  0
LWPOLYLINE
  5
2DA
  8
VEEKOGU
 62
8
420
8421504
370
-1
 48
1.0
  6
KRAAVIPERV
100
AcDbEntity
100
AcDbPolyline
 90
3
 70
0
 10
532674.5050000000046566
 20
6580453.8509999997913837
 30
0.0
 10
532665.6310000000521541
 20
6580449.1459999997168779
 30
0.0
 10
532661.879625650588423
 20
6580447.0412295460700989
 30
0.0
  0
LWPOLYLINE
  5
2DB
  8
VEEKOGU
 62
8
420
8421504
370
-1
 48
1.0
  6
KRAAVIPERV
100
AcDbEntity
100
AcDbPolyline
 90
2
 70
0
 10
532677.8639999999431893
 20
6580463.2290000002831221
 30
0.0
 10
532714.2531180350342765
 20
6580483.9441761495545506
 30
0.0
  0
ARC
  5
2DC
100
AcDbEntity
  8
VEEKOGU
 62
8
420
8421504
370
-1
 48
1.0
  6
KRAAVIPERV
100
AcDbCircle
 10
532691.0695309503935277
 20
6580463.5920921955257654
 30
0.0
 40
13.2105217014903662
100
AcDbArc
 50
181.5749772136439617
 51
211.9314039298305374
  0
LWPOLYLINE
  5
2DD
  8
VEEKOGU
 62
8
420
8421504
370
-1
 48
1.0
  6
KRAAVIPERV
100
AcDbEntity
100
AcDbPolyline
 90
3
 70
0
 10
532679.8580000000074506
 20
6580456.6050000004470348
 30
0.0
 10
532688.8549999999813735
 20
6580462.0609999997541308
 30
0.0
 10
532716.7986672341357917
 20
6580478.2048948695883155
 30
0.0
  0
TEXT
  5
2DE
100
AcDbEntity
100
AcDbText
  8
TEE
 62
8
420
8421504
370
-1
 48
1.0
  6
KRUUSKILL
 10
532669.713298475719057
 20
6580464.3374867336824536
 30
0.0
 40
1.2
  1
Kotka tee 
 50
29.9181298636730162
 41
1.0
  7
textstyle1
 71
0
 72
0
 11
532674.1934875884326175
 21
6580467.6078464156016707
 31
0.0
100
AcDbText
 73
2
  0
TEXT
  5
2DF
100
AcDbEntity
100
AcDbText
  8
VEEKOGU
 62
8
420
8421504
370
-1
 48
1.0
  6
KRAAVIPERV
 10
532690.7488988168770447
 20
6580467.403810172341764
 30
0.0
 40
0.9
  1
kraav
 50
29.9181298636730162
 41
1.0
  7
textstyle2
 71
0
 72
0
 11
532692.3260347677860409
 21
6580468.8305552005767822
 31
0.0
100
AcDbText
 73
2
  0
TEXT
  5
2E0
100
AcDbEntity
100
AcDbText
  8
VEEKOGU
 62
8
420
8421504
370
-1
 48
1.0
  6
KRAAVIPERV
 10
532663.3393866197438911
 20
6580450.5705780852586031
 30
0.0
 40
0.9
  1
kraav
 50
29.9181298636730162
 41
1.0
  7
textstyle3
 71
0
 72
0
 11
532664.9165225706528872
 21
6580451.9973231134936213
 31
0.0
100
AcDbText
 73
2
  0
LWPOLYLINE
  5
2E1
  8
KTRASS
 62
256
370
-1
 48
1.0
  6
-K-
100
AcDbEntity
100
AcDbPolyline
 90
2
 70
128
 10
532677.4889378504594788
 20
6580494.6562132593244314
 30
0.0
 10
532677.0355789790628478
 20
6580494.5242021046578884
 30
0.0
  0
TEXT
  5
2E2
100
AcDbEntity
100
AcDbText
  8
PIIR
 62
256
370
-1
 48
1.0
  6
KATASTRIPIIR
 10
532708.0455852646846324
 20
6580460.1715259281918406
 30
0.0
 40
0.9
  1
Jaanip\U+00f5llu
 50
0.0
 41
1.0
  7
textstyle4
 71
0
 72
0
 11
532708.0455852646846324
 21
6580460.1715259281918406
 31
0.0
100
AcDbText
 73
0
  0
TEXT
  5
2E3
100
AcDbEntity
100
AcDbText
  8
PIIR
 62
256
370
-1
 48
1.0
  6
KATASTRIPIIR
 10
532705.2435227767564356
 20
6580458.607532418332994
 30
0.0
 40
0.9
  1
72701:002:2152
 50
0.0
 41
1.0
  7
textstyle5
 71
0
 72
0
 11
532705.2435227767564356
 21
6580458.607532418332994
 31
0.0
100
AcDbText
 73
0
  0
INSERT
  5
2E4
100
AcDbEntity
100
AcDbBlockReference
  8
KKAEV
 62
1
420
16711680
370
-1
 48
1.0
  6
ByLayer
  2
KAKAEV
 10
532677.9690000000409782
 20
6580494.796000000089407
 30
0.0
 41
0.5
 42
0.5
 43
1.0
  0
CIRCLE
  5
2E5
100
AcDbEntity
100
AcDbCircle
  8
ABIJOONIS
 62
5
420
255
370
-1
 48
1.0
  6
ByLayer
 10
532681.7459910498000681
 20
6580489.7883280720561743
 30
0.0
 40
0.1
  0
CIRCLE
  5
2E6
100
AcDbEntity
100
AcDbCircle
  8
ABIJOONIS
 62
5
420
255
370
-1
 48
1.0
  6
ByLayer
 10
532683.5631483601173386
 20
6580490.9908339288085699
 30
0.0
 40
0.9
  0
TEXT
  5
2E7
100
AcDbEntity
100
AcDbText
  8
ABIJOONIS
 62
5
420
255
370
-1
 48
1.0
  6
ByLayer
 10
532683.1548150267917663
 20
6580490.6408339291810989
 30
0.0
 40
0.7
  1
10
 50
0.0
 41
1.0
  7
textstyle6
 71
0
 72
1
 11
532683.5631483601173386
 21
6580490.9908339288085699
 31
0.0
100
AcDbText
 73
2
  0
LINE
  5
2E8
100
AcDbEntity
100
AcDbLine
  8
ABIJOONIS
 62
5
420
255
370
-1
 48
1.0
  6
ByLayer
 10
532681.8293847923632711
 20
6580489.8435139730572701
 30
0.0
 11
532682.8126046768156812
 21
6580490.4941608179360628
 31
0.0
  0
CIRCLE
  5
2E9
100
AcDbEntity
100
AcDbCircle
  8
ABIJOONIS
 62
5
420
255
370
-1
 48
1.0
  6
ByLayer
 10
532690.6470670677954331
 20
6580483.3897126307711005
 30
0.0
 40
0.1
  0
CIRCLE
  5
2EA
100
AcDbEntity
100
AcDbCircle
  8
ABIJOONIS
 62
5
420
255
370
-1
 48
1.0
  6
ByLayer
 10
532692.8616726367035881
 20
6580485.4106852691620588
 30
0.0
 40
0.9
  0
TEXT
  5
2EB
100
AcDbEntity
100
AcDbText
  8
ABIJOONIS
 62
5
420
255
370
-1
 48
1.0
  6
ByLayer
 10
532692.5116726367268711
 20
6580485.0606852695345879
 30
0.0
 40
0.7
  1
11
 50
0.0
 41
1.0
  7
textstyle7
 71
0
 72
1
 11
532692.8616726367035881
 21
6580485.4106852691620588
 31
0.0
100
AcDbText
 73
2
  0
LINE
  5
2EC
100
AcDbEntity
100
AcDbLine
  8
ABIJOONIS
 62
5
420
255
370
-1
 48
1.0
  6
ByLayer
 10
532690.7209331950871274
 20
6580483.4571203105151653
 30
0.0
 11
532692.1968774910783395
 21
6580484.8040161542594433
 31
0.0
  0
TEXT
  5
2ED
100
AcDbEntity
100
AcDbText
  8
vork
 62
256
370
-1
 48
1.0
  6
ByLayer
 10
532685.7757158336462453
 20
6580549.400000000372529
 30
0.0
 40
1.2
  1
X= 6580550
 50
0.0
 41
1.0
  7
textstyle8
 71
0
 72
0
 11
532685.7757158336462453
 21
6580550.0
 31
0.0
100
AcDbText
 73
2
  0
TEXT
  5
2EE
100
AcDbEntity
100
AcDbText
  8
vork
 62
256
370
-1
 48
1.0
  6
ByLayer
 10
532699.4000000000232831
 20
6580547.0
 30
0.0
 40
1.2
  1
Y= 532700
 50
270.0
 41
1.0
  7
textstyle9
 71
0
 72
0
 11
532700.0
 21
6580547.0
 31
0.0
100
AcDbText
 73
2
  0
TEXT
  5
2EF
100
AcDbEntity
100
AcDbText
  8
vork
 62
256
370
-1
 48
1.0
  6
ByLayer
 10
532603.0
 20
6580549.400000000372529
 30
0.0
 40
1.2
  1
X= 6580550
 50
0.0
 41
1.0
  7
textstyle10
 71
0
 72
0
 11
532603.0
 21
6580550.0
 31
0.0
100
AcDbText
 73
2
  0
TEXT
  5
2F0
100
AcDbEntity
100
AcDbText
  8
vork
 62
256
370
-1
 48
1.0
  6
ByLayer
 10
532599.4000000000232831
 20
6580547.0
 30
0.0
 40
1.2
  1
Y= 532600
 50
270.0
 41
1.0
  7
textstyle11
 71
0
 72
0
 11
532600.0
 21
6580547.0
 31
0.0
100
AcDbText
 73
2
  0
LINE
  5
2F1
100
AcDbEntity
100
AcDbLine
  8
0
 62
256
370
-1
 48
1.0
  6
ByLayer
 10
532661.2281014245236292
 20
6580599.0839753160253167
 30
0.0
 11
532656.6669750007567927
 21
6580612.3201426602900028
 31
0.0
  0
LINE
  5
2F2
100
AcDbEntity
100
AcDbLine
  8
0
 62
256
370
-1
 48
1.0
  6
ByLayer
 10
532658.2533842321718112
 20
6580591.5302871474996209
 30
0.0
 11
532660.465214952128008
 21
6580594.4080034848302603
 31
0.0
  0
LINE
  5
2F3
100
AcDbEntity
100
AcDbLine
  8
0
 62
256
370
-1
 48
1.0
  6
ByLayer
 10
532659.0150163141079247
 20
6580596.2098946189507842
 30
0.0
 11
532674.0170481713721529
 21
6580552.7832014057785273
 31
0.0
  0
LINE
  5
2F4
100
AcDbEntity
100
AcDbLine
  8
0
 62
256
370
-1
 48
1.0
  6
ByLayer
 10
532659.8941576883662492
 20
6580593.6650258228182793
 30
0.0
 11
532663.3102276602294296
 21
6580598.0900561707094312
 31
0.0
  0
LINE
  5
2F5
100
AcDbEntity
100
AcDbLine
  8
TRUUP
 62
256
370
-1
 48
1.0
  6
ByLayer
 10
532659.4876111370977014
 20
6580596.3731555547565222
 30
0.0
 11
532674.4896429943619296
 21
6580552.9464623415842652
 31
0.0
  0
LINE
  5
2F6
100
AcDbEntity
100
AcDbLine
  8
TRUUP
 62
256
370
-1
 48
1.0
  6
ByLayer
 10
532653.2778302165679634
 20
6580591.3793725715950131
 30
0.0
 11
532667.4556749060284346
 21
6580596.2772006569430232
 31
0.0
  0
LINE
  5
2F7
100
AcDbEntity
100
AcDbLine
  8
TRUUP
 62
256
370
-1
 48
1.0
  6
ByLayer
 10
532655.2043092634994537
 20
6580585.8027536598965526
 30
0.0
 11
532669.3821539529599249
 21
6580590.7005817452445626
 31
0.0
  0
DIMENSION
  5
2F8
100
AcDbEntity
  8
0
 62
256
370
-1
 48
1.0
  6
ByLayer
100
AcDbDimension
 10
532643.83319296175614
 20
6580594.8194507323205471
 30
0.0
 11
532644.1918884020997211
 21
6580604.1293320851400495
 31
0.0
 70
1
 71
8
 72
2
 41
1.0
 42
0.0
  1

  3
Standard
100
AcDbAlignedDimension
 13
532655.1672497905092314
 23
6580592.0320847779512405
 33
0.0
 14
532656.5008988040499389
 24
6580597.4550015944987535
 34
0.0
1001
ACAD
1000
DSTYLE
1002
{
1070
144
1040
1.0
1070
40
1040
1.0
1002
}
  0
DIMENSION
  5
2F9
100
AcDbEntity
  8
0
 62
256
370
-1
 48
1.0
  6
ByLayer
100
AcDbDimension
 10
532675.5199036588892341
 20
6580599.0630406020209193
 30
0.0
 11
532678.2553737686248496
 21
6580596.8869596570730209
 31
0.0
 70
1
 71
8
 72
2
 41
1.0
 42
0.0
  1

  3
Standard
100
AcDbAlignedDimension
 13
532667.4556749060284346
 23
6580596.2772006569430232
 33
0.0
 14
532669.3821539529599249
 24
6580590.7005817452445626
 34
0.0
1001
ACAD
1000
DSTYLE
1002
{
1070
144
1040
1.0
1070
40
1040
1.0
1002
}
  0
DIMENSION
  5
2FA
100
AcDbEntity
  8
0
 62
256
370
-1
 48
1.0
  6
ByLayer
100
AcDbDimension
 10
532663.5369664429454133
 20
6580604.9550143256783485
 30
0.0
 11
532666.7527492004446685
 21
6580604.5091018239036202
 31
0.0
 70
1
 71
8
 72
2
 41
1.0
 42
0.0
  1

  3
Standard
100
AcDbAlignedDimension
 13
532656.5008988040499389
 23
6580597.4550015944987535
 33
0.0
 14
532660.3667525611817837
 24
6580593.8282866152003407
 34
0.0
1001
ACAD
1000
DSTYLE
1002
{
1070
144
1040
1.0
1070
40
1040
1.0
1002
}
  0
DIMENSION
  5
2FB
100
AcDbEntity
  8
0
 62
256
370
-1
 48
1.0
  6
ByLayer
100
AcDbDimension
 10
532660.0335002965293825
 20
6580577.9388341140002012
 30
0.0
 11
532662.0220746952109039
 21
6580580.6095288749784231
 31
0.0
 70
1
 71
8
 72
2
 41
1.0
 42
0.0
  1

  3
Standard
100
AcDbAlignedDimension
 13
532657.0916257901117206
 23
6580586.4547393536195159
 33
0.0
 14
532662.2932316086953506
 24
6580588.2516677035018802
 34
0.0
1001
ACAD
1000
DSTYLE
1002
{
1070
144
1040
1.0
1070
40
1040
1.0
1002
}
  0
DIMENSION
  5
2FC
100
AcDbEntity
  8
0
 62
256
370
-1
 48
1.0
  6
ByLayer
100
AcDbDimension
 10
532638.3846877460600808
 20
6580583.7118580564856529
 30
0.0
 11
532642.341512440238148
 21
6580577.0524671990424395
 31
0.0
 70
1
 71
8
 72
2
 41
1.0
 42
0.0
  1

  3
Standard
100
AcDbAlignedDimension
 13
532656.0
 23
6580589.0
 33
0.0
 14
532660.3220000000437722
 24
6580574.6029999991878867
 34
0.0
1001
ACAD
1000
DSTYLE
1002
{
1070
144
1040
1.0
1070
40
1040
1.0
1002
}
  0
DIMENSION
  5
2FD
100
AcDbEntity
  8
0
 62
256
370
-1
 48
1.0
  6
ByLayer
100
AcDbDimension
 10
532650.0731704335194081
 20
6580582.4305438539013267
 30
0.0
 11
532654.5145462303189561
 21
6580582.1964369639754295
 31
0.0
 70
1
 71
8
 72
2
 41
1.0
 42
0.0
  1

  3
Standard
100
AcDbAlignedDimension
 13
532655.1682095081778243
 23
6580592.0324163176119328
 33
0.0
 14
532662.2932316086953506
 24
6580588.2516677035018802
 34
0.0
1001
ACAD
1000
DSTYLE
1002
{
1070
144
1040
1.0
1070
40
1040
1.0
1002
}
  0
ENDSEC
  0
SECTION
  2
OBJECTS
  0
DICTIONARY
  5
C
100
AcDbDictionary
280
0
281
1
  3
ACAD_GROUP
350
D
  3
ACAD_LAYOUT
350
1A
  3
ACAD_MLINESTYLE
350
17
  3
ACAD_PLOTSETTINGS
350
19
  3
ACAD_PLOTSTYLENAME
350
E
  3
AcDbVariableDictionary
350
2FE
  3
QCAD_OBJECTS
350
2FF
  0
DICTIONARY
  5
D
100
AcDbDictionary
280
0
281
1
  0
ACDBDICTIONARYWDFLT
  5
E
100
AcDbDictionary
281
1
  3
Normal
350
F
100
AcDbDictionaryWithDefault
340
F
  0
ACDBPLACEHOLDER
  5
F
  0
DICTIONARY
  5
17
100
AcDbDictionary
280
0
281
1
  3
Standard
350
18
  0
MLINESTYLE
  5
18
100
AcDbMlineStyle
  2
STANDARD
 70
0
  3

 62
256
 51
90.0
 52
90.0
 71
2
 49
0.5
 62
256
  6
BYLAYER
 49
-0.5
 62
256
  6
BYLAYER
  0
DICTIONARY
  5
19
100
AcDbDictionary
280
0
281
1
  0
DICTIONARY
  5
1A
100
AcDbDictionary
281
1
  3
Layout1
350
1E
  3
Layout2
350
26
  3
Model
350
22
  0
LAYOUT
  5
1E
100
AcDbPlotSettings
  1

  2
none_device
  4

  6

 40
0.0
 41
0.0
 42
0.0
 43
0.0
 44
0.0
 45
0.0
 46
0.0
 47
0.0
 48
0.0
 49
0.0
140
0.0
141
0.0
142
1.0
143
1.0
 70
688
 72
0
 73
0
 74
5
  7

 75
16
147
1.0
148
0.0
149
0.0
100
AcDbLayout
  1
Layout1
 70
1
 71
1
 10
0.0
 20
0.0
 11
420.0
 21
297.0
 12
0.0
 22
0.0
 32
0.0
 14
100000000000000000000.0
 24
100000000000000000000.0
 34
100000000000000000000.0
 15
-100000000000000000000.0
 25
-100000000000000000000.0
 35
-100000000000000000000.0
146
0.0
 13
0.0
 23
0.0
 33
0.0
 16
1.0
 26
0.0
 36
0.0
 17
0.0
 27
1.0
 37
0.0
 76
0
330
1B
  0
LAYOUT
  5
22
100
AcDbPlotSettings
  1

  2
none_device
  4

  6

 40
0.0
 41
0.0
 42
0.0
 43
0.0
 44
0.0
 45
0.0
 46
0.0
 47
0.0
 48
0.0
 49
0.0
140
0.0
141
0.0
142
1.0
143
1.0
 70
1712
 72
0
 73
0
 74
0
  7

 75
0
147
1.0
148
0.0
149
0.0
100
AcDbLayout
  1
Model
 70
1
 71
0
 10
0.0
 20
0.0
 11
12.0
 21
9.0
 12
0.0
 22
0.0
 32
0.0
 14
0.0
 24
0.0
 34
0.0
 15
0.0
 25
0.0
 35
0.0
146
0.0
 13
0.0
 23
0.0
 33
0.0
 16
1.0
 26
0.0
 36
0.0
 17
0.0
 27
1.0
 37
0.0
 76
0
330
1F
  0
LAYOUT
  5
26
100
AcDbPlotSettings
  1

  2
none_device
  4

  6

 40
0.0
 41
0.0
 42
0.0
 43
0.0
 44
0.0
 45
0.0
 46
0.0
 47
0.0
 48
0.0
 49
0.0
140
0.0
141
0.0
142
1.0
143
1.0
 70
688
 72
0
 73
0
 74
5
  7

 75
16
147
1.0
148
0.0
149
0.0
100
AcDbLayout
  1
Layout2
 70
1
 71
2
 10
0.0
 20
0.0
 11
12.0
 21
9.0
 12
0.0
 22
0.0
 32
0.0
 14
0.0
 24
0.0
 34
0.0
 15
0.0
 25
0.0
 35
0.0
146
0.0
 13
0.0
 23
0.0
 33
0.0
 16
1.0
 26
0.0
 36
0.0
 17
0.0
 27
1.0
 37
0.0
 76
0
330
23
  0
DICTIONARY
  5
2FE
100
AcDbDictionary
281
1
  3
DIMASSOC
350
301
  3
HIDETEXT
350
300
  0
DICTIONARYVAR
  5
300
100
DictionaryVariables
280
0
  1
2
  0
DICTIONARYVAR
  5
301
100
DictionaryVariables
280
0
  1
1
  0
DICTIONARY
  5
2FF
100
AcDbDictionary
281
1
  3
ColorSettings/BackgroundColor
350
302
  3
ColorSettings/ColorMode
350
303
  3
Grid/DisplayGrid00
350
304
  3
Grid/DisplayGrid01
350
305
  3
Grid/DisplayGrid02
350
306
  3
Grid/DisplayGrid03
350
307
  3
Grid/GridSpacingX00
350
308
  3
Grid/GridSpacingX01
350
309
  3
Grid/GridSpacingX02
350
30A
  3
Grid/GridSpacingX03
350
30B
  3
Grid/GridSpacingY00
350
30C
  3
Grid/GridSpacingY01
350
30D
  3
Grid/GridSpacingY02
350
30E
  3
Grid/GridSpacingY03
350
30F
  3
Grid/IsometricGrid00
350
310
  3
Grid/IsometricGrid01
350
311
  3
Grid/IsometricGrid02
350
312
  3
Grid/IsometricGrid03
350
313
  3
Grid/IsometricProjection00
350
314
  3
Grid/IsometricProjection01
350
315
  3
Grid/IsometricProjection02
350
316
  3
Grid/IsometricProjection03
350
317
  3
Grid/MetaGridSpacingX00
350
318
  3
Grid/MetaGridSpacingX01
350
319
  3
Grid/MetaGridSpacingX02
350
31A
  3
Grid/MetaGridSpacingX03
350
31B
  3
Grid/MetaGridSpacingY00
350
31C
  3
Grid/MetaGridSpacingY01
350
31D
  3
Grid/MetaGridSpacingY02
350
31E
  3
Grid/MetaGridSpacingY03
350
31F
  3
MultiPageSettings/Columns
350
320
  3
MultiPageSettings/GlueMarginsBottom
350
321
  3
MultiPageSettings/GlueMarginsLeft
350
322
  3
MultiPageSettings/GlueMarginsRight
350
323
  3
MultiPageSettings/GlueMarginsTop
350
324
  3
MultiPageSettings/PrintCropMarks
350
325
  3
MultiPageSettings/Rows
350
326
  3
PageSettings/OffsetX
350
327
  3
PageSettings/OffsetY
350
328
  3
PageSettings/PageOrientation
350
329
  3
PageSettings/PaperHeight
350
32A
  3
PageSettings/PaperWidth
350
32B
  3
PageSettings/Scale
350
32C
  3
PageSettings/ShowPaperBorders
350
32D
  3
QCADVersion
350
32E
  3
UnitSettings/PaperUnit
350
32F
  0
XRECORD
  5
302
330
2FF
100
AcDbXrecord
280
1
1000
White
  0
XRECORD
  5
303
330
2FF
100
AcDbXrecord
280
1
1000
FullColor
  0
XRECORD
  5
304
330
2FF
100
AcDbXrecord
280
1
290
1
  0
XRECORD
  5
305
330
2FF
100
AcDbXrecord
280
1
290
1
  0
XRECORD
  5
306
330
2FF
100
AcDbXrecord
280
1
290
1
  0
XRECORD
  5
307
330
2FF
100
AcDbXrecord
280
1
290
1
  0
XRECORD
  5
308
330
2FF
100
AcDbXrecord
280
1
1000
auto
  0
XRECORD
  5
309
330
2FF
100
AcDbXrecord
280
1
1000
auto
  0
XRECORD
  5
30A
330
2FF
100
AcDbXrecord
280
1
1000
auto
  0
XRECORD
  5
30B
330
2FF
100
AcDbXrecord
280
1
1000
auto
  0
XRECORD
  5
30C
330
2FF
100
AcDbXrecord
280
1
1000
auto
  0
XRECORD
  5
30D
330
2FF
100
AcDbXrecord
280
1
1000
auto
  0
XRECORD
  5
30E
330
2FF
100
AcDbXrecord
280
1
1000
auto
  0
XRECORD
  5
30F
330
2FF
100
AcDbXrecord
280
1
1000
auto
  0
XRECORD
  5
310
330
2FF
100
AcDbXrecord
280
1
290
0
  0
XRECORD
  5
311
330
2FF
100
AcDbXrecord
280
1
290
0
  0
XRECORD
  5
312
330
2FF
100
AcDbXrecord
280
1
290
0
  0
XRECORD
  5
313
330
2FF
100
AcDbXrecord
280
1
290
0
  0
XRECORD
  5
314
330
2FF
100
AcDbXrecord
280
1
 90
0
  0
XRECORD
  5
315
330
2FF
100
AcDbXrecord
280
1
 90
0
  0
XRECORD
  5
316
330
2FF
100
AcDbXrecord
280
1
 90
0
  0
XRECORD
  5
317
330
2FF
100
AcDbXrecord
280
1
 90
0
  0
XRECORD
  5
318
330
2FF
100
AcDbXrecord
280
1
1000
auto
  0
XRECORD
  5
319
330
2FF
100
AcDbXrecord
280
1
1000
auto
  0
XRECORD
  5
31A
330
2FF
100
AcDbXrecord
280
1
1000
auto
  0
XRECORD
  5
31B
330
2FF
100
AcDbXrecord
280
1
1000
auto
  0
XRECORD
  5
31C
330
2FF
100
AcDbXrecord
280
1
1000
auto
  0
XRECORD
  5
31D
330
2FF
100
AcDbXrecord
280
1
1000
auto
  0
XRECORD
  5
31E
330
2FF
100
AcDbXrecord
280
1
1000
auto
  0
XRECORD
  5
31F
330
2FF
100
AcDbXrecord
280
1
1000
auto
  0
XRECORD
  5
320
330
2FF
100
AcDbXrecord
280
1
 90
1
  0
XRECORD
  5
321
330
2FF
100
AcDbXrecord
280
1
 40
10.0
  0
XRECORD
  5
322
330
2FF
100
AcDbXrecord
280
1
 40
10.0
  0
XRECORD
  5
323
330
2FF
100
AcDbXrecord
280
1
 40
10.0
  0
XRECORD
  5
324
330
2FF
100
AcDbXrecord
280
1
 40
10.0
  0
XRECORD
  5
325
330
2FF
100
AcDbXrecord
280
1
290
0
  0
XRECORD
  5
326
330
2FF
100
AcDbXrecord
280
1
 90
1
  0
XRECORD
  5
327
330
2FF
100
AcDbXrecord
280
1
 40
532612.3526814173674211
  0
XRECORD
  5
328
330
2FF
100
AcDbXrecord
280
1
 40
6580529.6954515827819705
  0
XRECORD
  5
329
330
2FF
100
AcDbXrecord
280
1
1000
Portrait
  0
XRECORD
  5
32A
330
2FF
100
AcDbXrecord
280
1
 40
297.0
  0
XRECORD
  5
32B
330
2FF
100
AcDbXrecord
280
1
 40
210.0
  0
XRECORD
  5
32C
330
2FF
100
AcDbXrecord
280
1
1000
0.00233
  0
XRECORD
  5
32D
330
2FF
100
AcDbXrecord
280
1
290
1
  0
XRECORD
  5
32E
330
2FF
100
AcDbXrecord
280
1
1000
3.12.8
  0
XRECORD
  5
32F
330
2FF
100
AcDbXrecord
280
1
 90
4
  0
ENDSEC
  0
EOF
